{"glyphs":{"0":{"ha":794,"x_min":0,"x_max":0,"o":"m 397 -19 b 725 450 569 -19 725 126 b 397 922 725 776 569 922 b 69 450 225 922 69 776 b 397 -19 69 126 225 -19 z m 397 43 b 225 450 271 43 225 161 b 397 860 225 742 271 860 b 569 450 524 860 569 742 b 397 43 569 161 524 43 z "},"1":{"ha":540,"x_min":0,"x_max":0,"o":"m 132 -12 b 300 0 186 -4 247 0 b 468 -12 351 0 419 -6 b 508 19 493 -15 508 1 b 478 54 508 33 499 49 l 367 88 l 367 886 b 336 917 367 904 351 917 b 303 896 325 917 313 911 b 69 765 254 822 172 785 b 35 729 50 761 35 749 b 75 693 35 710 49 693 l 233 693 l 233 88 l 122 54 b 92 19 101 49 92 35 b 132 -12 92 1 107 -15 z "},"2":{"ha":724,"x_min":0,"x_max":0,"o":"m 97 -12 b 221 0 129 -12 143 0 l 472 0 b 576 -10 539 0 551 -10 b 610 22 594 -10 607 0 b 664 246 622 147 664 217 b 632 278 664 264 650 278 b 597 254 618 278 606 271 b 383 106 539 138 490 106 l 190 106 l 186 113 l 475 408 b 635 696 582 517 635 594 b 363 924 635 835 507 924 b 67 661 163 924 67 783 b 171 529 67 594 106 529 b 250 607 208 529 250 560 b 182 743 250 679 182 668 b 329 857 182 797 229 857 b 482 696 414 857 482 794 b 353 414 482 611 435 515 l 72 67 b 57 28 60 50 57 38 b 97 -12 57 7 72 -12 z "},"3":{"ha":699,"x_min":0,"x_max":0,"o":"m 324 -24 b 636 260 471 -24 636 76 b 413 483 636 365 547 465 l 413 490 b 597 704 529 522 597 599 b 332 924 597 832 481 924 b 75 724 178 924 75 825 b 158 628 75 664 110 628 b 228 701 196 628 228 664 b 201 788 228 738 201 746 b 310 864 201 829 256 864 b 458 706 399 864 458 800 b 318 511 458 597 392 511 b 243 518 282 511 261 518 b 203 481 217 518 203 500 b 243 443 203 463 217 443 b 318 451 254 443 275 451 b 486 261 421 451 486 371 b 311 39 486 119 414 39 b 182 133 242 39 182 81 b 214 228 182 174 214 185 b 140 296 214 256 188 296 b 63 207 96 296 63 263 b 324 -24 63 86 171 -24 z "},"4":{"ha":678,"x_min":0,"x_max":0,"o":"m 254 -10 b 414 1 306 -3 364 1 b 574 -10 450 1 521 -3 b 607 18 593 -12 607 1 b 581 50 607 36 594 44 l 479 88 l 479 207 l 596 207 b 650 261 625 207 650 229 b 590 313 650 290 624 315 l 479 301 l 479 442 b 451 460 479 457 464 465 l 367 424 b 349 399 356 419 349 413 l 349 288 l 111 261 l 108 268 b 471 831 282 407 471 633 b 392 921 471 883 440 921 b 314 831 344 921 314 886 b 36 281 314 639 222 435 b 15 240 21 268 15 257 b 57 207 15 222 29 207 l 349 207 l 349 88 l 247 50 b 221 18 233 44 221 36 b 254 -10 221 0 233 -12 z "},"5":{"ha":685,"x_min":0,"x_max":0,"o":"m 304 -18 b 631 297 497 -18 631 136 b 347 603 631 479 504 603 b 181 536 268 603 215 572 l 176 539 l 196 782 b 222 803 197 799 206 804 l 494 778 b 581 854 550 772 581 814 b 501 921 581 892 553 928 b 254 903 379 904 322 903 l 160 903 b 117 867 136 903 117 889 b 126 799 117 847 129 833 l 100 456 b 124 426 99 435 114 426 b 167 456 142 426 149 438 b 301 513 190 479 232 513 b 483 290 410 513 483 425 b 306 49 483 142 425 49 b 186 129 243 49 186 85 b 214 228 186 172 214 188 b 144 296 214 264 182 296 b 64 207 90 296 64 254 b 304 -18 64 72 179 -18 z "},"6":{"ha":743,"x_min":0,"x_max":0,"o":"m 369 -19 b 669 297 538 -19 669 121 b 397 594 669 449 563 594 b 207 453 306 594 231 540 l 201 453 b 392 856 203 724 274 856 b 514 728 472 856 519 804 b 586 638 510 667 544 638 b 667 725 625 638 667 667 b 417 922 667 829 549 922 b 68 425 207 922 68 733 b 369 -19 68 150 189 -19 z m 372 43 b 211 276 276 43 211 140 b 372 510 211 413 276 510 b 533 276 468 510 533 413 b 372 43 533 140 468 43 z "},"7":{"ha":672,"x_min":0,"x_max":0,"o":"m 282 -18 b 358 64 329 -18 358 19 b 638 847 358 347 390 561 b 651 879 647 858 651 869 b 613 914 651 899 636 914 b 507 903 590 914 574 903 l 226 903 b 174 906 206 903 185 904 l 132 911 b 81 874 100 915 85 899 b 32 694 68 800 58 760 b 26 672 29 688 26 681 b 57 642 26 653 42 642 b 89 660 69 642 81 647 b 390 797 165 779 222 797 l 536 797 l 540 790 b 201 113 289 576 201 267 b 282 -18 201 15 242 -18 z "},"8":{"ha":715,"x_min":0,"x_max":0,"o":"m 351 -28 b 650 238 535 -28 650 107 b 461 499 650 350 576 443 l 461 500 b 618 714 553 549 618 624 b 367 924 618 839 503 924 b 113 686 226 924 113 818 b 244 461 113 592 163 511 l 244 460 b 60 214 146 413 60 328 b 351 -28 60 76 192 -28 z m 411 524 b 222 721 271 588 222 639 b 361 858 222 797 285 858 b 492 714 433 858 492 803 b 411 524 492 642 465 568 z m 363 39 b 192 217 250 39 192 103 b 299 432 192 310 233 385 b 531 201 458 367 531 292 b 363 39 531 94 450 39 z "},"9":{"ha":744,"x_min":0,"x_max":0,"o":"m 374 922 b 74 606 206 922 74 782 b 346 308 74 454 181 308 b 536 450 438 308 513 363 l 542 450 b 351 47 540 179 469 47 b 229 175 271 47 224 99 b 157 265 233 236 199 265 b 76 178 118 265 76 236 b 326 -19 76 74 194 -19 b 675 478 536 -19 675 169 b 374 922 675 753 554 922 z m 371 860 b 532 626 467 860 532 763 b 371 393 532 490 467 393 b 210 626 275 393 210 490 b 371 860 210 763 275 860 z "},"´":{"ha":1040,"x_min":0,"x_max":0,"o":"m 526 592 l 526 943 l 514 943 l 514 592 z m 704 904 l 693 913 l 533 524 l 546 519 z m 507 524 l 346 908 l 333 906 l 494 519 z m 442 561 l 193 810 l 183 801 l 433 553 z m 856 801 l 847 810 l 599 561 l 607 553 z m 954 647 l 951 661 l 565 500 l 569 488 z m 475 500 l 90 658 l 83 647 l 469 488 z m 403 468 l 403 481 l 51 481 l 51 468 z m 989 468 l 989 481 l 638 481 l 638 468 z m 475 449 l 469 461 l 86 300 l 89 288 z m 956 300 l 569 461 l 565 449 l 950 290 z m 507 424 l 494 429 l 336 44 l 346 36 z m 707 43 l 546 429 l 533 424 l 693 40 z m 442 388 l 433 396 l 183 147 l 193 138 z m 856 147 l 607 396 l 599 388 l 847 138 z m 526 6 l 526 357 l 514 357 l 514 6 z "},"Ā":{"ha":1040,"x_min":0,"x_max":0,"o":"m 526 592 l 526 943 l 514 943 l 514 592 z m 704 904 l 693 913 l 533 524 l 546 519 z m 507 524 l 346 908 l 333 906 l 494 519 z m 442 561 l 193 810 l 183 801 l 433 553 z m 856 801 l 847 810 l 599 561 l 607 553 z m 954 647 l 951 661 l 565 500 l 569 488 z m 475 500 l 90 658 l 83 647 l 469 488 z m 403 468 l 403 481 l 51 481 l 51 468 z m 989 468 l 989 481 l 638 481 l 638 468 z m 475 449 l 469 461 l 86 300 l 89 288 z m 956 300 l 569 461 l 565 449 l 950 290 z m 507 424 l 494 429 l 336 44 l 346 36 z m 707 43 l 546 429 l 533 424 l 693 40 z m 442 388 l 433 396 l 183 147 l 193 138 z m 856 147 l 607 396 l 599 388 l 847 138 z m 526 6 l 526 357 l 514 357 l 514 6 z "},"Ĭ":{"ha":1040,"x_min":0,"x_max":0,"o":"m 526 592 l 526 943 l 514 943 l 514 592 z m 704 904 l 693 913 l 533 524 l 546 519 z m 507 524 l 346 908 l 333 906 l 494 519 z m 442 561 l 193 810 l 183 801 l 433 553 z m 856 801 l 847 810 l 599 561 l 607 553 z m 954 647 l 951 661 l 565 500 l 569 488 z m 475 500 l 90 658 l 83 647 l 469 488 z m 403 468 l 403 481 l 51 481 l 51 468 z m 989 468 l 989 481 l 638 481 l 638 468 z m 475 449 l 469 461 l 86 300 l 89 288 z m 956 300 l 569 461 l 565 449 l 950 290 z m 507 424 l 494 429 l 336 44 l 346 36 z m 707 43 l 546 429 l 533 424 l 693 40 z m 442 388 l 433 396 l 183 147 l 193 138 z m 856 147 l 607 396 l 599 388 l 847 138 z m 526 6 l 526 357 l 514 357 l 514 6 z "},"ĭ":{"ha":1040,"x_min":0,"x_max":0,"o":"m 526 592 l 526 943 l 514 943 l 514 592 z m 704 904 l 693 913 l 533 524 l 546 519 z m 507 524 l 346 908 l 333 906 l 494 519 z m 442 561 l 193 810 l 183 801 l 433 553 z m 856 801 l 847 810 l 599 561 l 607 553 z m 954 647 l 951 661 l 565 500 l 569 488 z m 475 500 l 90 658 l 83 647 l 469 488 z m 403 468 l 403 481 l 51 481 l 51 468 z m 989 468 l 989 481 l 638 481 l 638 468 z m 475 449 l 469 461 l 86 300 l 89 288 z m 956 300 l 569 461 l 565 449 l 950 290 z m 507 424 l 494 429 l 336 44 l 346 36 z m 707 43 l 546 429 l 533 424 l 693 40 z m 442 388 l 433 396 l 183 147 l 193 138 z m 856 147 l 607 396 l 599 388 l 847 138 z m 526 6 l 526 357 l 514 357 l 514 6 z "},"Į":{"ha":1040,"x_min":0,"x_max":0,"o":"m 526 592 l 526 943 l 514 943 l 514 592 z m 704 904 l 693 913 l 533 524 l 546 519 z m 507 524 l 346 908 l 333 906 l 494 519 z m 442 561 l 193 810 l 183 801 l 433 553 z m 856 801 l 847 810 l 599 561 l 607 553 z m 954 647 l 951 661 l 565 500 l 569 488 z m 475 500 l 90 658 l 83 647 l 469 488 z m 403 468 l 403 481 l 51 481 l 51 468 z m 989 468 l 989 481 l 638 481 l 638 468 z m 475 449 l 469 461 l 86 300 l 89 288 z m 956 300 l 569 461 l 565 449 l 950 290 z m 507 424 l 494 429 l 336 44 l 346 36 z m 707 43 l 546 429 l 533 424 l 693 40 z m 442 388 l 433 396 l 183 147 l 193 138 z m 856 147 l 607 396 l 599 388 l 847 138 z m 526 6 l 526 357 l 514 357 l 514 6 z "},"Ŏ":{"ha":1040,"x_min":0,"x_max":0,"o":"m 526 592 l 526 943 l 514 943 l 514 592 z m 704 904 l 693 913 l 533 524 l 546 519 z m 507 524 l 346 908 l 333 906 l 494 519 z m 442 561 l 193 810 l 183 801 l 433 553 z m 856 801 l 847 810 l 599 561 l 607 553 z m 954 647 l 951 661 l 565 500 l 569 488 z m 475 500 l 90 658 l 83 647 l 469 488 z m 403 468 l 403 481 l 51 481 l 51 468 z m 989 468 l 989 481 l 638 481 l 638 468 z m 475 449 l 469 461 l 86 300 l 89 288 z m 956 300 l 569 461 l 565 449 l 950 290 z m 507 424 l 494 429 l 336 44 l 346 36 z m 707 43 l 546 429 l 533 424 l 693 40 z m 442 388 l 433 396 l 183 147 l 193 138 z m 856 147 l 607 396 l 599 388 l 847 138 z m 526 6 l 526 357 l 514 357 l 514 6 z "},"ŏ":{"ha":1040,"x_min":0,"x_max":0,"o":"m 526 592 l 526 943 l 514 943 l 514 592 z m 704 904 l 693 913 l 533 524 l 546 519 z m 507 524 l 346 908 l 333 906 l 494 519 z m 442 561 l 193 810 l 183 801 l 433 553 z m 856 801 l 847 810 l 599 561 l 607 553 z m 954 647 l 951 661 l 565 500 l 569 488 z m 475 500 l 90 658 l 83 647 l 469 488 z m 403 468 l 403 481 l 51 481 l 51 468 z m 989 468 l 989 481 l 638 481 l 638 468 z m 475 449 l 469 461 l 86 300 l 89 288 z m 956 300 l 569 461 l 565 449 l 950 290 z m 507 424 l 494 429 l 336 44 l 346 36 z m 707 43 l 546 429 l 533 424 l 693 40 z m 442 388 l 433 396 l 183 147 l 193 138 z m 856 147 l 607 396 l 599 388 l 847 138 z m 526 6 l 526 357 l 514 357 l 514 6 z "},"Ś":{"ha":1040,"x_min":0,"x_max":0,"o":"m 526 592 l 526 943 l 514 943 l 514 592 z m 704 904 l 693 913 l 533 524 l 546 519 z m 507 524 l 346 908 l 333 906 l 494 519 z m 442 561 l 193 810 l 183 801 l 433 553 z m 856 801 l 847 810 l 599 561 l 607 553 z m 954 647 l 951 661 l 565 500 l 569 488 z m 475 500 l 90 658 l 83 647 l 469 488 z m 403 468 l 403 481 l 51 481 l 51 468 z m 989 468 l 989 481 l 638 481 l 638 468 z m 475 449 l 469 461 l 86 300 l 89 288 z m 956 300 l 569 461 l 565 449 l 950 290 z m 507 424 l 494 429 l 336 44 l 346 36 z m 707 43 l 546 429 l 533 424 l 693 40 z m 442 388 l 433 396 l 183 147 l 193 138 z m 856 147 l 607 396 l 599 388 l 847 138 z m 526 6 l 526 357 l 514 357 l 514 6 z "},"Ţ":{"ha":1040,"x_min":0,"x_max":0,"o":"m 526 592 l 526 943 l 514 943 l 514 592 z m 704 904 l 693 913 l 533 524 l 546 519 z m 507 524 l 346 908 l 333 906 l 494 519 z m 442 561 l 193 810 l 183 801 l 433 553 z m 856 801 l 847 810 l 599 561 l 607 553 z m 954 647 l 951 661 l 565 500 l 569 488 z m 475 500 l 90 658 l 83 647 l 469 488 z m 403 468 l 403 481 l 51 481 l 51 468 z m 989 468 l 989 481 l 638 481 l 638 468 z m 475 449 l 469 461 l 86 300 l 89 288 z m 956 300 l 569 461 l 565 449 l 950 290 z m 507 424 l 494 429 l 336 44 l 346 36 z m 707 43 l 546 429 l 533 424 l 693 40 z m 442 388 l 433 396 l 183 147 l 193 138 z m 856 147 l 607 396 l 599 388 l 847 138 z m 526 6 l 526 357 l 514 357 l 514 6 z "},"ţ":{"ha":1040,"x_min":0,"x_max":0,"o":"m 526 592 l 526 943 l 514 943 l 514 592 z m 704 904 l 693 913 l 533 524 l 546 519 z m 507 524 l 346 908 l 333 906 l 494 519 z m 442 561 l 193 810 l 183 801 l 433 553 z m 856 801 l 847 810 l 599 561 l 607 553 z m 954 647 l 951 661 l 565 500 l 569 488 z m 475 500 l 90 658 l 83 647 l 469 488 z m 403 468 l 403 481 l 51 481 l 51 468 z m 989 468 l 989 481 l 638 481 l 638 468 z m 475 449 l 469 461 l 86 300 l 89 288 z m 956 300 l 569 461 l 565 449 l 950 290 z m 507 424 l 494 429 l 336 44 l 346 36 z m 707 43 l 546 429 l 533 424 l 693 40 z m 442 388 l 433 396 l 183 147 l 193 138 z m 856 147 l 607 396 l 599 388 l 847 138 z m 526 6 l 526 357 l 514 357 l 514 6 z "},"Ǐ":{"ha":1040,"x_min":0,"x_max":0,"o":"m 526 592 l 526 943 l 514 943 l 514 592 z m 704 904 l 693 913 l 533 524 l 546 519 z m 507 524 l 346 908 l 333 906 l 494 519 z m 442 561 l 193 810 l 183 801 l 433 553 z m 856 801 l 847 810 l 599 561 l 607 553 z m 954 647 l 951 661 l 565 500 l 569 488 z m 475 500 l 90 658 l 83 647 l 469 488 z m 403 468 l 403 481 l 51 481 l 51 468 z m 989 468 l 989 481 l 638 481 l 638 468 z m 475 449 l 469 461 l 86 300 l 89 288 z m 956 300 l 569 461 l 565 449 l 950 290 z m 507 424 l 494 429 l 336 44 l 346 36 z m 707 43 l 546 429 l 533 424 l 693 40 z m 442 388 l 433 396 l 183 147 l 193 138 z m 856 147 l 607 396 l 599 388 l 847 138 z m 526 6 l 526 357 l 514 357 l 514 6 z "},"Ǒ":{"ha":1040,"x_min":0,"x_max":0,"o":"m 526 592 l 526 943 l 514 943 l 514 592 z m 704 904 l 693 913 l 533 524 l 546 519 z m 507 524 l 346 908 l 333 906 l 494 519 z m 442 561 l 193 810 l 183 801 l 433 553 z m 856 801 l 847 810 l 599 561 l 607 553 z m 954 647 l 951 661 l 565 500 l 569 488 z m 475 500 l 90 658 l 83 647 l 469 488 z m 403 468 l 403 481 l 51 481 l 51 468 z m 989 468 l 989 481 l 638 481 l 638 468 z m 475 449 l 469 461 l 86 300 l 89 288 z m 956 300 l 569 461 l 565 449 l 950 290 z m 507 424 l 494 429 l 336 44 l 346 36 z m 707 43 l 546 429 l 533 424 l 693 40 z m 442 388 l 433 396 l 183 147 l 193 138 z m 856 147 l 607 396 l 599 388 l 847 138 z m 526 6 l 526 357 l 514 357 l 514 6 z "},"Ǔ":{"ha":1040,"x_min":0,"x_max":0,"o":"m 526 592 l 526 943 l 514 943 l 514 592 z m 704 904 l 693 913 l 533 524 l 546 519 z m 507 524 l 346 908 l 333 906 l 494 519 z m 442 561 l 193 810 l 183 801 l 433 553 z m 856 801 l 847 810 l 599 561 l 607 553 z m 954 647 l 951 661 l 565 500 l 569 488 z m 475 500 l 90 658 l 83 647 l 469 488 z m 403 468 l 403 481 l 51 481 l 51 468 z m 989 468 l 989 481 l 638 481 l 638 468 z m 475 449 l 469 461 l 86 300 l 89 288 z m 956 300 l 569 461 l 565 449 l 950 290 z m 507 424 l 494 429 l 336 44 l 346 36 z m 707 43 l 546 429 l 533 424 l 693 40 z m 442 388 l 433 396 l 183 147 l 193 138 z m 856 147 l 607 396 l 599 388 l 847 138 z m 526 6 l 526 357 l 514 357 l 514 6 z "},"―":{"ha":1040,"x_min":0,"x_max":0,"o":"m 526 592 l 526 943 l 514 943 l 514 592 z m 704 904 l 693 913 l 533 524 l 546 519 z m 507 524 l 346 908 l 333 906 l 494 519 z m 442 561 l 193 810 l 183 801 l 433 553 z m 856 801 l 847 810 l 599 561 l 607 553 z m 954 647 l 951 661 l 565 500 l 569 488 z m 475 500 l 90 658 l 83 647 l 469 488 z m 403 468 l 403 481 l 51 481 l 51 468 z m 989 468 l 989 481 l 638 481 l 638 468 z m 475 449 l 469 461 l 86 300 l 89 288 z m 956 300 l 569 461 l 565 449 l 950 290 z m 507 424 l 494 429 l 336 44 l 346 36 z m 707 43 l 546 429 l 533 424 l 693 40 z m 442 388 l 433 396 l 183 147 l 193 138 z m 856 147 l 607 396 l 599 388 l 847 138 z m 526 6 l 526 357 l 514 357 l 514 6 z "},"‖":{"ha":1040,"x_min":0,"x_max":0,"o":"m 526 592 l 526 943 l 514 943 l 514 592 z m 704 904 l 693 913 l 533 524 l 546 519 z m 507 524 l 346 908 l 333 906 l 494 519 z m 442 561 l 193 810 l 183 801 l 433 553 z m 856 801 l 847 810 l 599 561 l 607 553 z m 954 647 l 951 661 l 565 500 l 569 488 z m 475 500 l 90 658 l 83 647 l 469 488 z m 403 468 l 403 481 l 51 481 l 51 468 z m 989 468 l 989 481 l 638 481 l 638 468 z m 475 449 l 469 461 l 86 300 l 89 288 z m 956 300 l 569 461 l 565 449 l 950 290 z m 507 424 l 494 429 l 336 44 l 346 36 z m 707 43 l 546 429 l 533 424 l 693 40 z m 442 388 l 433 396 l 183 147 l 193 138 z m 856 147 l 607 396 l 599 388 l 847 138 z m 526 6 l 526 357 l 514 357 l 514 6 z "},"‗":{"ha":1040,"x_min":0,"x_max":0,"o":"m 526 592 l 526 943 l 514 943 l 514 592 z m 704 904 l 693 913 l 533 524 l 546 519 z m 507 524 l 346 908 l 333 906 l 494 519 z m 442 561 l 193 810 l 183 801 l 433 553 z m 856 801 l 847 810 l 599 561 l 607 553 z m 954 647 l 951 661 l 565 500 l 569 488 z m 475 500 l 90 658 l 83 647 l 469 488 z m 403 468 l 403 481 l 51 481 l 51 468 z m 989 468 l 989 481 l 638 481 l 638 468 z m 475 449 l 469 461 l 86 300 l 89 288 z m 956 300 l 569 461 l 565 449 l 950 290 z m 507 424 l 494 429 l 336 44 l 346 36 z m 707 43 l 546 429 l 533 424 l 693 40 z m 442 388 l 433 396 l 183 147 l 193 138 z m 856 147 l 607 396 l 599 388 l 847 138 z m 526 6 l 526 357 l 514 357 l 514 6 z "},"‛":{"ha":1040,"x_min":0,"x_max":0,"o":"m 526 592 l 526 943 l 514 943 l 514 592 z m 704 904 l 693 913 l 533 524 l 546 519 z m 507 524 l 346 908 l 333 906 l 494 519 z m 442 561 l 193 810 l 183 801 l 433 553 z m 856 801 l 847 810 l 599 561 l 607 553 z m 954 647 l 951 661 l 565 500 l 569 488 z m 475 500 l 90 658 l 83 647 l 469 488 z m 403 468 l 403 481 l 51 481 l 51 468 z m 989 468 l 989 481 l 638 481 l 638 468 z m 475 449 l 469 461 l 86 300 l 89 288 z m 956 300 l 569 461 l 565 449 l 950 290 z m 507 424 l 494 429 l 336 44 l 346 36 z m 707 43 l 546 429 l 533 424 l 693 40 z m 442 388 l 433 396 l 183 147 l 193 138 z m 856 147 l 607 396 l 599 388 l 847 138 z m 526 6 l 526 357 l 514 357 l 514 6 z "},"‟":{"ha":1040,"x_min":0,"x_max":0,"o":"m 526 592 l 526 943 l 514 943 l 514 592 z m 704 904 l 693 913 l 533 524 l 546 519 z m 507 524 l 346 908 l 333 906 l 494 519 z m 442 561 l 193 810 l 183 801 l 433 553 z m 856 801 l 847 810 l 599 561 l 607 553 z m 954 647 l 951 661 l 565 500 l 569 488 z m 475 500 l 90 658 l 83 647 l 469 488 z m 403 468 l 403 481 l 51 481 l 51 468 z m 989 468 l 989 481 l 638 481 l 638 468 z m 475 449 l 469 461 l 86 300 l 89 288 z m 956 300 l 569 461 l 565 449 l 950 290 z m 507 424 l 494 429 l 336 44 l 346 36 z m 707 43 l 546 429 l 533 424 l 693 40 z m 442 388 l 433 396 l 183 147 l 193 138 z m 856 147 l 607 396 l 599 388 l 847 138 z m 526 6 l 526 357 l 514 357 l 514 6 z "},"‣":{"ha":1040,"x_min":0,"x_max":0,"o":"m 526 592 l 526 943 l 514 943 l 514 592 z m 704 904 l 693 913 l 533 524 l 546 519 z m 507 524 l 346 908 l 333 906 l 494 519 z m 442 561 l 193 810 l 183 801 l 433 553 z m 856 801 l 847 810 l 599 561 l 607 553 z m 954 647 l 951 661 l 565 500 l 569 488 z m 475 500 l 90 658 l 83 647 l 469 488 z m 403 468 l 403 481 l 51 481 l 51 468 z m 989 468 l 989 481 l 638 481 l 638 468 z m 475 449 l 469 461 l 86 300 l 89 288 z m 956 300 l 569 461 l 565 449 l 950 290 z m 507 424 l 494 429 l 336 44 l 346 36 z m 707 43 l 546 429 l 533 424 l 693 40 z m 442 388 l 433 396 l 183 147 l 193 138 z m 856 147 l 607 396 l 599 388 l 847 138 z m 526 6 l 526 357 l 514 357 l 514 6 z "},"․":{"ha":1040,"x_min":0,"x_max":0,"o":"m 526 592 l 526 943 l 514 943 l 514 592 z m 704 904 l 693 913 l 533 524 l 546 519 z m 507 524 l 346 908 l 333 906 l 494 519 z m 442 561 l 193 810 l 183 801 l 433 553 z m 856 801 l 847 810 l 599 561 l 607 553 z m 954 647 l 951 661 l 565 500 l 569 488 z m 475 500 l 90 658 l 83 647 l 469 488 z m 403 468 l 403 481 l 51 481 l 51 468 z m 989 468 l 989 481 l 638 481 l 638 468 z m 475 449 l 469 461 l 86 300 l 89 288 z m 956 300 l 569 461 l 565 449 l 950 290 z m 507 424 l 494 429 l 336 44 l 346 36 z m 707 43 l 546 429 l 533 424 l 693 40 z m 442 388 l 433 396 l 183 147 l 193 138 z m 856 147 l 607 396 l 599 388 l 847 138 z m 526 6 l 526 357 l 514 357 l 514 6 z "},"‥":{"ha":1040,"x_min":0,"x_max":0,"o":"m 526 592 l 526 943 l 514 943 l 514 592 z m 704 904 l 693 913 l 533 524 l 546 519 z m 507 524 l 346 908 l 333 906 l 494 519 z m 442 561 l 193 810 l 183 801 l 433 553 z m 856 801 l 847 810 l 599 561 l 607 553 z m 954 647 l 951 661 l 565 500 l 569 488 z m 475 500 l 90 658 l 83 647 l 469 488 z m 403 468 l 403 481 l 51 481 l 51 468 z m 989 468 l 989 481 l 638 481 l 638 468 z m 475 449 l 469 461 l 86 300 l 89 288 z m 956 300 l 569 461 l 565 449 l 950 290 z m 507 424 l 494 429 l 336 44 l 346 36 z m 707 43 l 546 429 l 533 424 l 693 40 z m 442 388 l 433 396 l 183 147 l 193 138 z m 856 147 l 607 396 l 599 388 l 847 138 z m 526 6 l 526 357 l 514 357 l 514 6 z "},"∐":{"ha":1040,"x_min":0,"x_max":0,"o":"m 526 592 l 526 943 l 514 943 l 514 592 z m 704 904 l 693 913 l 533 524 l 546 519 z m 507 524 l 346 908 l 333 906 l 494 519 z m 442 561 l 193 810 l 183 801 l 433 553 z m 856 801 l 847 810 l 599 561 l 607 553 z m 954 647 l 951 661 l 565 500 l 569 488 z m 475 500 l 90 658 l 83 647 l 469 488 z m 403 468 l 403 481 l 51 481 l 51 468 z m 989 468 l 989 481 l 638 481 l 638 468 z m 475 449 l 469 461 l 86 300 l 89 288 z m 956 300 l 569 461 l 565 449 l 950 290 z m 507 424 l 494 429 l 336 44 l 346 36 z m 707 43 l 546 429 l 533 424 l 693 40 z m 442 388 l 433 396 l 183 147 l 193 138 z m 856 147 l 607 396 l 599 388 l 847 138 z m 526 6 l 526 357 l 514 357 l 514 6 z "},"∑":{"ha":1040,"x_min":0,"x_max":0,"o":"m 526 592 l 526 943 l 514 943 l 514 592 z m 704 904 l 693 913 l 533 524 l 546 519 z m 507 524 l 346 908 l 333 906 l 494 519 z m 442 561 l 193 810 l 183 801 l 433 553 z m 856 801 l 847 810 l 599 561 l 607 553 z m 954 647 l 951 661 l 565 500 l 569 488 z m 475 500 l 90 658 l 83 647 l 469 488 z m 403 468 l 403 481 l 51 481 l 51 468 z m 989 468 l 989 481 l 638 481 l 638 468 z m 475 449 l 469 461 l 86 300 l 89 288 z m 956 300 l 569 461 l 565 449 l 950 290 z m 507 424 l 494 429 l 336 44 l 346 36 z m 707 43 l 546 429 l 533 424 l 693 40 z m 442 388 l 433 396 l 183 147 l 193 138 z m 856 147 l 607 396 l 599 388 l 847 138 z m 526 6 l 526 357 l 514 357 l 514 6 z "},"≡":{"ha":1040,"x_min":0,"x_max":0,"o":"m 526 592 l 526 943 l 514 943 l 514 592 z m 704 904 l 693 913 l 533 524 l 546 519 z m 507 524 l 346 908 l 333 906 l 494 519 z m 442 561 l 193 810 l 183 801 l 433 553 z m 856 801 l 847 810 l 599 561 l 607 553 z m 954 647 l 951 661 l 565 500 l 569 488 z m 475 500 l 90 658 l 83 647 l 469 488 z m 403 468 l 403 481 l 51 481 l 51 468 z m 989 468 l 989 481 l 638 481 l 638 468 z m 475 449 l 469 461 l 86 300 l 89 288 z m 956 300 l 569 461 l 565 449 l 950 290 z m 507 424 l 494 429 l 336 44 l 346 36 z m 707 43 l 546 429 l 533 424 l 693 40 z m 442 388 l 433 396 l 183 147 l 193 138 z m 856 147 l 607 396 l 599 388 l 847 138 z m 526 6 l 526 357 l 514 357 l 514 6 z "},"≢":{"ha":1040,"x_min":0,"x_max":0,"o":"m 526 592 l 526 943 l 514 943 l 514 592 z m 704 904 l 693 913 l 533 524 l 546 519 z m 507 524 l 346 908 l 333 906 l 494 519 z m 442 561 l 193 810 l 183 801 l 433 553 z m 856 801 l 847 810 l 599 561 l 607 553 z m 954 647 l 951 661 l 565 500 l 569 488 z m 475 500 l 90 658 l 83 647 l 469 488 z m 403 468 l 403 481 l 51 481 l 51 468 z m 989 468 l 989 481 l 638 481 l 638 468 z m 475 449 l 469 461 l 86 300 l 89 288 z m 956 300 l 569 461 l 565 449 l 950 290 z m 507 424 l 494 429 l 336 44 l 346 36 z m 707 43 l 546 429 l 533 424 l 693 40 z m 442 388 l 433 396 l 183 147 l 193 138 z m 856 147 l 607 396 l 599 388 l 847 138 z m 526 6 l 526 357 l 514 357 l 514 6 z "},"≣":{"ha":1040,"x_min":0,"x_max":0,"o":"m 526 592 l 526 943 l 514 943 l 514 592 z m 704 904 l 693 913 l 533 524 l 546 519 z m 507 524 l 346 908 l 333 906 l 494 519 z m 442 561 l 193 810 l 183 801 l 433 553 z m 856 801 l 847 810 l 599 561 l 607 553 z m 954 647 l 951 661 l 565 500 l 569 488 z m 475 500 l 90 658 l 83 647 l 469 488 z m 403 468 l 403 481 l 51 481 l 51 468 z m 989 468 l 989 481 l 638 481 l 638 468 z m 475 449 l 469 461 l 86 300 l 89 288 z m 956 300 l 569 461 l 565 449 l 950 290 z m 507 424 l 494 429 l 336 44 l 346 36 z m 707 43 l 546 429 l 533 424 l 693 40 z m 442 388 l 433 396 l 183 147 l 193 138 z m 856 147 l 607 396 l 599 388 l 847 138 z m 526 6 l 526 357 l 514 357 l 514 6 z "},"\r":{"ha":314,"x_min":0,"x_max":0,"o":""}," ":{"ha":314,"x_min":0,"x_max":0,"o":""},"!":{"ha":363,"x_min":0,"x_max":0,"o":"m 182 269 b 228 324 206 269 232 293 b 218 472 221 372 218 414 b 271 901 218 515 224 611 b 274 929 272 910 274 921 b 182 1021 274 985 225 1021 b 88 929 131 1021 88 979 b 90 901 88 925 89 910 b 143 472 136 611 143 515 b 133 324 143 414 140 372 b 182 269 129 293 156 269 z m 183 -12 b 268 74 231 -12 268 25 b 183 158 268 121 231 158 b 97 74 135 158 97 121 b 183 -12 97 25 135 -12 z "},"\"":{"ha":436,"x_min":0,"x_max":0,"o":"m 63 938 l 101 667 l 153 667 l 193 939 b 129 1018 199 982 171 1018 b 63 938 88 1018 57 982 z m 243 938 l 282 667 l 333 667 l 374 939 b 310 1018 379 982 351 1018 b 243 938 268 1018 238 982 z "},"#":{"ha":935,"x_min":0,"x_max":0,"o":"m 164 -1 b 213 35 186 -1 206 13 b 288 244 221 60 235 106 b 382 247 319 246 350 247 b 476 244 414 247 446 246 b 393 67 419 113 407 99 b 389 46 390 60 389 53 b 436 -1 389 19 408 -1 b 483 35 457 -1 476 13 b 558 243 492 61 504 106 b 729 233 671 240 700 233 b 779 283 757 233 779 257 b 729 333 779 310 757 333 b 592 324 703 333 678 328 b 683 543 621 397 651 469 b 846 532 790 539 817 532 b 896 582 874 532 896 556 b 846 632 896 608 874 632 b 718 624 821 632 796 626 b 800 799 779 764 786 767 b 804 819 803 806 804 813 b 757 867 804 846 785 867 b 710 831 736 867 717 853 b 635 621 701 806 683 747 b 540 619 604 619 572 619 b 446 621 508 619 478 619 b 529 799 503 753 515 767 b 533 819 532 806 533 813 b 486 867 533 846 514 867 b 439 831 465 867 446 853 b 364 621 431 804 414 747 b 194 632 253 625 225 632 b 144 582 167 632 144 608 b 194 532 144 556 167 532 b 331 542 221 532 247 538 b 239 324 301 469 271 396 b 89 333 146 326 118 333 b 39 283 61 333 39 310 b 89 233 39 257 61 233 b 204 242 115 233 139 239 b 122 67 143 101 136 99 b 118 46 119 60 118 53 b 164 -1 118 21 136 -1 z m 415 321 b 318 322 382 321 350 321 b 413 544 349 397 379 469 b 508 547 444 546 476 547 b 603 544 539 547 571 546 b 511 322 574 471 543 396 b 415 321 479 321 447 321 z "},"$":{"ha":699,"x_min":0,"x_max":0,"o":"m 344 -171 b 392 -111 371 -171 396 -149 l 381 -11 l 385 -7 b 654 272 532 8 654 118 b 442 526 654 382 576 478 l 307 575 b 185 711 224 606 185 653 b 346 851 185 799 256 851 b 489 803 419 851 460 826 l 489 797 b 408 706 442 793 408 749 b 504 610 408 653 451 610 b 600 714 557 610 600 653 b 385 911 600 808 511 897 l 381 915 l 392 1017 b 344 1076 396 1054 371 1076 b 294 1017 315 1076 290 1054 l 307 914 l 303 910 b 81 674 188 893 81 792 b 258 433 81 557 151 472 l 394 383 b 529 219 479 353 529 300 b 346 56 529 124 450 56 b 143 168 256 56 176 100 l 147 174 b 246 269 201 174 246 217 b 147 367 246 324 201 367 b 47 253 94 367 47 325 b 301 -7 47 161 122 18 l 306 -11 l 294 -111 b 344 -171 290 -149 315 -171 z "},"%":{"ha":1104,"x_min":0,"x_max":0,"o":"m 254 381 b 457 646 383 381 457 488 b 254 911 457 804 383 911 b 51 646 125 911 51 804 b 254 381 51 488 125 381 z m 247 -10 b 283 13 261 -10 274 -3 b 569 431 321 71 333 106 b 876 835 804 758 836 783 b 888 865 885 846 888 857 b 846 908 888 889 868 908 b 807 885 832 908 817 901 b 521 465 772 828 758 790 b 215 64 285 138 257 115 b 204 33 207 53 204 42 b 247 -10 204 8 224 -10 z m 254 424 b 163 646 214 424 163 454 b 254 868 163 838 214 868 b 344 646 294 868 344 838 b 254 424 344 454 294 424 z m 854 -8 b 1057 257 983 -8 1057 99 b 854 522 1057 415 983 522 b 651 257 725 522 651 415 b 854 -8 651 99 725 -8 z m 854 35 b 763 257 814 35 763 65 b 854 479 763 449 814 479 b 944 257 894 479 944 449 b 854 35 944 65 894 35 z "},"&":{"ha":1025,"x_min":0,"x_max":0,"o":"m 799 -40 b 985 71 881 -40 944 10 b 992 93 989 78 992 85 b 965 122 992 108 981 122 b 939 108 954 122 946 117 b 839 47 914 82 883 47 b 713 167 796 47 767 83 b 871 521 785 257 839 376 l 953 553 b 979 585 971 560 979 574 b 944 614 979 601 964 617 b 847 607 919 611 883 607 b 736 614 811 607 768 611 b 701 585 714 615 701 601 b 728 550 701 571 710 557 l 806 519 b 676 219 782 403 736 300 l 438 572 b 671 826 590 657 671 736 b 436 1022 671 921 582 1022 b 183 794 265 1022 183 892 b 288 558 183 711 236 635 b 44 240 142 464 44 358 b 324 -26 44 74 172 -26 b 613 68 433 -26 531 7 b 799 -40 672 -11 728 -40 z m 403 628 b 306 835 329 738 306 790 b 432 965 306 904 356 965 b 546 824 493 965 546 911 b 403 628 546 786 536 717 z m 400 60 b 185 271 288 60 185 149 b 321 504 185 379 235 444 l 576 119 b 400 60 522 82 463 60 z "},"'":{"ha":256,"x_min":0,"x_max":0,"o":"m 63 938 l 101 667 l 153 667 l 193 939 b 129 1018 199 982 171 1018 b 63 938 88 1018 57 982 z "},"(":{"ha":417,"x_min":0,"x_max":0,"o":"m 349 -246 b 404 -189 385 -246 404 -218 b 360 -121 404 -164 392 -144 b 133 442 238 -31 133 168 b 360 1007 133 717 238 917 b 404 1075 392 1031 404 1049 b 349 1132 404 1104 385 1132 b 294 1108 325 1132 308 1121 b 56 442 144 972 56 704 b 294 -222 56 182 143 -86 b 349 -246 308 -235 325 -246 z "},")":{"ha":417,"x_min":0,"x_max":0,"o":"m 68 -246 b 122 -222 92 -246 108 -235 b 361 442 274 -86 361 182 b 122 1108 361 704 272 972 b 68 1132 108 1121 92 1132 b 13 1075 32 1132 13 1104 b 57 1007 13 1049 25 1031 b 283 442 179 917 283 717 b 57 -121 283 168 179 -31 b 13 -189 25 -144 13 -164 b 68 -246 13 -218 32 -246 z "},"*":{"ha":533,"x_min":0,"x_max":0,"o":"m 267 574 b 308 614 290 574 308 592 b 290 757 308 639 293 675 b 404 669 358 713 378 683 b 425 664 411 665 418 664 b 465 706 446 664 465 681 b 444 742 465 719 458 733 b 313 796 419 754 385 757 b 444 850 385 835 419 838 b 465 886 458 858 465 872 b 425 928 465 911 446 928 b 404 922 418 928 411 926 b 290 835 378 908 358 879 b 308 978 293 917 308 953 b 267 1018 308 1000 290 1018 b 225 978 243 1018 225 1000 b 243 835 225 953 240 917 b 129 922 175 879 156 908 b 108 928 122 926 115 928 b 68 886 88 928 68 911 b 89 850 68 872 75 858 b 221 796 114 838 149 835 b 89 742 149 757 114 754 b 68 706 75 733 68 719 b 108 664 68 681 88 664 b 129 669 115 664 122 665 b 243 757 156 683 175 713 b 225 614 240 675 225 639 b 267 574 225 592 243 574 z "},"+":{"ha":758,"x_min":0,"x_max":0,"o":"m 624 439 b 418 426 585 439 524 429 b 431 632 421 532 431 593 b 379 683 431 660 407 683 b 328 632 351 683 328 660 b 340 426 328 593 338 532 b 135 439 235 429 174 439 b 83 388 107 439 83 415 b 135 336 83 360 107 336 b 340 349 174 336 235 346 b 328 143 338 243 328 182 b 379 92 328 115 351 92 b 431 143 407 92 431 115 b 418 349 431 182 421 243 b 624 336 524 346 585 336 b 675 388 651 336 675 360 b 624 439 675 415 651 439 z "},",":{"ha":311,"x_min":0,"x_max":0,"o":"m 92 -203 b 117 -193 99 -203 107 -200 b 244 54 188 -139 244 -36 b 153 161 244 124 199 161 b 67 78 103 161 67 122 b 149 -10 67 26 106 0 b 72 -149 146 -43 126 -94 b 61 -172 64 -156 61 -164 b 92 -203 61 -189 74 -203 z "},"-":{"ha":569,"x_min":0,"x_max":0,"o":"m 133 299 b 285 306 175 299 204 306 b 436 299 365 306 394 299 b 488 350 465 299 488 322 b 436 401 488 378 465 401 b 285 394 394 401 365 394 b 133 401 204 394 175 401 b 82 350 104 401 82 378 b 133 299 82 322 104 299 z "},".":{"ha":304,"x_min":0,"x_max":0,"o":"m 153 -12 b 238 74 200 -12 238 25 b 153 158 238 121 200 158 b 67 74 104 158 67 121 b 153 -12 67 25 104 -12 z "},"/":{"ha":585,"x_min":0,"x_max":0,"o":"m 83 -251 b 132 -217 104 -251 124 -237 b 319 354 146 -178 171 -76 b 550 994 501 881 538 958 b 554 1015 553 1003 554 1008 b 503 1068 554 1044 531 1068 b 456 1036 482 1068 463 1054 b 240 379 439 993 422 906 b 38 -175 92 -50 49 -142 b 32 -200 33 -186 32 -192 b 83 -251 32 -226 54 -251 z "},":":{"ha":335,"x_min":0,"x_max":0,"o":"m 168 428 b 253 514 215 428 253 465 b 168 599 253 561 215 599 b 82 514 119 599 82 561 b 168 428 82 465 119 428 z m 168 -12 b 253 74 215 -12 253 25 b 168 158 253 121 215 158 b 82 74 119 158 82 121 b 168 -12 82 25 119 -12 z "},";":{"ha":353,"x_min":0,"x_max":0,"o":"m 172 428 b 257 514 219 428 257 465 b 172 599 257 561 219 599 b 86 514 124 599 86 561 b 172 428 86 465 124 428 z m 114 -203 b 139 -193 121 -203 129 -200 b 267 54 210 -139 267 -36 b 175 161 267 124 221 161 b 89 78 125 161 89 122 b 171 -10 89 26 128 0 b 94 -149 168 -43 149 -94 b 83 -172 86 -156 83 -164 b 114 -203 83 -189 96 -203 z "},"<":{"ha":758,"x_min":0,"x_max":0,"o":"m 588 38 b 646 97 619 38 646 64 b 211 364 646 189 426 324 l 211 374 b 646 640 426 414 646 549 b 588 700 646 674 619 700 b 519 663 564 700 542 688 b 174 436 396 518 293 461 b 101 369 122 425 101 403 b 168 304 101 339 122 314 b 519 75 285 279 385 226 b 588 38 542 50 564 38 z "},"=":{"ha":758,"x_min":0,"x_max":0,"o":"m 107 442 b 379 454 150 442 222 454 b 651 442 536 454 608 442 b 703 493 679 442 703 465 b 651 544 703 521 679 544 b 379 532 608 544 536 532 b 107 544 222 532 150 544 b 56 493 79 544 56 521 b 107 442 56 465 79 442 z m 107 244 b 379 257 150 244 222 257 b 651 244 536 257 608 244 b 703 296 679 244 703 268 b 651 347 703 324 679 347 b 379 335 608 347 536 335 b 107 347 222 335 150 347 b 56 296 79 347 56 324 b 107 244 56 268 79 244 z "},">":{"ha":758,"x_min":0,"x_max":0,"o":"m 171 38 b 239 75 194 38 217 50 b 590 304 374 226 474 279 b 657 369 636 314 657 339 b 585 436 657 403 636 425 b 239 663 465 461 363 518 b 171 700 217 688 194 700 b 113 640 139 700 113 674 b 547 374 113 549 332 414 l 547 364 b 113 97 332 324 113 189 b 171 38 113 64 139 38 z "},"?":{"ha":503,"x_min":0,"x_max":0,"o":"m 181 265 b 217 308 200 265 218 282 b 215 449 213 363 213 400 b 454 731 358 474 454 586 b 199 1014 454 879 336 1014 b 44 915 110 1014 44 971 b 110 843 44 876 76 843 b 167 868 129 843 150 851 l 226 931 b 239 932 232 932 238 932 b 364 781 294 932 364 875 b 169 583 364 664 296 572 b 143 558 151 585 142 572 b 143 308 151 465 150 389 b 181 265 140 282 160 265 z m 185 -12 b 269 74 232 -12 269 25 b 185 158 269 121 232 158 b 99 74 136 158 99 121 b 185 -12 99 25 136 -12 z "},"@":{"ha":1167,"x_min":0,"x_max":0,"o":"m 626 -144 b 1129 124 838 -144 1031 -37 b 1136 146 1135 132 1136 139 b 1106 175 1136 164 1122 175 b 1075 157 1094 175 1083 169 b 629 -82 985 10 804 -82 b 114 411 321 -82 114 117 b 581 889 114 672 326 889 b 1000 479 825 889 1000 717 b 832 185 1000 307 911 185 b 781 254 796 185 781 207 l 781 574 b 589 736 781 697 699 736 b 346 581 458 736 346 671 b 429 497 346 536 382 497 b 507 578 468 497 507 531 b 451 650 507 613 485 642 l 451 657 b 549 681 485 676 525 682 b 663 579 621 676 663 647 l 663 500 b 322 247 390 411 322 360 b 489 94 322 161 397 94 b 669 206 561 94 632 138 l 678 206 b 804 111 693 149 743 111 b 1063 479 950 111 1063 271 b 581 951 1063 753 860 951 b 51 407 286 951 51 703 b 626 -144 51 103 267 -144 z m 535 179 b 449 269 482 179 449 214 b 663 446 449 351 522 406 l 663 353 b 535 179 663 257 606 179 z "},"A":{"ha":932,"x_min":0,"x_max":0,"o":"m 19 -11 b 140 0 63 -3 101 0 b 283 -11 186 0 232 -4 b 318 17 306 -14 318 1 b 294 47 318 29 311 42 l 190 86 l 272 328 l 586 328 l 667 85 l 568 49 b 542 17 549 42 542 29 b 578 -11 542 0 556 -14 b 747 0 631 -3 694 0 b 901 -11 801 0 850 -4 b 938 17 924 -14 938 1 b 914 47 938 29 931 42 l 817 83 l 525 971 b 511 978 522 978 518 981 l 408 943 b 399 935 403 942 400 939 l 111 86 l 10 49 b -17 17 -10 42 -17 29 b 19 -11 -17 0 -3 -15 z m 431 794 l 433 794 l 561 404 l 299 404 z "},"B":{"ha":917,"x_min":0,"x_max":0,"o":"m 74 -11 l 79 -11 b 240 0 129 -4 192 0 b 457 -11 317 0 381 -11 b 863 268 683 -11 863 97 b 586 511 863 433 719 493 l 586 518 b 808 735 703 542 808 608 b 472 968 808 882 679 968 b 243 958 419 968 340 958 b 79 969 193 958 131 963 b 46 942 60 972 46 958 b 72 910 46 924 58 915 l 174 872 l 174 86 l 72 49 b 46 17 58 43 46 35 b 74 -11 46 1 57 -11 z m 429 546 l 313 546 l 313 799 b 450 899 313 878 365 899 b 654 733 588 899 654 828 b 429 546 654 607 567 546 z m 461 64 b 313 142 358 64 313 74 l 313 478 l 425 478 b 706 260 606 478 706 406 b 461 64 706 131 597 64 z "},"C":{"ha":883,"x_min":0,"x_max":0,"o":"m 490 -28 b 850 263 771 -28 850 232 b 819 294 850 286 831 294 b 788 271 807 294 794 288 b 521 90 729 142 632 90 b 210 521 365 90 210 244 b 478 907 210 746 329 907 b 757 721 588 907 689 843 b 783 704 763 710 774 704 b 813 758 810 704 822 731 b 772 946 793 818 779 888 b 738 983 769 972 754 983 b 713 976 729 983 721 981 l 628 933 b 472 976 585 958 536 976 b 58 482 232 976 58 740 b 490 -28 58 181 244 -28 z "},"D":{"ha":986,"x_min":0,"x_max":0,"o":"m 83 -11 b 247 0 133 -4 192 0 b 440 -7 321 0 389 -7 b 929 508 729 -7 929 211 b 444 968 929 743 761 968 b 243 958 392 968 338 958 b 81 969 193 958 131 963 b 46 942 60 972 46 958 b 72 910 46 929 53 917 l 174 872 l 174 86 l 67 46 b 46 17 53 40 46 29 b 83 -11 46 1 58 -14 z m 440 58 b 313 163 331 58 313 74 l 313 767 b 444 903 313 893 321 903 b 754 508 640 903 754 753 b 440 58 754 232 675 58 z "},"E":{"ha":906,"x_min":0,"x_max":0,"o":"m 81 -11 b 243 0 131 -4 193 0 l 632 0 b 708 -4 664 0 692 -3 l 747 -8 b 800 32 778 -11 794 3 b 853 207 813 97 828 151 b 863 240 860 224 863 231 b 832 269 863 257 849 269 b 799 249 819 269 808 264 b 410 65 711 104 636 65 b 313 142 367 65 313 82 l 313 438 l 519 438 l 575 289 b 604 268 581 275 593 268 b 635 299 619 268 635 279 b 626 469 635 326 626 383 b 635 640 626 556 635 613 b 604 671 635 660 619 671 b 575 650 593 671 581 664 l 519 501 l 313 501 l 313 825 b 417 893 313 888 369 893 b 778 714 631 893 689 840 b 808 697 788 701 797 697 b 839 728 825 697 839 710 b 831 757 839 736 836 744 b 789 929 806 817 796 864 b 733 967 786 958 768 971 l 697 963 b 638 958 676 960 658 958 l 243 958 b 79 969 193 958 131 963 b 46 942 60 972 46 958 b 72 910 46 924 58 915 l 174 872 l 174 86 l 72 49 b 46 17 54 42 46 32 b 81 -11 46 -1 60 -14 z "},"F":{"ha":851,"x_min":0,"x_max":0,"o":"m 81 -11 b 246 0 131 -4 193 0 b 457 -7 310 0 382 -3 b 518 44 496 -10 518 15 b 454 93 518 75 490 99 l 332 75 l 313 92 l 313 438 l 519 438 l 575 289 b 604 268 581 275 593 268 b 635 299 619 268 635 279 b 626 469 635 326 626 383 b 635 640 626 556 635 613 b 604 671 635 660 619 671 b 575 650 593 671 581 664 l 519 501 l 313 501 l 313 825 b 417 893 313 888 369 893 b 778 714 631 893 690 839 b 808 697 788 700 797 697 b 839 728 825 697 839 710 b 831 757 839 736 836 744 b 789 929 806 817 796 864 b 733 967 786 958 765 971 l 697 963 b 638 958 676 960 658 958 l 243 958 b 79 969 193 958 131 963 b 46 942 60 972 46 958 b 72 910 46 924 58 915 l 174 872 l 174 86 l 72 49 b 46 17 54 42 46 32 b 81 -11 46 -1 60 -14 z "},"G":{"ha":983,"x_min":0,"x_max":0,"o":"m 499 -28 b 726 32 586 -28 669 0 l 822 6 b 856 31 843 0 856 10 l 856 314 b 885 357 856 335 865 350 l 935 375 b 960 410 951 382 960 396 b 924 444 960 428 944 446 b 786 439 869 440 831 439 b 553 449 731 439 665 442 b 496 403 515 451 496 428 b 557 350 496 375 517 346 l 717 364 l 717 178 b 518 47 717 108 636 47 b 232 488 346 47 232 224 b 519 907 232 733 340 907 b 806 721 628 907 738 843 b 832 704 813 710 821 704 b 864 740 853 704 864 719 b 854 781 864 746 863 756 b 821 947 842 818 828 888 b 786 983 818 972 803 983 b 761 976 778 983 769 981 l 676 933 b 497 978 621 965 560 978 b 58 492 254 978 58 754 b 499 -28 58 196 222 -28 z "},"H":{"ha":1061,"x_min":0,"x_max":0,"o":"m 989 49 l 888 86 l 888 872 l 989 910 b 1015 942 1003 915 1015 924 b 982 969 1015 958 1001 972 b 818 958 931 963 868 958 b 654 969 768 958 706 963 b 621 942 635 972 621 958 b 647 910 621 924 633 915 l 749 872 l 749 518 l 313 518 l 313 872 l 414 910 b 440 942 428 915 440 924 b 407 969 440 958 426 972 b 243 958 356 963 293 958 b 79 969 193 958 131 963 b 46 942 60 972 46 958 b 72 910 46 924 58 915 l 174 872 l 174 86 l 72 49 b 46 17 58 43 46 35 b 79 -11 46 0 60 -14 b 243 0 131 -4 193 0 b 407 -11 293 0 356 -4 b 440 17 426 -14 440 0 b 414 49 440 35 428 43 l 313 86 l 313 454 l 749 454 l 749 86 l 647 49 b 621 17 633 43 621 35 b 654 -11 621 0 635 -14 b 818 0 706 -4 768 0 b 982 -11 868 0 931 -4 b 1015 17 1001 -14 1015 0 b 989 49 1015 35 1003 43 z "},"I":{"ha":486,"x_min":0,"x_max":0,"o":"m 79 -11 b 243 0 131 -4 193 0 b 407 -11 293 0 356 -4 b 440 17 425 -14 440 -1 b 414 49 440 32 432 42 l 313 86 l 313 872 l 414 910 b 440 942 428 915 440 924 b 407 969 440 958 426 972 b 243 958 356 963 293 958 b 79 969 193 958 131 963 b 46 942 60 972 46 958 b 72 910 46 924 58 915 l 174 872 l 174 86 l 72 49 b 46 17 54 42 46 32 b 79 -11 46 -1 61 -14 z "},"J":{"ha":507,"x_min":0,"x_max":0,"o":"m 90 -217 b 346 85 229 -217 346 -110 l 346 872 l 447 910 b 474 942 461 915 474 924 b 446 969 474 957 463 969 l 440 969 b 276 958 389 963 326 958 b 113 969 226 958 164 963 b 79 942 93 972 79 958 b 106 910 79 924 92 915 l 207 872 l 207 -12 b 147 -140 207 -83 186 -128 l 47 -43 b -8 -19 32 -28 13 -19 b -85 -94 -50 -19 -85 -51 b 90 -217 -85 -168 -7 -217 z "},"K":{"ha":956,"x_min":0,"x_max":0,"o":"m 74 -11 l 79 -11 b 243 0 131 -4 193 0 b 407 -11 293 0 356 -4 b 440 17 425 -14 440 -1 b 414 49 440 32 432 42 l 313 86 l 313 374 l 425 501 l 672 83 l 568 49 b 542 17 551 43 542 31 b 575 -11 542 -1 557 -14 b 765 0 639 -3 700 0 b 939 -11 822 0 882 -4 b 975 17 958 -14 975 -1 b 951 47 975 31 967 42 l 840 86 l 526 615 l 754 872 l 860 911 b 882 940 875 917 882 929 b 851 968 882 957 869 971 b 725 958 808 961 767 958 b 560 969 665 958 608 964 b 525 942 538 972 525 957 b 546 913 525 929 532 917 l 653 872 l 314 489 l 313 489 l 313 872 l 414 910 b 440 942 428 915 440 924 b 413 969 440 957 429 969 l 407 969 b 243 958 356 963 293 958 b 79 969 193 958 131 963 b 46 942 60 972 46 958 b 72 910 46 924 58 915 l 174 872 l 174 86 l 72 49 b 46 17 54 42 46 32 b 74 -11 46 0 58 -11 z "},"L":{"ha":790,"x_min":0,"x_max":0,"o":"m 79 -11 b 243 0 131 -4 193 0 l 565 0 b 626 -4 582 0 610 -1 l 663 -8 b 715 32 693 -12 710 3 b 771 207 728 99 746 151 b 781 239 778 224 781 228 b 750 269 781 257 767 269 b 717 249 738 269 726 264 b 417 65 626 106 553 65 b 313 133 369 65 313 71 l 313 872 l 414 910 b 440 942 428 915 440 924 b 407 969 440 958 426 972 b 243 958 356 963 293 958 b 79 969 193 958 131 963 b 46 942 60 972 46 958 b 72 910 46 924 58 915 l 174 872 l 174 86 l 72 49 b 46 17 58 43 46 35 b 79 -11 46 0 60 -14 z "},"M":{"ha":1239,"x_min":0,"x_max":0,"o":"m 575 -21 b 604 3 586 -21 599 -14 l 897 846 l 900 846 l 938 86 l 840 49 b 814 17 822 42 814 32 b 850 -11 814 -3 831 -14 b 1014 0 899 -4 960 0 b 1178 -11 1064 0 1126 -4 b 1211 17 1197 -14 1211 0 b 1185 49 1211 32 1201 43 l 1079 86 l 1040 872 l 1135 903 b 1168 939 1157 910 1168 925 b 1128 968 1168 958 1151 972 b 993 958 1092 961 1046 958 b 897 964 958 958 921 961 b 858 943 871 968 863 954 l 618 253 l 613 253 l 389 943 b 356 964 385 957 372 965 b 226 958 317 960 275 958 b 103 968 186 958 147 961 b 64 939 78 972 64 956 b 89 906 64 925 72 911 l 200 864 l 158 86 l 57 49 b 31 17 39 42 31 32 b 64 -11 31 -1 46 -14 b 190 0 128 -3 156 0 b 317 -11 222 0 261 -3 b 350 17 336 -14 350 0 b 324 49 350 32 342 42 l 228 86 l 268 846 l 271 846 l 544 3 b 575 -21 550 -14 563 -21 z "},"N":{"ha":1015,"x_min":0,"x_max":0,"o":"m 79 -11 l 85 -11 b 217 0 125 -6 174 -1 b 349 -11 260 -1 308 -6 b 382 17 368 -14 382 0 b 356 49 382 35 369 43 l 254 86 l 254 761 l 256 761 l 790 11 b 822 -6 799 0 811 -6 b 854 28 839 -6 854 6 l 854 872 l 956 910 b 982 942 969 915 982 924 b 954 969 982 957 971 969 l 949 969 b 817 958 908 964 860 960 b 685 969 774 960 725 964 b 651 942 665 972 651 958 b 678 910 651 924 664 915 l 779 872 l 779 281 l 778 281 l 303 946 b 269 965 294 958 285 965 b 257 964 265 965 261 965 b 189 958 232 960 210 958 b 68 967 150 958 114 963 b 33 939 47 968 33 954 b 60 907 33 928 40 915 l 179 860 l 179 86 l 78 49 b 51 17 64 43 51 35 b 79 -11 51 1 63 -11 z "},"O":{"ha":983,"x_min":0,"x_max":0,"o":"m 492 -28 b 925 479 738 -28 925 199 b 492 986 925 760 738 986 b 58 479 246 986 58 760 b 492 -28 58 199 246 -28 z m 492 38 b 233 479 329 38 233 213 b 492 921 233 746 329 921 b 750 479 654 921 750 746 b 492 38 750 213 654 38 z "},"P":{"ha":832,"x_min":0,"x_max":0,"o":"m 451 967 b 239 958 408 967 318 958 b 79 969 189 958 129 963 b 46 942 60 972 46 958 b 72 910 46 924 58 915 l 174 872 l 174 86 l 72 49 b 46 17 54 42 46 32 b 79 -11 46 -1 61 -14 b 246 0 131 -4 193 0 b 457 -7 310 0 382 -3 b 518 44 496 -10 518 15 b 454 93 518 75 490 99 l 332 75 l 313 92 l 313 406 l 425 406 b 694 472 536 406 613 417 b 807 685 761 517 807 597 b 451 967 807 860 672 967 z m 414 471 l 313 471 l 313 803 b 443 901 313 876 346 901 b 651 685 567 901 651 818 b 414 471 651 572 582 471 z "},"Q":{"ha":989,"x_min":0,"x_max":0,"o":"m 740 -246 b 938 -35 853 -246 938 -154 b 908 3 938 -8 922 3 b 878 -24 896 3 883 -6 b 754 -117 860 -78 819 -117 b 629 -3 689 -117 642 -67 b 925 479 804 64 925 254 b 492 986 925 760 738 986 b 58 479 246 986 58 760 b 492 -28 58 211 235 -28 b 533 -25 506 -28 519 -26 b 740 -246 556 -169 635 -246 z m 626 89 l 625 89 b 438 342 613 242 551 342 b 281 208 360 342 289 282 l 278 208 b 233 479 249 281 233 372 b 492 921 233 746 329 921 b 750 479 654 921 750 746 b 626 89 750 263 688 142 z m 493 38 b 322 171 407 38 322 90 b 414 267 322 225 363 267 b 528 40 494 267 528 196 b 493 38 517 39 504 38 z "},"R":{"ha":918,"x_min":0,"x_max":0,"o":"m 765 -29 b 897 42 825 -29 871 -1 b 907 69 904 53 907 63 b 879 97 907 88 893 97 b 856 85 871 97 861 93 b 808 58 844 68 828 58 b 758 104 782 58 763 76 l 733 301 b 560 481 721 403 679 460 l 560 488 b 806 722 711 506 806 599 b 469 968 806 876 681 968 b 243 958 394 968 346 958 b 79 969 193 958 131 963 b 46 942 60 972 46 958 b 72 910 46 924 58 915 l 174 872 l 174 86 l 72 49 b 46 17 58 43 46 35 b 79 -11 46 -1 58 -11 b 243 0 131 -4 193 0 b 407 -11 293 0 356 -4 b 440 17 426 -14 440 0 b 414 49 440 35 428 43 l 313 86 l 313 458 l 425 458 b 572 333 499 458 560 425 l 596 146 b 765 -29 613 24 678 -29 z m 431 524 l 313 524 l 313 797 b 464 899 313 878 365 899 b 650 724 583 899 650 826 b 431 524 650 596 567 524 z "},"S":{"ha":790,"x_min":0,"x_max":0,"o":"m 447 -29 b 738 263 607 -29 738 88 b 486 558 738 403 643 504 l 338 610 b 197 775 254 639 197 692 b 357 924 197 864 261 924 b 636 728 458 924 542 856 b 663 714 643 718 654 714 b 696 744 681 714 696 726 b 681 788 696 756 690 764 b 635 951 664 828 642 900 b 599 986 631 976 615 986 b 568 976 588 986 578 982 l 508 938 b 350 986 465 964 415 986 b 81 725 200 986 81 869 b 307 444 81 601 161 497 l 457 392 b 619 208 567 353 619 289 b 447 43 619 110 550 43 b 125 279 326 43 201 135 b 92 301 117 294 104 301 b 57 268 72 301 57 286 b 63 243 57 258 58 253 b 94 21 92 169 97 90 b 129 -19 93 -1 108 -19 b 164 -6 142 -19 153 -15 l 232 49 b 447 -29 319 -17 388 -29 z "},"T":{"ha":900,"x_min":0,"x_max":0,"o":"m 286 -11 b 450 0 338 -4 400 0 b 614 -11 500 0 563 -4 b 647 17 632 -14 647 -1 b 621 49 647 32 639 42 l 519 86 l 519 832 b 590 893 519 885 560 893 b 826 714 701 893 750 819 b 857 697 835 701 846 697 b 888 728 874 697 888 710 b 879 757 888 736 885 744 b 838 929 854 817 844 864 b 782 967 835 958 814 971 l 746 963 b 686 958 725 960 707 958 l 214 958 b 154 963 193 958 175 960 l 118 967 b 63 929 86 971 65 958 b 21 757 57 864 43 810 b 13 728 15 744 13 736 b 43 697 13 710 26 697 b 74 714 54 697 65 701 b 310 893 146 822 199 893 b 381 832 340 893 381 885 l 381 86 l 279 49 b 253 17 261 42 253 32 b 286 -11 253 -1 268 -14 z "},"U":{"ha":979,"x_min":0,"x_max":0,"o":"m 506 -28 b 829 300 674 -28 829 78 l 829 872 l 931 910 b 957 942 944 915 957 924 b 924 969 957 958 943 972 b 790 958 882 964 833 958 b 656 969 746 958 697 964 b 622 942 636 972 622 958 b 649 910 622 924 635 915 l 750 872 l 750 307 b 519 53 750 131 646 53 b 288 301 400 53 288 113 l 288 872 l 389 910 b 415 942 403 915 415 924 b 382 969 415 958 401 972 b 218 958 331 963 268 958 b 54 969 168 958 106 963 b 21 942 35 972 21 958 b 47 910 21 924 33 915 l 149 872 l 149 286 b 506 -28 149 71 322 -28 z "},"V":{"ha":897,"x_min":0,"x_max":0,"o":"m 456 -28 b 485 -6 467 -28 479 -21 l 778 872 l 881 911 b 904 942 897 917 904 929 b 867 968 904 957 890 972 b 757 958 832 963 797 958 b 610 969 714 958 667 963 b 575 943 590 972 575 961 b 600 911 575 931 583 917 l 704 872 l 490 235 l 488 235 l 257 872 l 364 913 b 385 942 378 918 385 929 b 349 969 385 958 371 972 b 186 958 294 961 240 958 b 15 969 126 958 68 963 b -18 942 -6 972 -18 958 b 7 910 -18 929 -11 917 l 110 872 l 426 -6 b 456 -28 432 -21 444 -28 z "},"W":{"ha":1278,"x_min":0,"x_max":0,"o":"m 411 -29 b 449 0 426 -29 443 -19 l 642 628 l 646 628 l 826 4 b 865 -28 833 -19 849 -28 b 903 4 883 -28 897 -15 l 1164 872 l 1271 910 b 1293 940 1286 915 1293 928 b 1254 968 1293 956 1281 971 b 1129 958 1204 963 1167 958 b 993 968 1090 958 1051 963 b 960 940 971 971 960 956 b 982 911 960 929 967 917 l 1088 872 l 906 260 l 903 260 l 724 872 l 828 911 b 851 942 844 917 851 929 b 817 969 851 957 839 972 b 633 957 740 961 683 957 b 482 969 583 957 538 961 b 447 940 460 972 447 957 b 468 913 447 929 454 918 l 575 872 l 608 758 l 451 253 l 449 253 l 267 872 l 374 913 b 394 940 388 918 394 929 b 360 969 394 957 382 972 b 194 958 311 963 253 958 b 22 969 133 958 72 963 b -11 942 1 972 -11 957 b 10 913 -11 931 -4 918 l 117 872 l 371 3 b 411 -29 376 -18 394 -29 z "},"X":{"ha":882,"x_min":0,"x_max":0,"o":"m 503 -11 b 690 1 576 -1 635 1 b 851 -11 742 1 792 -4 b 886 17 874 -14 886 0 b 863 47 886 28 879 42 l 760 86 l 511 514 l 714 872 l 814 908 b 842 942 833 915 842 929 b 806 969 842 958 829 972 b 688 960 757 964 726 960 b 539 969 646 960 592 963 b 503 942 517 972 503 958 b 529 910 503 929 511 917 l 631 872 l 469 588 l 468 588 l 303 872 l 408 913 b 432 943 425 919 432 931 b 397 971 432 958 419 974 b 207 958 322 961 264 958 b 46 971 156 958 106 964 b 11 944 24 974 11 960 b 35 913 11 932 18 919 l 139 872 l 372 475 l 143 88 l 42 51 b 15 18 21 44 15 29 b 53 -10 15 1 29 -12 b 188 0 103 -4 144 0 b 318 -10 225 0 267 -3 b 354 18 340 -12 354 1 b 328 50 354 31 346 43 l 226 88 l 414 403 l 415 403 l 596 86 l 492 47 b 468 17 476 42 468 28 b 503 -11 468 1 481 -14 z "},"Y":{"ha":933,"x_min":0,"x_max":0,"o":"m 307 -11 b 471 0 358 -4 421 0 b 635 -11 521 0 583 -4 b 668 17 654 -14 668 0 b 642 49 668 32 660 42 l 540 86 l 540 389 l 800 872 l 903 910 b 928 942 921 917 928 929 b 893 969 928 958 915 972 b 765 958 842 963 804 958 b 628 969 724 958 683 963 b 594 943 610 972 594 963 b 618 911 594 931 601 918 l 722 872 l 503 464 l 501 464 l 290 872 l 394 911 b 418 942 411 918 418 929 b 382 969 418 957 404 972 b 221 957 329 961 276 957 b 39 969 164 957 104 961 b 6 942 19 972 6 957 b 32 910 6 929 13 917 l 133 872 l 401 356 l 401 86 l 300 49 b 274 17 282 42 274 32 b 307 -11 274 -1 289 -14 z "},"Z":{"ha":824,"x_min":0,"x_max":0,"o":"m 688 -8 b 729 32 707 -8 726 4 b 781 221 736 96 751 151 b 753 269 790 244 778 269 b 721 247 742 269 729 263 b 374 69 636 97 561 69 l 236 69 l 757 913 b 767 942 764 924 767 932 b 739 968 767 957 754 968 b 607 958 717 968 706 958 l 249 958 b 196 961 232 958 210 960 l 154 967 b 103 929 122 971 107 954 b 51 743 90 857 81 817 b 47 725 49 736 47 731 b 79 693 47 706 63 693 b 113 713 92 693 104 699 b 413 889 186 835 244 889 l 574 889 l 61 58 b 49 24 51 42 49 32 b 81 -6 49 6 61 -6 b 182 0 96 -6 119 0 l 582 0 b 688 -8 632 0 660 -8 z "},"[":{"ha":467,"x_min":0,"x_max":0,"o":"m 404 -256 b 456 -204 433 -256 456 -232 b 404 -153 456 -176 433 -153 b 251 -160 363 -153 333 -160 l 217 -160 l 203 -146 l 203 1004 l 217 1018 l 251 1018 b 404 1011 333 1018 363 1011 b 456 1063 433 1011 456 1035 b 404 1114 456 1090 433 1114 b 253 1107 363 1114 333 1107 l 182 1107 b 119 1042 147 1107 119 1082 l 119 -178 b 181 -249 119 -224 147 -249 l 253 -249 b 404 -256 333 -249 363 -256 z "},"\\":{"ha":583,"x_min":0,"x_max":0,"o":"m 501 -251 b 553 -200 531 -251 553 -226 b 547 -175 553 -192 551 -186 b 344 379 536 -142 493 -50 b 129 1036 163 906 146 993 b 82 1068 122 1054 103 1068 b 31 1015 54 1068 31 1044 b 35 994 31 1008 32 1003 b 265 354 47 958 83 881 b 453 -217 414 -76 439 -178 b 501 -251 461 -237 481 -251 z "},"]":{"ha":467,"x_min":0,"x_max":0,"o":"m 63 -256 b 214 -249 104 -256 133 -249 l 286 -249 b 347 -178 319 -249 347 -224 l 347 1042 b 285 1107 347 1082 319 1107 l 214 1107 b 63 1114 133 1107 104 1114 b 11 1063 33 1114 11 1090 b 63 1011 11 1035 33 1011 b 215 1018 104 1011 133 1018 l 250 1018 l 264 1004 l 264 -146 l 250 -160 l 215 -160 b 63 -153 133 -160 104 -153 b 11 -204 33 -153 11 -176 b 63 -256 11 -232 33 -256 z "},"^":{"ha":758,"x_min":0,"x_max":0,"o":"m 246 794 b 296 829 264 794 282 804 l 365 956 l 393 956 l 463 829 b 513 794 476 804 494 794 b 567 847 540 794 567 818 b 546 892 567 863 561 878 l 410 1019 b 379 1035 400 1031 389 1035 b 349 1019 369 1035 360 1031 l 213 892 b 190 849 197 878 190 863 b 246 794 190 819 218 794 z "},"_":{"ha":692,"x_min":0,"x_max":0,"o":"m 111 -111 b 346 -104 167 -111 196 -104 b 581 -111 496 -104 525 -111 b 632 -60 610 -111 632 -87 b 581 -8 632 -32 610 -8 b 346 -15 525 -8 496 -15 b 111 -8 196 -15 167 -8 b 60 -60 82 -8 60 -32 b 111 -111 60 -87 82 -111 z "},"a":{"ha":678,"x_min":0,"x_max":0,"o":"m 232 -14 b 431 104 317 -14 388 28 l 436 104 b 568 -8 447 33 499 -8 b 685 88 628 -8 685 47 b 658 115 685 104 674 115 b 631 97 647 115 639 110 b 594 75 621 82 610 75 b 554 118 572 75 554 93 l 554 514 b 344 688 554 647 460 688 b 78 517 200 688 78 615 b 169 426 78 468 118 426 b 254 514 211 426 254 463 b 193 593 254 554 231 583 l 193 601 b 292 626 226 619 264 626 b 425 514 372 626 425 593 l 425 429 b 132 306 253 372 179 338 b 53 154 78 268 53 217 b 232 -14 53 58 131 -14 z m 285 78 b 190 176 217 78 190 126 b 425 369 190 267 274 324 l 425 271 b 285 78 425 147 351 78 z "},"b":{"ha":735,"x_min":0,"x_max":0,"o":"m 404 -28 b 681 343 564 -28 681 129 b 421 688 681 546 560 688 b 238 596 342 688 281 656 l 233 596 l 233 908 b 238 990 233 960 238 974 b 207 1019 238 1007 225 1019 b 185 1013 199 1019 192 1017 b 13 964 142 988 115 979 b -14 935 -6 961 -14 947 b 8 906 -14 922 -7 910 l 104 878 l 104 8 b 125 -17 104 -8 114 -17 b 146 -4 133 -17 140 -12 l 201 76 l 210 76 b 404 -28 251 14 329 -28 z m 371 50 b 233 125 324 50 275 75 l 233 503 b 371 593 276 574 332 593 b 533 343 472 593 533 496 b 371 50 533 160 471 50 z "},"c":{"ha":654,"x_min":0,"x_max":0,"o":"m 364 -26 b 625 178 542 -26 625 129 b 599 206 625 193 614 206 b 571 188 588 206 578 200 b 397 72 515 88 436 72 b 188 344 272 72 188 183 b 375 632 188 538 288 632 b 393 631 379 632 385 632 l 432 547 b 517 482 453 501 486 482 b 588 557 554 482 588 513 b 396 688 588 629 501 688 b 53 308 213 688 53 549 b 364 -26 53 104 192 -26 z "},"d":{"ha":771,"x_min":0,"x_max":0,"o":"m 314 -28 b 510 82 400 -28 465 11 l 513 82 l 513 26 b 547 -10 513 -8 531 -12 b 715 6 606 1 681 4 b 746 35 735 7 746 21 b 725 63 746 46 739 57 l 642 94 l 642 908 b 646 989 642 957 646 974 b 615 1019 646 1007 633 1019 b 593 1013 607 1019 600 1017 b 421 964 550 988 524 979 b 394 935 403 961 394 947 b 417 906 394 922 401 910 l 513 878 l 513 604 l 510 604 b 331 688 471 649 407 688 b 54 317 171 688 54 531 b 314 -28 54 114 175 -28 z m 364 67 b 201 317 263 67 201 164 b 364 610 201 500 264 610 b 513 521 421 610 474 574 l 513 176 b 364 67 468 89 406 67 z "},"e":{"ha":675,"x_min":0,"x_max":0,"o":"m 357 -26 b 622 140 497 -26 593 61 b 626 163 625 147 626 154 b 599 190 626 179 613 190 b 568 172 586 190 576 185 b 388 72 528 110 465 72 b 189 344 276 72 189 176 l 189 358 l 576 358 b 617 410 607 358 619 385 b 354 688 601 585 482 688 b 54 308 201 688 54 536 b 357 -26 54 104 186 -26 z m 468 424 l 193 424 b 351 633 208 550 260 633 b 468 424 431 633 471 561 z "},"f":{"ha":499,"x_min":0,"x_max":0,"o":"m 93 -8 b 231 0 139 -3 185 0 b 393 -8 283 0 336 -3 b 449 38 431 -12 449 13 b 390 83 449 65 428 89 l 290 67 l 282 75 l 282 588 l 431 588 b 476 631 460 588 476 610 b 425 671 476 651 460 674 l 282 663 l 282 844 b 317 951 282 896 297 935 l 410 883 b 453 869 422 875 438 869 b 526 946 494 869 526 903 b 411 1028 526 994 481 1028 b 157 729 272 1028 157 915 l 157 678 b 135 653 157 661 149 654 l 49 647 b 18 617 28 646 18 631 b 49 588 18 601 32 588 l 153 588 l 153 78 l 83 49 b 63 19 69 43 63 31 b 93 -8 63 4 75 -11 z "},"g":{"ha":665,"x_min":0,"x_max":0,"o":"m 339 -286 b 663 -62 488 -286 663 -225 b 604 49 663 -22 643 21 b 446 100 571 72 528 88 l 176 140 l 176 144 l 239 214 b 333 197 268 203 300 197 b 589 440 475 197 589 306 b 458 653 589 532 536 611 b 503 711 472 679 488 699 b 567 672 514 688 540 672 b 635 744 603 672 635 706 b 558 818 635 782 601 818 b 417 671 494 818 446 760 b 333 683 390 679 363 683 b 76 440 190 683 76 575 b 193 236 76 354 122 279 l 69 142 b 47 100 54 129 47 114 b 90 53 47 78 61 58 l 206 29 l 206 28 b 21 -133 101 -21 21 -71 b 339 -286 21 -222 147 -286 z m 335 253 b 215 439 260 253 215 322 b 335 624 215 556 260 624 b 453 439 410 624 453 556 b 335 253 453 322 410 253 z m 343 -226 b 158 -122 226 -226 158 -182 b 278 14 158 -92 172 -46 l 447 -22 b 563 -108 526 -39 563 -65 b 343 -226 563 -178 475 -226 z "},"h":{"ha":768,"x_min":0,"x_max":0,"o":"m 68 -8 b 192 0 115 -1 144 0 b 317 -8 243 0 282 -3 b 347 19 335 -11 347 4 b 326 49 347 31 340 43 l 257 78 l 257 492 b 449 589 321 544 396 589 b 514 474 489 589 514 568 l 514 78 l 444 49 b 424 19 429 42 424 31 b 454 -8 424 4 436 -11 b 578 0 501 -1 531 0 b 703 -8 629 0 668 -3 b 733 19 721 -11 733 4 b 713 49 733 31 726 43 l 643 78 l 643 504 b 494 688 643 617 593 688 b 258 563 394 688 314 614 l 257 563 l 257 908 b 261 989 257 958 261 974 b 231 1019 261 1007 249 1019 b 208 1013 222 1019 215 1017 b 36 964 165 988 139 979 b 10 935 18 961 10 947 b 32 906 10 922 17 910 l 128 878 l 128 78 l 58 49 b 38 19 43 42 38 31 b 68 -8 38 4 50 -11 z "},"i":{"ha":406,"x_min":0,"x_max":0,"o":"m 201 817 b 289 906 250 817 289 856 b 201 993 289 954 250 993 b 113 906 151 993 113 954 b 201 817 113 856 151 817 z m 89 -8 b 213 0 136 -3 165 0 b 338 -8 264 0 303 -4 b 368 19 356 -11 368 4 b 347 49 368 31 361 43 l 278 78 l 278 576 b 282 657 278 626 282 642 b 251 688 282 675 269 688 b 229 681 243 688 236 685 b 57 632 186 656 160 644 b 31 603 39 629 31 615 b 53 574 31 590 38 578 l 149 546 l 149 78 l 79 49 b 58 19 64 42 58 31 b 89 -8 58 4 71 -11 z "},"j":{"ha":374,"x_min":0,"x_max":0,"o":"m 193 817 b 281 906 242 817 281 856 b 193 993 281 954 242 993 b 104 906 143 993 104 954 b 193 817 104 856 143 817 z m 83 -296 b 269 -49 178 -296 269 -208 l 269 576 b 274 657 269 626 274 642 b 243 688 274 675 261 688 b 221 681 235 688 228 685 b 49 632 178 656 151 644 b 22 603 31 629 22 615 b 44 574 22 590 29 578 l 140 546 l 140 25 b 178 -151 140 -86 178 -74 b 154 -215 178 -169 169 -197 l 117 -175 b 39 -135 89 -144 68 -135 b -26 -203 3 -135 -26 -164 b 83 -296 -26 -250 22 -296 z "},"k":{"ha":726,"x_min":0,"x_max":0,"o":"m 68 -8 b 192 0 115 -3 144 0 b 317 -8 243 0 282 -4 b 347 19 335 -11 347 4 b 326 49 347 31 340 43 l 257 78 l 257 285 l 317 342 l 492 76 l 425 49 b 404 19 410 42 404 31 b 439 -8 404 4 417 -11 b 574 0 483 -4 535 0 b 703 -8 617 0 665 -3 b 733 19 721 -11 733 4 b 713 49 733 31 726 43 l 669 67 b 615 110 642 78 629 88 l 410 433 l 563 579 l 658 613 b 679 640 674 618 679 629 b 649 669 679 656 667 672 b 522 661 610 664 565 661 b 408 669 482 661 443 664 b 371 642 383 674 371 658 b 390 613 371 629 378 617 l 479 579 l 258 365 l 257 365 l 257 908 b 261 989 257 958 261 974 b 231 1019 261 1007 249 1019 b 208 1013 222 1019 215 1017 b 36 964 165 988 139 979 b 10 935 18 961 10 947 b 32 906 10 922 17 910 l 128 878 l 128 78 l 58 49 b 38 19 43 42 38 31 b 68 -8 38 4 50 -11 z "},"l":{"ha":385,"x_min":0,"x_max":0,"o":"m 68 -8 b 192 0 115 -3 144 0 b 317 -8 243 0 282 -4 b 347 19 335 -11 347 4 b 326 49 347 31 340 43 l 257 78 l 257 908 b 261 989 257 958 261 974 b 231 1019 261 1007 249 1019 b 208 1013 222 1019 215 1017 b 36 964 165 988 139 979 b 10 935 18 961 10 947 b 32 906 10 922 17 910 l 128 878 l 128 78 l 58 49 b 38 19 43 42 38 31 b 68 -8 38 4 50 -11 z "},"m":{"ha":1178,"x_min":0,"x_max":0,"o":"m 89 -8 b 213 0 136 -3 165 0 b 338 -8 264 0 303 -4 b 368 19 356 -11 368 4 b 347 49 368 31 361 43 l 278 78 l 278 488 b 472 589 343 543 421 589 b 536 474 518 589 536 556 l 536 78 l 467 49 b 446 19 451 42 446 31 b 476 -8 446 4 458 -11 b 600 0 524 -3 553 0 b 725 -8 651 0 690 -4 b 756 19 743 -11 756 4 b 735 49 756 31 749 43 l 665 78 l 665 489 b 858 589 728 543 806 589 b 924 474 899 589 924 568 l 924 78 l 854 49 b 833 19 839 42 833 31 b 864 -8 833 4 846 -11 b 988 0 911 -3 940 0 b 1113 -8 1039 0 1078 -3 b 1143 19 1131 -11 1143 4 b 1122 49 1143 31 1136 43 l 1053 78 l 1053 504 b 904 688 1053 617 1003 688 b 663 557 800 688 719 611 l 661 557 b 517 688 647 638 599 688 b 279 558 417 688 335 611 l 278 558 b 282 657 278 613 282 646 b 251 688 282 675 269 688 b 229 681 243 688 236 685 b 57 632 186 656 160 644 b 31 603 39 629 31 615 b 53 574 31 590 38 578 l 149 546 l 149 78 l 79 49 b 58 19 64 42 58 31 b 89 -8 58 4 71 -11 z "},"n":{"ha":794,"x_min":0,"x_max":0,"o":"m 89 -8 b 213 0 136 -3 165 0 b 338 -8 264 0 303 -4 b 368 19 356 -11 368 4 b 347 49 368 31 361 43 l 278 78 l 278 488 b 475 589 343 543 421 589 b 540 474 515 589 540 568 l 540 78 l 471 49 b 450 19 456 42 450 31 b 481 -8 450 4 463 -11 b 604 0 528 -3 557 0 b 729 -8 656 0 694 -4 b 760 19 747 -11 760 4 b 739 49 760 31 753 43 l 669 78 l 669 504 b 521 688 669 617 619 688 b 279 558 417 688 335 611 l 278 558 l 278 576 b 282 657 278 626 282 642 b 251 688 282 675 269 688 b 229 681 243 688 236 685 b 57 632 186 656 160 644 b 31 603 39 629 31 615 b 53 574 31 590 38 578 l 149 546 l 149 78 l 79 49 b 58 19 64 42 58 31 b 89 -8 58 4 71 -11 z "},"o":{"ha":736,"x_min":0,"x_max":0,"o":"m 368 -28 b 683 331 542 -28 683 132 b 368 688 683 529 542 688 b 53 331 194 688 53 529 b 368 -28 53 132 194 -28 z m 368 29 b 203 331 271 29 203 136 b 368 631 203 525 271 631 b 533 331 465 631 533 525 b 368 29 533 136 465 29 z "},"p":{"ha":783,"x_min":0,"x_max":0,"o":"m 81 -286 b 218 -278 126 -281 172 -278 b 381 -286 271 -278 324 -281 b 436 -240 418 -290 436 -265 b 376 -194 436 -212 415 -189 l 278 -211 l 269 -203 l 269 60 l 271 60 b 453 -28 308 13 374 -28 b 729 343 613 -28 729 129 b 469 688 729 546 608 688 b 271 574 383 688 317 650 l 269 574 b 272 657 269 624 272 644 b 242 688 272 675 260 688 b 219 681 233 688 226 685 b 49 632 176 656 151 644 b 22 603 31 629 22 615 b 44 574 22 590 29 578 l 140 546 l 140 -200 l 71 -229 b 50 -258 57 -235 50 -247 b 81 -286 50 -274 63 -289 z m 419 50 b 269 140 363 50 308 88 l 269 481 b 419 593 314 571 378 593 b 582 343 521 593 582 496 b 419 50 582 160 519 50 z "},"q":{"ha":742,"x_min":0,"x_max":0,"o":"m 399 -286 b 561 -278 457 -279 508 -278 b 699 -286 607 -278 653 -279 b 729 -258 717 -289 729 -274 b 708 -229 729 -247 722 -235 l 639 -200 l 639 664 b 618 688 639 681 628 688 b 594 674 607 688 601 682 l 531 592 l 522 592 b 331 688 486 642 414 688 b 54 317 171 688 54 531 b 314 -28 54 114 175 -28 b 508 79 397 -28 465 10 l 510 79 l 510 -203 l 501 -211 l 401 -194 b 343 -240 376 -190 343 -204 b 399 -286 343 -265 361 -290 z m 364 67 b 201 317 263 67 201 164 b 364 610 201 500 264 610 b 510 525 419 610 472 578 l 510 171 b 364 67 475 107 426 67 z "},"r":{"ha":590,"x_min":0,"x_max":0,"o":"m 89 -8 b 226 0 135 -3 181 0 b 389 -8 279 0 332 -3 b 444 38 426 -12 444 13 b 385 83 444 65 424 89 l 286 67 l 278 75 l 278 426 b 400 565 317 490 360 535 b 486 508 413 531 447 508 b 571 596 529 508 571 546 b 476 685 571 642 533 685 b 279 510 390 685 335 600 l 278 510 l 278 576 b 282 657 278 626 282 642 b 251 688 282 675 269 688 b 229 681 243 688 236 685 b 57 632 186 656 160 644 b 31 603 39 629 31 615 b 53 574 31 590 38 578 l 149 546 l 149 78 l 79 49 b 58 19 65 43 58 31 b 89 -8 58 4 71 -11 z "},"s":{"ha":621,"x_min":0,"x_max":0,"o":"m 117 -24 b 142 -14 125 -24 131 -21 l 207 26 b 357 -19 251 0 292 -19 b 567 192 476 -19 567 76 b 403 393 567 286 513 358 l 275 433 b 164 542 194 458 164 500 b 267 629 164 590 200 629 b 485 472 339 629 417 572 b 510 458 492 463 500 458 b 535 485 522 458 535 468 b 525 521 535 496 529 507 b 494 668 511 561 501 613 b 469 696 492 686 482 696 b 446 686 463 696 457 694 l 392 646 b 268 689 350 675 310 689 b 69 500 157 689 69 603 b 238 294 69 392 131 328 l 358 257 b 465 143 429 235 465 194 b 358 44 465 88 419 44 b 110 210 265 44 175 104 b 82 228 101 222 93 228 b 56 200 67 228 56 215 b 60 182 56 196 57 189 b 94 4 83 121 90 79 b 117 -24 96 -17 107 -24 z "},"t":{"ha":508,"x_min":0,"x_max":0,"o":"m 315 -19 b 494 90 393 -19 467 31 b 499 110 497 97 499 103 b 468 140 499 128 485 140 b 439 124 456 140 447 135 b 353 71 408 82 378 71 b 275 153 303 71 275 106 l 275 588 l 425 588 b 469 631 454 588 469 610 b 421 671 469 651 454 674 l 275 661 l 275 867 b 238 907 275 892 258 907 b 200 872 224 907 206 897 l 174 750 b 36 647 158 683 119 656 b 4 617 14 646 4 631 b 39 588 4 603 17 588 l 149 588 b 144 168 149 351 144 279 b 315 -19 144 32 215 -19 z "},"u":{"ha":785,"x_min":0,"x_max":0,"o":"m 282 -14 b 526 121 388 -14 471 69 l 528 121 b 521 18 529 76 521 51 b 556 -10 521 1 532 -14 b 724 6 608 0 675 4 b 754 35 743 7 754 21 b 733 63 754 46 747 57 l 650 94 l 650 576 b 654 657 650 626 654 642 b 624 688 654 675 642 688 b 601 681 615 688 608 685 b 429 632 558 656 532 644 b 403 603 411 629 403 615 b 425 574 403 590 410 578 l 521 546 l 521 188 b 325 85 460 135 383 85 b 261 183 282 85 261 110 l 261 576 b 265 657 261 625 265 642 b 235 688 265 675 253 688 b 213 681 226 688 219 685 b 51 632 165 653 149 647 b 25 603 33 629 25 615 b 47 574 25 590 32 578 l 132 546 l 132 169 b 282 -14 132 57 182 -14 z "},"v":{"ha":710,"x_min":0,"x_max":0,"o":"m 358 -28 b 382 -8 367 -28 378 -21 l 593 579 l 688 613 b 708 642 701 618 708 629 b 676 669 708 657 696 672 b 561 660 638 664 600 660 b 446 669 526 660 489 663 b 413 642 425 672 413 657 b 433 613 413 629 419 618 l 525 579 l 390 201 l 388 201 l 229 589 l 299 614 b 318 643 311 618 318 629 b 282 669 318 658 304 674 b 161 661 247 664 204 661 b 40 669 119 661 76 664 b 7 642 19 672 7 657 b 28 613 7 629 14 618 l 89 590 l 333 -8 b 358 -28 339 -22 347 -28 z "},"w":{"ha":1022,"x_min":0,"x_max":0,"o":"m 329 -28 b 353 -8 339 -28 349 -21 l 506 418 l 653 -8 b 678 -28 657 -21 667 -28 b 701 -8 688 -28 697 -21 l 910 579 l 1004 613 b 1025 642 1018 618 1025 629 b 993 669 1025 657 1013 672 b 882 661 954 664 919 661 b 764 669 846 661 808 664 b 731 642 743 672 731 657 b 751 613 731 629 738 618 l 843 579 l 711 206 l 708 206 l 579 589 l 649 614 b 667 640 661 618 667 629 b 632 669 667 657 654 674 b 517 661 597 664 557 661 b 393 669 474 661 431 664 b 358 642 372 672 358 657 b 381 613 358 631 365 618 l 446 589 l 471 515 l 361 206 l 360 206 l 228 589 l 297 614 b 315 640 310 618 315 629 b 281 669 315 657 303 674 b 165 661 246 664 206 661 b 42 669 122 661 79 664 b 8 642 21 672 8 657 b 29 613 8 629 15 618 l 94 589 l 304 -8 b 329 -28 308 -21 318 -28 z "},"x":{"ha":708,"x_min":0,"x_max":0,"o":"m 54 -8 b 151 0 103 -3 128 0 b 258 -8 178 0 203 -1 b 297 22 282 -11 297 6 b 272 51 297 33 289 46 l 194 75 l 324 272 l 325 272 l 460 72 l 403 49 b 382 19 389 43 382 31 b 413 -8 382 4 394 -11 b 536 0 447 -3 483 0 b 663 -8 590 0 626 -4 b 692 19 681 -11 692 4 b 671 49 692 31 686 42 l 611 74 l 418 357 l 565 579 l 660 613 b 681 642 674 617 681 631 b 643 669 681 658 669 672 b 547 663 589 664 576 663 b 439 669 519 663 489 667 b 400 640 415 671 400 657 b 425 610 400 629 408 617 l 494 583 l 382 411 l 381 411 l 258 589 l 317 613 b 338 642 331 618 338 631 b 307 669 338 657 325 672 b 183 661 272 665 236 661 b 58 669 129 661 93 665 b 28 642 40 672 28 657 b 49 613 28 631 35 619 l 108 588 l 286 328 l 122 75 l 38 49 b 17 19 24 44 17 32 b 54 -8 17 4 29 -11 z "},"y":{"ha":722,"x_min":0,"x_max":0,"o":"m 215 -306 b 308 -221 257 -306 286 -279 l 607 579 l 699 611 b 722 642 714 617 722 629 b 686 669 722 658 708 674 b 571 660 649 664 610 660 b 457 669 533 660 494 664 b 424 640 436 672 424 657 b 447 611 424 629 431 617 l 539 579 l 393 188 l 390 188 l 232 589 l 300 614 b 319 642 313 618 319 631 b 285 669 319 657 307 672 b 164 661 250 664 207 661 b 43 669 122 661 79 664 b 10 642 22 672 10 657 b 31 613 10 631 17 618 l 92 589 l 324 1 l 267 -151 b 215 -132 251 -139 233 -132 b 126 -217 167 -132 126 -172 b 215 -306 126 -265 167 -306 z "},"z":{"ha":654,"x_min":0,"x_max":0,"o":"m 524 -10 b 563 35 543 -10 560 0 b 614 186 568 92 593 144 b 619 207 618 196 619 201 b 590 235 619 224 606 235 b 565 222 581 235 572 231 l 490 135 b 307 61 453 90 400 61 l 211 61 l 211 63 l 582 617 b 588 636 586 624 588 631 b 556 667 588 653 574 667 l 222 667 b 140 676 171 667 160 676 b 104 638 121 676 108 664 b 90 560 100 608 96 583 b 63 468 81 517 63 485 b 93 438 63 450 78 438 b 118 453 101 438 111 442 l 169 535 b 294 606 200 582 229 606 l 418 606 l 418 604 l 50 54 b 43 31 44 46 43 39 b 76 0 43 14 56 0 l 429 0 b 524 -10 471 0 503 -10 z "},"{":{"ha":513,"x_min":0,"x_max":0,"o":"m 417 -272 b 497 -211 464 -272 497 -247 b 438 -154 497 -178 474 -154 l 372 -154 b 296 -65 314 -154 296 -117 l 296 258 b 168 429 296 357 254 417 l 168 436 b 296 603 254 454 296 504 l 296 926 b 372 1014 296 978 314 1014 l 438 1014 b 497 1071 474 1014 497 1038 b 417 1132 497 1107 464 1132 b 213 932 315 1132 213 1068 l 213 604 b 110 475 213 517 164 475 b 39 485 85 475 63 485 b -15 431 11 485 -15 464 b 38 376 -15 396 13 376 b 110 386 61 376 85 386 b 213 257 164 386 213 344 l 213 -71 b 417 -272 213 -208 315 -272 z "},"|":{"ha":328,"x_min":0,"x_max":0,"o":"m 164 -258 b 215 -207 192 -258 215 -236 b 203 393 215 -165 203 -62 b 215 1079 203 949 215 1038 b 164 1131 215 1108 192 1131 b 113 1079 136 1131 113 1108 b 125 393 113 1038 125 949 b 113 -207 125 -62 113 -165 b 164 -258 113 -236 136 -258 z "},"}":{"ha":513,"x_min":0,"x_max":0,"o":"m 96 -272 b 300 -71 197 -272 300 -208 l 300 257 b 403 386 300 344 349 386 b 475 376 428 386 451 376 b 528 431 500 376 528 396 b 474 485 528 464 501 485 b 403 475 450 485 428 475 b 300 604 349 475 300 517 l 300 932 b 96 1132 300 1068 197 1132 b 15 1071 49 1132 15 1107 b 75 1014 15 1038 39 1014 l 140 1014 b 217 926 199 1014 217 978 l 217 603 b 344 436 217 504 258 454 l 344 429 b 217 258 258 417 217 357 l 217 -65 b 140 -154 217 -117 199 -154 l 75 -154 b 15 -211 39 -154 15 -178 b 96 -272 15 -247 49 -272 z "},"~":{"ha":758,"x_min":0,"x_max":0,"o":"m 524 276 b 704 424 629 276 704 363 b 649 482 704 461 676 482 b 590 435 617 482 599 463 b 510 363 576 390 547 363 b 235 503 425 363 388 503 b 54 356 129 503 54 417 b 110 297 54 318 82 297 b 168 344 142 297 160 317 b 249 417 182 389 211 417 b 524 276 333 417 371 276 z "}," ":{"ha":314,"x_min":0,"x_max":0,"o":""},"¡":{"ha":343,"x_min":0,"x_max":0,"o":"m 174 688 b 88 601 125 688 88 650 b 174 517 88 554 125 517 b 258 601 221 517 258 554 b 174 688 258 650 221 688 z m 172 406 b 124 351 146 406 119 382 b 133 203 131 303 133 261 b 81 -226 133 160 126 64 b 78 -254 79 -235 78 -250 b 172 -346 78 -304 121 -346 b 264 -254 215 -346 264 -310 b 261 -226 264 -246 263 -235 b 208 203 214 64 208 160 b 218 351 208 261 211 303 b 172 406 222 382 196 406 z "},"¢":{"ha":554,"x_min":0,"x_max":0,"o":"m 303 -17 b 356 50 332 -17 360 8 l 342 169 b 510 325 443 193 510 268 b 488 350 510 338 503 350 b 461 333 476 350 468 344 b 324 256 429 282 386 256 b 172 454 232 256 172 335 b 311 674 172 576 222 674 b 335 671 318 674 331 672 l 365 599 b 432 547 381 563 407 547 b 496 610 465 547 496 572 b 342 728 496 667 421 718 l 356 839 b 303 906 361 881 332 906 b 246 839 269 906 240 881 l 260 721 b 54 429 142 692 54 569 b 260 168 54 283 143 185 l 246 50 b 303 -17 240 8 269 -17 z "},"£":{"ha":793,"x_min":0,"x_max":0,"o":"m 528 -26 b 746 250 717 -26 746 210 b 722 276 746 267 735 276 b 696 253 708 276 700 268 b 524 114 679 168 614 114 b 372 151 457 114 414 131 b 386 272 383 194 386 238 b 385 303 386 283 386 293 l 538 297 b 597 346 574 296 597 317 b 539 394 597 378 575 396 l 371 385 b 339 481 361 418 350 449 l 538 476 b 597 525 574 475 597 496 b 539 574 597 557 575 575 l 317 564 b 308 658 311 592 308 622 b 478 865 308 782 376 865 b 611 813 531 865 582 842 l 608 808 b 519 721 558 808 519 769 b 610 631 519 671 560 631 b 706 736 660 631 706 669 b 456 928 706 854 578 928 b 158 658 272 928 158 799 b 175 571 158 626 165 597 l 172 568 l 117 574 b 57 526 78 578 57 554 b 117 476 57 499 78 475 l 226 482 b 285 389 246 453 268 422 l 282 386 l 117 394 b 57 347 78 396 57 375 b 117 297 57 319 78 296 l 314 304 b 319 240 318 282 319 261 b 315 185 319 224 318 206 l 314 183 b 210 219 279 203 247 219 b 89 100 143 219 89 165 b 210 -21 89 33 143 -21 b 338 64 264 -21 308 10 l 340 64 b 528 -26 396 6 447 -26 z m 210 40 b 150 100 176 40 150 67 b 211 158 150 132 176 158 b 296 113 238 158 269 146 b 210 40 275 57 243 40 z "},"¤":{"ha":703,"x_min":0,"x_max":0,"o":"m 117 67 b 151 81 129 67 142 71 b 222 175 171 99 188 138 b 349 135 260 149 304 135 b 478 178 394 135 440 149 b 551 81 517 138 532 100 b 586 67 561 71 574 67 b 621 81 599 67 611 71 b 636 117 631 92 636 104 b 622 151 636 129 632 142 b 525 225 603 171 564 186 b 565 351 553 263 565 307 b 525 476 565 394 553 439 b 622 550 564 515 603 531 b 636 585 632 560 636 572 b 621 621 636 597 631 610 b 586 636 611 631 599 636 b 551 621 574 636 561 631 b 478 524 532 601 517 564 b 350 567 440 553 394 567 b 224 525 306 567 261 553 b 151 621 186 564 169 603 b 117 636 142 631 129 636 b 82 621 104 636 92 631 b 67 585 72 610 67 597 b 81 550 67 572 71 560 b 176 478 100 532 139 515 b 135 350 149 440 135 394 b 175 224 135 306 149 261 b 81 151 138 186 99 169 b 67 117 71 142 67 129 b 82 81 67 104 72 92 b 117 67 92 71 104 67 z m 350 210 b 208 350 275 210 208 274 b 350 492 208 428 274 492 b 492 350 426 492 492 428 b 350 210 492 272 428 210 z "},"¥":{"ha":947,"x_min":0,"x_max":0,"o":"m 314 -11 l 319 -11 b 483 0 371 -4 433 0 b 647 -11 532 0 596 -4 b 681 17 665 -14 681 -1 b 654 49 681 32 672 42 l 553 86 l 553 272 l 738 265 b 797 314 774 264 797 285 b 739 363 797 346 775 364 l 553 356 l 553 388 l 586 453 l 738 449 b 797 497 774 447 797 468 b 739 546 797 529 775 547 l 640 542 l 638 546 l 779 810 l 885 849 b 908 881 901 856 908 868 b 875 907 908 896 896 910 b 743 896 822 900 783 896 b 608 907 703 896 663 900 b 575 882 586 910 575 897 b 599 850 575 869 582 857 l 700 810 l 513 458 l 511 458 l 317 810 l 421 850 b 444 879 438 857 444 868 b 407 907 444 896 429 910 b 249 894 356 899 303 894 b 69 907 193 894 133 899 b 36 881 50 910 36 896 b 63 849 36 869 43 857 l 161 810 l 308 546 l 306 542 l 219 546 b 161 499 183 547 161 529 b 221 449 161 468 185 447 l 358 451 l 407 360 l 404 356 l 222 363 b 161 314 183 364 161 346 b 224 265 161 283 186 264 l 414 274 l 414 86 l 313 49 b 286 17 299 43 286 35 b 314 -11 286 1 297 -11 z "},"¦":{"ha":328,"x_min":0,"x_max":0,"o":"m 164 478 b 215 529 192 478 215 500 b 206 754 215 571 206 660 b 215 965 206 849 215 924 b 164 1017 215 994 192 1017 b 113 965 136 1017 113 994 b 122 754 113 924 122 849 b 113 529 122 660 113 571 b 164 478 113 500 136 478 z m 164 -231 b 215 -179 192 -231 215 -208 b 206 46 215 -137 206 -49 b 215 257 206 140 215 215 b 164 308 215 286 192 308 b 113 257 136 308 113 286 b 122 46 113 215 122 140 b 113 -179 122 -49 113 -137 b 164 -231 113 -208 136 -231 z "},"§":{"ha":714,"x_min":0,"x_max":0,"o":"m 356 -194 b 636 42 525 -194 636 -71 b 515 232 636 135 583 194 l 515 233 b 653 428 601 281 653 344 b 489 628 653 499 621 568 l 304 711 b 189 839 228 746 189 782 b 350 976 189 908 243 976 b 463 893 442 976 463 924 b 450 810 463 858 450 842 b 535 726 450 768 489 726 b 622 826 590 726 622 774 b 358 1042 622 915 526 1042 b 78 806 189 1042 78 918 b 199 615 78 713 131 653 l 199 614 b 61 419 113 565 61 503 b 225 219 61 349 93 279 l 410 136 b 525 8 486 101 525 65 b 364 -129 525 -61 471 -129 b 251 -46 272 -129 251 -76 b 264 38 251 -11 264 6 b 179 121 264 79 225 121 b 92 21 124 121 92 74 b 356 -194 92 -68 188 -194 z m 456 261 l 289 336 b 185 454 206 374 185 413 b 258 586 185 511 208 560 l 425 511 b 529 393 508 474 529 435 b 456 261 529 336 506 288 z "},"©":{"ha":919,"x_min":0,"x_max":0,"o":"m 461 -26 b 860 374 681 -26 860 153 b 461 772 860 593 681 772 b 61 374 240 772 61 593 b 461 -26 61 153 240 -26 z m 461 32 b 119 374 272 32 119 185 b 461 714 119 561 272 714 b 801 374 649 714 801 561 b 461 32 801 185 649 32 z m 467 122 b 653 268 557 122 628 179 b 635 299 658 286 647 299 b 614 285 626 299 619 294 b 483 207 583 233 539 207 b 340 390 396 207 340 275 b 483 578 340 490 400 583 l 504 525 b 568 476 517 493 543 476 b 621 531 594 476 621 499 b 483 624 621 583 558 624 b 242 361 357 624 242 526 b 467 122 242 219 342 122 z "},"ª":{"ha":521,"x_min":0,"x_max":0,"o":"m 179 472 b 304 549 233 472 276 499 l 308 549 b 396 475 315 501 349 475 b 475 538 433 475 475 513 b 457 557 475 549 467 557 b 439 544 450 557 443 551 b 417 531 433 535 426 531 b 390 558 403 531 390 542 l 390 813 b 251 924 390 897 325 924 b 81 814 158 924 81 876 b 139 756 81 782 107 756 b 193 813 165 756 193 778 b 165 860 193 838 178 853 l 165 865 b 228 881 181 875 204 881 b 301 813 271 881 301 861 l 301 758 b 115 678 190 721 144 699 b 64 583 81 656 64 624 b 179 472 64 522 114 472 z m 214 532 b 153 594 169 532 153 563 b 301 713 153 654 204 682 l 301 656 b 214 532 301 575 256 532 z "},"«":{"ha":465,"x_min":0,"x_max":0,"o":"m 207 60 b 258 111 235 60 258 83 b 246 147 258 122 254 135 l 160 269 b 133 349 142 294 133 322 b 160 429 133 376 142 404 l 246 550 b 260 589 256 564 260 578 b 207 643 260 618 236 643 b 153 600 185 643 165 628 l 82 432 b 65 350 71 404 65 378 b 85 261 65 321 72 290 l 157 99 b 207 60 169 71 189 60 z m 357 139 b 406 188 382 139 406 161 b 378 238 406 204 397 221 l 290 308 b 257 351 268 326 257 339 b 290 392 257 363 268 375 l 371 454 b 403 508 394 472 403 492 b 356 557 403 536 381 557 b 311 532 340 557 325 550 l 219 407 b 197 349 204 386 197 368 b 219 290 197 331 204 311 l 311 165 b 357 139 325 147 342 139 z "},"¬":{"ha":758,"x_min":0,"x_max":0,"o":"m 663 53 b 714 104 690 53 714 76 b 704 226 714 147 704 160 b 714 364 704 300 714 321 b 663 415 714 392 690 415 b 376 403 619 415 547 403 b 90 415 206 403 133 415 b 39 364 63 415 39 392 b 90 313 39 336 63 313 b 376 325 133 313 206 325 b 615 322 499 325 568 325 l 617 321 b 621 226 619 300 621 267 b 611 104 621 160 611 147 b 663 53 611 76 635 53 z "},"­":{"ha":569,"x_min":0,"x_max":0,"o":"m 133 299 b 285 306 175 299 204 306 b 436 299 365 306 394 299 b 488 350 465 299 488 322 b 436 401 488 378 465 401 b 285 394 394 401 365 394 b 133 401 204 394 175 401 b 82 350 104 401 82 378 b 133 299 82 322 104 299 z "},"®":{"ha":919,"x_min":0,"x_max":0,"o":"m 461 -26 b 860 374 681 -26 860 153 b 461 772 860 593 681 772 b 61 374 240 772 61 593 b 461 -26 61 153 240 -26 z m 461 32 b 119 374 272 32 119 185 b 461 714 119 561 272 714 b 801 374 649 714 801 561 b 461 32 801 185 649 32 z m 617 138 b 692 199 656 138 692 168 b 675 215 692 207 686 215 b 660 203 668 215 663 210 b 640 188 657 194 650 188 b 619 210 631 188 621 194 l 613 286 b 522 375 607 342 578 367 l 522 383 b 640 489 596 388 640 433 b 474 614 640 563 571 614 b 368 607 436 614 417 607 b 293 614 346 607 324 611 b 271 596 279 615 271 610 b 296 571 271 585 276 578 l 332 557 l 332 188 l 283 169 b 271 154 276 167 271 163 b 289 140 271 144 279 139 b 365 146 313 143 342 146 b 457 140 390 146 432 144 b 474 154 467 139 474 146 b 461 169 474 163 468 167 l 413 188 l 413 360 l 449 360 b 524 301 501 360 519 338 l 531 229 b 617 138 538 163 575 138 z m 456 400 l 413 400 l 413 517 b 463 572 413 551 419 572 b 549 488 521 572 549 531 b 456 400 549 438 522 400 z "},"°":{"ha":396,"x_min":0,"x_max":0,"o":"m 197 682 b 343 828 276 682 343 749 b 197 971 343 906 276 971 b 54 828 119 971 54 906 b 197 682 54 749 119 682 z m 197 744 b 117 828 156 744 117 783 b 197 908 117 869 156 908 b 281 828 242 908 281 869 b 197 744 281 783 242 744 z "},"±":{"ha":758,"x_min":0,"x_max":0,"o":"m 372 340 b 424 392 400 340 424 363 b 410 485 424 424 414 446 b 651 472 546 483 611 472 b 703 524 679 472 703 496 b 651 575 703 551 679 575 b 408 563 611 575 546 564 b 424 657 413 603 424 624 b 372 708 424 686 400 708 b 321 657 344 708 321 686 b 336 563 321 624 332 603 b 107 575 208 565 146 575 b 56 524 79 575 56 551 b 107 472 56 496 79 472 b 335 485 146 472 208 482 b 321 392 331 446 321 424 b 372 340 321 363 344 340 z m 107 207 b 379 219 150 207 222 219 b 651 207 536 219 608 207 b 703 258 679 207 703 231 b 651 310 703 286 679 310 b 379 297 608 310 536 297 b 107 310 222 297 150 310 b 56 258 79 310 56 286 b 107 207 56 231 79 207 z "},"²":{"ha":444,"x_min":0,"x_max":0,"o":"m 67 511 b 167 518 89 511 97 518 l 239 518 b 338 513 300 518 322 513 b 365 533 357 513 364 526 b 397 653 374 572 386 622 b 376 688 404 672 392 688 b 356 674 369 688 361 683 b 246 592 319 611 294 592 l 156 592 l 153 596 l 272 719 b 386 910 360 811 386 853 b 224 1039 386 983 317 1039 b 47 888 114 1039 47 965 b 114 804 47 840 78 804 b 171 857 150 804 171 826 b 138 939 171 896 138 904 b 204 993 138 971 165 993 b 279 907 247 993 279 960 b 203 740 279 843 254 803 l 50 553 b 42 533 44 547 42 540 b 67 511 42 521 51 511 z "},"³":{"ha":426,"x_min":0,"x_max":0,"o":"m 196 507 b 381 668 294 507 381 571 b 260 793 381 735 322 783 l 260 799 b 361 918 322 818 361 867 b 206 1042 361 989 293 1042 b 53 926 117 1042 53 992 b 106 865 53 889 76 865 b 151 911 132 865 151 883 b 143 957 151 940 143 938 b 193 997 143 975 161 997 b 258 918 232 997 258 960 b 193 811 258 868 238 811 b 151 818 176 811 164 818 b 125 793 133 818 125 806 b 156 768 125 781 133 768 b 193 774 164 768 172 774 b 272 667 229 774 272 740 b 197 553 272 582 235 553 b 142 594 160 553 142 576 b 154 651 142 618 154 625 b 101 704 154 682 131 704 b 44 638 68 704 44 675 b 196 507 44 546 131 507 z "},"µ":{"ha":794,"x_min":0,"x_max":0,"o":"m 183 -271 b 260 -194 222 -271 260 -236 b 189 0 260 -126 189 -100 l 189 22 l 190 22 b 288 -11 214 0 247 -11 b 531 121 392 -11 476 68 b 669 -8 536 43 592 -8 b 786 86 735 -8 786 43 b 758 114 786 103 774 114 b 735 100 750 114 742 110 b 696 76 724 83 710 76 b 656 122 675 76 656 93 l 656 568 b 660 649 656 618 660 633 b 629 679 660 667 647 679 b 607 672 621 679 614 676 b 435 624 564 647 538 636 b 408 594 417 621 408 607 b 431 565 408 582 415 569 l 526 538 l 526 188 b 328 86 465 135 389 86 b 267 201 283 86 267 117 l 267 568 b 271 649 267 618 271 633 b 240 679 271 667 258 679 b 218 672 233 679 225 676 b 58 624 175 647 144 638 b 31 594 43 621 31 608 b 56 563 31 579 42 567 l 138 538 l 138 -14 b 107 -194 138 -115 107 -144 b 183 -271 107 -236 140 -271 z "},"¶":{"ha":764,"x_min":0,"x_max":0,"o":"m 572 -189 b 624 -137 600 -189 624 -167 b 611 449 624 -96 611 7 b 624 1031 611 900 624 989 b 572 1082 624 1060 600 1082 b 521 1031 544 1082 521 1060 b 533 449 521 989 533 900 b 521 -137 533 7 521 -96 b 572 -189 521 -167 544 -189 z m 407 -192 b 458 -140 435 -192 458 -169 b 443 449 458 -99 443 32 b 458 1025 443 894 458 983 b 407 1076 458 1054 435 1076 l 268 1076 b 35 850 139 1076 35 974 b 268 613 35 717 139 613 l 367 613 l 367 449 b 356 -140 367 32 356 -99 b 407 -192 356 -169 379 -192 z "},"·":{"ha":329,"x_min":0,"x_max":0,"o":"m 165 319 b 250 406 213 319 250 357 b 165 490 250 453 213 490 b 79 406 117 490 79 453 b 165 319 79 357 117 319 z "},"¹":{"ha":347,"x_min":0,"x_max":0,"o":"m 81 510 b 188 518 113 514 160 518 b 301 510 222 518 269 514 b 329 531 318 507 329 518 b 313 551 329 538 324 546 l 242 583 l 242 1017 b 218 1040 242 1031 232 1040 b 193 1026 211 1040 203 1036 b 56 951 165 999 119 964 b 33 928 40 949 33 938 b 63 903 33 915 43 903 l 140 903 l 140 583 l 69 551 b 53 531 58 546 53 538 b 81 510 53 518 64 507 z "},"º":{"ha":506,"x_min":0,"x_max":0,"o":"m 253 472 b 451 697 361 472 451 572 b 253 922 451 822 361 922 b 54 697 143 922 54 822 b 253 472 54 572 143 472 z m 253 518 b 158 697 196 518 158 582 b 253 876 158 813 196 876 b 347 697 308 876 347 813 b 253 518 347 582 308 518 z "},"»":{"ha":465,"x_min":0,"x_max":0,"o":"m 258 60 b 308 99 276 60 296 71 l 381 261 b 400 350 393 290 400 321 b 383 432 400 378 394 404 l 313 600 b 258 643 300 628 281 643 b 206 589 229 643 206 618 b 219 550 206 578 210 564 l 306 429 b 332 349 324 404 332 376 b 306 269 332 322 324 294 l 219 147 b 207 111 211 135 207 122 b 258 60 207 83 231 60 z m 108 139 b 154 165 124 139 140 147 l 246 290 b 268 349 261 311 268 331 b 246 407 268 368 261 386 l 154 532 b 110 557 140 550 125 557 b 63 508 85 557 63 536 b 94 454 63 492 71 472 l 175 392 b 208 351 197 375 208 363 b 175 308 208 339 197 326 l 88 238 b 60 188 68 221 60 204 b 108 139 60 161 83 139 z "},"¼":{"ha":1004,"x_min":0,"x_max":0,"o":"m 96 400 b 203 408 128 404 175 408 b 317 400 238 408 285 404 b 344 421 333 397 344 408 b 328 442 344 428 339 436 l 257 474 l 257 907 b 233 931 257 921 247 931 b 208 917 226 931 218 926 b 71 842 181 889 135 854 b 49 818 56 839 49 828 b 78 793 49 806 58 793 l 156 793 l 156 474 l 85 442 b 68 421 74 436 68 428 b 96 400 68 408 79 397 z m 217 -10 b 253 13 231 -10 243 -3 b 539 431 290 71 303 106 b 846 835 774 758 806 783 b 857 865 854 846 857 857 b 815 908 857 889 838 908 b 776 885 801 908 786 901 b 490 465 742 828 728 790 b 185 64 254 138 226 115 b 174 33 176 53 174 42 b 217 -10 174 8 193 -10 z m 714 -8 b 815 0 750 -4 779 0 b 925 -8 853 0 900 -4 b 954 13 942 -11 954 -1 b 938 33 954 19 949 28 l 867 65 l 867 115 l 929 115 b 964 149 953 115 964 133 b 926 181 964 165 950 183 l 867 174 l 867 232 b 854 240 867 240 861 242 l 781 224 b 771 211 774 222 771 218 l 771 167 l 664 156 l 663 165 b 860 457 736 217 860 349 b 806 521 860 501 835 521 b 753 460 782 521 754 499 b 613 176 749 347 690 229 b 589 143 597 167 589 157 b 614 115 589 125 603 115 l 771 115 l 771 65 l 703 33 b 686 13 692 29 686 21 b 714 -8 686 0 697 -11 z "},"½":{"ha":1058,"x_min":0,"x_max":0,"o":"m 90 400 b 197 408 122 404 169 408 b 311 400 232 408 279 404 b 339 421 328 397 339 408 b 322 442 339 428 333 436 l 251 474 l 251 907 b 228 931 251 921 242 931 b 203 917 221 931 213 926 b 65 842 175 889 129 854 b 43 818 50 839 43 828 b 72 793 43 806 53 793 l 150 793 l 150 474 l 79 442 b 63 421 68 436 63 428 b 90 400 63 408 74 397 z m 211 -10 b 247 13 225 -10 238 -3 b 533 431 285 71 297 106 b 840 835 768 758 800 783 b 851 865 849 846 851 857 b 810 908 851 889 832 908 b 771 885 796 908 781 901 b 485 465 736 828 722 790 b 179 64 249 138 221 115 b 168 33 171 53 168 42 b 211 -10 168 8 188 -10 z m 682 -7 b 782 0 704 -7 713 0 l 854 0 b 953 -6 915 0 938 -6 b 981 15 972 -6 979 8 b 1013 135 989 54 1001 104 b 992 169 1019 154 1007 169 b 971 156 985 169 976 165 b 861 74 935 93 910 74 l 771 74 l 768 78 l 888 201 b 1001 392 975 293 1001 335 b 839 521 1001 465 932 521 b 663 369 729 521 663 447 b 729 286 663 322 693 286 b 786 339 765 286 786 308 b 753 421 786 378 753 386 b 819 475 753 453 781 475 b 894 389 863 475 894 442 b 818 222 894 325 869 285 l 665 35 b 657 15 660 29 657 22 b 682 -7 657 3 667 -7 z "},"¾":{"ha":1035,"x_min":0,"x_max":0,"o":"m 204 393 b 389 554 303 393 389 457 b 268 679 389 621 331 669 l 268 685 b 369 804 331 704 369 753 b 214 928 369 875 301 928 b 61 813 125 928 61 878 b 114 751 61 775 85 751 b 160 797 140 751 160 769 b 151 843 160 826 151 824 b 201 883 151 861 169 883 b 267 804 240 883 267 846 b 201 697 267 754 246 697 b 160 704 185 697 172 704 b 133 679 142 704 133 692 b 164 654 133 667 142 654 b 201 660 172 654 181 660 b 281 553 238 660 281 626 b 206 439 281 468 243 439 b 150 481 168 439 150 463 b 163 538 150 504 163 511 b 110 590 163 568 139 590 b 53 524 76 590 53 561 b 204 393 53 432 139 393 z m 247 -10 b 283 13 261 -10 274 -3 b 569 431 321 71 333 106 b 876 835 804 758 836 783 b 888 865 885 846 888 857 b 846 908 888 889 868 908 b 807 885 832 908 817 901 b 521 465 772 828 758 790 b 215 64 285 138 257 115 b 204 33 207 53 204 42 b 247 -10 204 8 224 -10 z m 744 -8 b 846 0 781 -4 810 0 b 956 -8 883 0 931 -4 b 985 13 972 -11 985 -1 b 968 33 985 19 979 28 l 897 65 l 897 115 l 960 115 b 994 149 983 115 994 133 b 957 181 994 165 981 183 l 897 174 l 897 232 b 885 240 897 240 892 242 l 811 224 b 801 211 804 222 801 218 l 801 167 l 694 156 l 693 165 b 890 457 767 217 890 349 b 836 521 890 501 865 521 b 783 460 813 521 785 499 b 643 176 779 347 721 229 b 619 143 628 167 619 157 b 644 115 619 125 633 115 l 801 115 l 801 65 l 733 33 b 717 13 722 29 717 21 b 744 -8 717 0 728 -11 z "},"¿":{"ha":496,"x_min":0,"x_max":0,"o":"m 314 688 b 229 601 267 688 229 650 b 314 517 229 554 267 517 b 400 601 363 517 400 554 b 314 688 400 650 363 688 z m 318 410 b 282 367 299 410 281 393 b 283 226 286 313 286 275 b 44 -56 140 201 44 89 b 300 -339 44 -204 163 -339 b 454 -240 389 -339 454 -296 b 389 -168 454 -201 422 -168 b 332 -193 369 -168 349 -176 l 272 -256 b 260 -257 267 -257 261 -257 b 135 -106 204 -257 135 -200 b 329 92 135 11 203 103 b 356 117 347 90 357 103 b 356 367 347 210 349 286 b 318 410 358 393 339 410 z "},"À":{"ha":932,"x_min":0,"x_max":0,"o":"m 321 1192 l 550 1010 l 581 1042 l 413 1269 b 349 1308 393 1294 376 1308 b 290 1250 317 1308 290 1282 b 321 1192 290 1226 301 1207 z m 19 -11 b 140 0 63 -3 101 0 b 283 -11 186 0 232 -4 b 318 17 306 -14 318 1 b 294 47 318 29 311 42 l 190 86 l 272 328 l 586 328 l 667 85 l 568 49 b 542 17 549 42 542 29 b 578 -11 542 0 556 -14 b 747 0 631 -3 694 0 b 901 -11 801 0 850 -4 b 938 17 924 -14 938 1 b 914 47 938 29 931 42 l 817 83 l 525 971 b 511 978 522 978 518 981 l 408 943 b 399 935 403 942 400 939 l 111 86 l 10 49 b -17 17 -10 42 -17 29 b 19 -11 -17 0 -3 -15 z m 431 794 l 433 794 l 561 404 l 299 404 z "},"Á":{"ha":932,"x_min":0,"x_max":0,"o":"m 519 1269 l 351 1042 l 382 1010 l 611 1192 b 642 1250 631 1207 642 1226 b 583 1308 642 1282 615 1308 b 519 1269 556 1308 539 1294 z m 19 -11 b 140 0 63 -3 101 0 b 283 -11 186 0 232 -4 b 318 17 306 -14 318 1 b 294 47 318 29 311 42 l 190 86 l 272 328 l 586 328 l 667 85 l 568 49 b 542 17 549 42 542 29 b 578 -11 542 0 556 -14 b 747 0 631 -3 694 0 b 901 -11 801 0 850 -4 b 938 17 924 -14 938 1 b 914 47 938 29 931 42 l 817 83 l 525 971 b 511 978 522 978 518 981 l 408 943 b 399 935 403 942 400 939 l 111 86 l 10 49 b -17 17 -10 42 -17 29 b 19 -11 -17 0 -3 -15 z m 431 794 l 433 794 l 561 404 l 299 404 z "},"Â":{"ha":932,"x_min":0,"x_max":0,"o":"m 283 1038 b 333 1065 300 1038 318 1044 l 446 1222 l 485 1222 l 596 1065 b 644 1038 610 1046 628 1038 b 706 1097 676 1038 706 1061 b 675 1150 706 1115 696 1135 l 496 1285 b 464 1299 483 1294 474 1299 b 435 1286 456 1299 446 1294 l 253 1149 b 224 1096 231 1132 224 1114 b 283 1038 224 1064 251 1038 z m 19 -11 b 140 0 63 -3 101 0 b 283 -11 186 0 232 -4 b 318 17 306 -14 318 1 b 294 47 318 29 311 42 l 190 86 l 272 328 l 586 328 l 667 85 l 568 49 b 542 17 549 42 542 29 b 578 -11 542 0 556 -14 b 747 0 631 -3 694 0 b 901 -11 801 0 850 -4 b 938 17 924 -14 938 1 b 914 47 938 29 931 42 l 817 83 l 525 971 b 511 978 522 978 518 981 l 408 943 b 399 935 403 942 400 939 l 111 86 l 10 49 b -17 17 -10 42 -17 29 b 19 -11 -17 0 -3 -15 z m 431 794 l 433 794 l 561 404 l 299 404 z "},"Ã":{"ha":932,"x_min":0,"x_max":0,"o":"m 568 1026 b 697 1157 647 1026 697 1093 b 636 1222 697 1197 664 1222 b 572 1161 606 1222 578 1203 b 531 1115 568 1128 549 1115 b 360 1231 479 1115 464 1231 b 231 1100 281 1231 231 1164 b 292 1035 231 1060 264 1035 b 356 1096 322 1035 350 1054 b 397 1142 360 1129 379 1142 b 568 1026 449 1142 464 1026 z m 19 -11 b 140 0 63 -3 101 0 b 283 -11 186 0 232 -4 b 318 17 306 -14 318 1 b 294 47 318 29 311 42 l 190 86 l 272 328 l 586 328 l 667 85 l 568 49 b 542 17 549 42 542 29 b 578 -11 542 0 556 -14 b 747 0 631 -3 694 0 b 901 -11 801 0 850 -4 b 938 17 924 -14 938 1 b 914 47 938 29 931 42 l 817 83 l 525 971 b 511 978 522 978 518 981 l 408 943 b 399 935 403 942 400 939 l 111 86 l 10 49 b -17 17 -10 42 -17 29 b 19 -11 -17 0 -3 -15 z m 431 794 l 433 794 l 561 404 l 299 404 z "},"Ä":{"ha":932,"x_min":0,"x_max":0,"o":"m 332 1072 b 419 1161 381 1072 419 1111 b 332 1249 419 1210 381 1249 b 243 1161 282 1249 243 1210 b 332 1072 243 1111 282 1072 z m 606 1072 b 693 1161 654 1072 693 1111 b 606 1249 693 1210 654 1249 b 517 1161 556 1249 517 1210 b 606 1072 517 1111 556 1072 z m 19 -11 b 140 0 63 -3 101 0 b 283 -11 186 0 232 -4 b 318 17 306 -14 318 1 b 294 47 318 29 311 42 l 190 86 l 272 328 l 586 328 l 667 85 l 568 49 b 542 17 549 42 542 29 b 578 -11 542 0 556 -14 b 747 0 631 -3 694 0 b 901 -11 801 0 850 -4 b 938 17 924 -14 938 1 b 914 47 938 29 931 42 l 817 83 l 525 971 b 511 978 522 978 518 981 l 408 943 b 399 935 403 942 400 939 l 111 86 l 10 49 b -17 17 -10 42 -17 29 b 19 -11 -17 0 -3 -15 z m 431 794 l 433 794 l 561 404 l 299 404 z "},"Ç":{"ha":885,"x_min":0,"x_max":0,"o":"m 429 -324 b 594 -185 494 -324 594 -289 b 488 -86 594 -125 540 -86 b 425 -106 467 -86 442 -93 l 417 -99 l 456 -26 b 492 -28 475 -28 479 -28 b 851 263 772 -28 851 232 b 821 294 851 286 832 294 b 789 271 808 294 796 288 b 522 90 731 142 633 90 b 211 519 367 90 211 244 b 479 907 211 746 331 907 b 758 721 589 907 690 843 b 785 704 764 710 775 704 b 814 758 811 704 824 731 b 774 946 794 818 781 888 b 739 983 771 972 756 983 b 714 976 731 983 722 981 l 629 933 b 475 976 586 958 538 976 b 58 481 232 976 58 740 b 411 -19 58 222 201 21 l 349 -100 b 333 -133 338 -114 333 -124 b 364 -164 333 -150 347 -164 b 393 -149 374 -164 383 -158 b 439 -128 406 -136 417 -128 b 499 -197 474 -128 499 -154 b 410 -286 499 -269 442 -287 l 410 -261 b 358 -197 410 -212 388 -197 b 311 -244 329 -197 311 -221 b 429 -324 311 -308 378 -324 z "},"È":{"ha":906,"x_min":0,"x_max":0,"o":"m 304 1192 l 533 1010 l 564 1042 l 396 1269 b 332 1308 376 1294 360 1308 b 274 1250 300 1308 274 1282 b 304 1192 274 1226 285 1207 z m 81 -11 b 243 0 131 -4 193 0 l 632 0 b 708 -4 664 0 692 -3 l 747 -8 b 800 32 778 -11 794 3 b 853 207 813 97 828 151 b 863 240 860 224 863 231 b 832 269 863 257 849 269 b 799 249 819 269 808 264 b 410 65 711 104 636 65 b 313 142 367 65 313 82 l 313 438 l 519 438 l 575 289 b 604 268 581 275 593 268 b 635 299 619 268 635 279 b 626 469 635 326 626 383 b 635 640 626 556 635 613 b 604 671 635 660 619 671 b 575 650 593 671 581 664 l 519 501 l 313 501 l 313 825 b 417 893 313 888 369 893 b 778 714 631 893 689 840 b 808 697 788 701 797 697 b 839 728 825 697 839 710 b 831 757 839 736 836 744 b 789 929 806 817 796 864 b 733 967 786 958 768 971 l 697 963 b 638 958 676 960 658 958 l 243 958 b 79 969 193 958 131 963 b 46 942 60 972 46 958 b 72 910 46 924 58 915 l 174 872 l 174 86 l 72 49 b 46 17 54 42 46 32 b 81 -11 46 -1 60 -14 z "},"É":{"ha":906,"x_min":0,"x_max":0,"o":"m 503 1269 l 335 1042 l 365 1010 l 594 1192 b 625 1250 614 1207 625 1226 b 567 1308 625 1282 599 1308 b 503 1269 539 1308 522 1294 z m 81 -11 b 243 0 131 -4 193 0 l 632 0 b 708 -4 664 0 692 -3 l 747 -8 b 800 32 778 -11 794 3 b 853 207 813 97 828 151 b 863 240 860 224 863 231 b 832 269 863 257 849 269 b 799 249 819 269 808 264 b 410 65 711 104 636 65 b 313 142 367 65 313 82 l 313 438 l 519 438 l 575 289 b 604 268 581 275 593 268 b 635 299 619 268 635 279 b 626 469 635 326 626 383 b 635 640 626 556 635 613 b 604 671 635 660 619 671 b 575 650 593 671 581 664 l 519 501 l 313 501 l 313 825 b 417 893 313 888 369 893 b 778 714 631 893 689 840 b 808 697 788 701 797 697 b 839 728 825 697 839 710 b 831 757 839 736 836 744 b 789 929 806 817 796 864 b 733 967 786 958 768 971 l 697 963 b 638 958 676 960 658 958 l 243 958 b 79 969 193 958 131 963 b 46 942 60 972 46 958 b 72 910 46 924 58 915 l 174 872 l 174 86 l 72 49 b 46 17 54 42 46 32 b 81 -11 46 -1 60 -14 z "},"Ê":{"ha":906,"x_min":0,"x_max":0,"o":"m 267 1038 b 317 1065 283 1038 301 1044 l 429 1222 l 468 1222 l 579 1065 b 628 1038 593 1046 611 1038 b 689 1097 660 1038 689 1061 b 658 1150 689 1115 679 1135 l 479 1285 b 447 1299 467 1294 457 1299 b 418 1286 439 1299 429 1294 l 236 1149 b 207 1096 214 1132 207 1114 b 267 1038 207 1064 235 1038 z m 81 -11 b 243 0 131 -4 193 0 l 632 0 b 708 -4 664 0 692 -3 l 747 -8 b 800 32 778 -11 794 3 b 853 207 813 97 828 151 b 863 240 860 224 863 231 b 832 269 863 257 849 269 b 799 249 819 269 808 264 b 410 65 711 104 636 65 b 313 142 367 65 313 82 l 313 438 l 519 438 l 575 289 b 604 268 581 275 593 268 b 635 299 619 268 635 279 b 626 469 635 326 626 383 b 635 640 626 556 635 613 b 604 671 635 660 619 671 b 575 650 593 671 581 664 l 519 501 l 313 501 l 313 825 b 417 893 313 888 369 893 b 778 714 631 893 689 840 b 808 697 788 701 797 697 b 839 728 825 697 839 710 b 831 757 839 736 836 744 b 789 929 806 817 796 864 b 733 967 786 958 768 971 l 697 963 b 638 958 676 960 658 958 l 243 958 b 79 969 193 958 131 963 b 46 942 60 972 46 958 b 72 910 46 924 58 915 l 174 872 l 174 86 l 72 49 b 46 17 54 42 46 32 b 81 -11 46 -1 60 -14 z "},"Ë":{"ha":906,"x_min":0,"x_max":0,"o":"m 315 1072 b 403 1161 364 1072 403 1111 b 315 1249 403 1210 364 1249 b 226 1161 265 1249 226 1210 b 315 1072 226 1111 265 1072 z m 589 1072 b 676 1161 638 1072 676 1111 b 589 1249 676 1210 638 1249 b 500 1161 539 1249 500 1210 b 589 1072 500 1111 539 1072 z m 81 -11 b 243 0 131 -4 193 0 l 632 0 b 708 -4 664 0 692 -3 l 747 -8 b 800 32 778 -11 794 3 b 853 207 813 97 828 151 b 863 240 860 224 863 231 b 832 269 863 257 849 269 b 799 249 819 269 808 264 b 410 65 711 104 636 65 b 313 142 367 65 313 82 l 313 438 l 519 438 l 575 289 b 604 268 581 275 593 268 b 635 299 619 268 635 279 b 626 469 635 326 626 383 b 635 640 626 556 635 613 b 604 671 635 660 619 671 b 575 650 593 671 581 664 l 519 501 l 313 501 l 313 825 b 417 893 313 888 369 893 b 778 714 631 893 689 840 b 808 697 788 701 797 697 b 839 728 825 697 839 710 b 831 757 839 736 836 744 b 789 929 806 817 796 864 b 733 967 786 958 768 971 l 697 963 b 638 958 676 960 658 958 l 243 958 b 79 969 193 958 131 963 b 46 942 60 972 46 958 b 72 910 46 924 58 915 l 174 872 l 174 86 l 72 49 b 46 17 54 42 46 32 b 81 -11 46 -1 60 -14 z "},"Ì":{"ha":486,"x_min":0,"x_max":0,"o":"m 100 1192 l 329 1010 l 360 1042 l 192 1269 b 128 1308 172 1294 156 1308 b 69 1250 96 1308 69 1282 b 100 1192 69 1226 81 1207 z m 79 -11 b 243 0 131 -4 193 0 b 407 -11 293 0 356 -4 b 440 17 425 -14 440 -1 b 414 49 440 32 432 42 l 313 86 l 313 872 l 414 910 b 440 942 428 915 440 924 b 407 969 440 958 426 972 b 243 958 356 963 293 958 b 79 969 193 958 131 963 b 46 942 60 972 46 958 b 72 910 46 924 58 915 l 174 872 l 174 86 l 72 49 b 46 17 54 42 46 32 b 79 -11 46 -1 61 -14 z "},"Í":{"ha":486,"x_min":0,"x_max":0,"o":"m 299 1269 l 131 1042 l 161 1010 l 390 1192 b 421 1250 410 1207 421 1226 b 363 1308 421 1282 394 1308 b 299 1269 335 1308 318 1294 z m 79 -11 b 243 0 131 -4 193 0 b 407 -11 293 0 356 -4 b 440 17 425 -14 440 -1 b 414 49 440 32 432 42 l 313 86 l 313 872 l 414 910 b 440 942 428 915 440 924 b 407 969 440 958 426 972 b 243 958 356 963 293 958 b 79 969 193 958 131 963 b 46 942 60 972 46 958 b 72 910 46 924 58 915 l 174 872 l 174 86 l 72 49 b 46 17 54 42 46 32 b 79 -11 46 -1 61 -14 z "},"Î":{"ha":486,"x_min":0,"x_max":0,"o":"m 63 1038 b 113 1065 79 1038 97 1044 l 225 1222 l 264 1222 l 375 1065 b 424 1038 389 1046 407 1038 b 485 1097 456 1038 485 1061 b 454 1150 485 1115 475 1135 l 275 1285 b 243 1299 263 1294 253 1299 b 214 1286 235 1299 225 1294 l 32 1149 b 3 1096 10 1132 3 1114 b 63 1038 3 1064 31 1038 z m 79 -11 b 243 0 131 -4 193 0 b 407 -11 293 0 356 -4 b 440 17 425 -14 440 -1 b 414 49 440 32 432 42 l 313 86 l 313 872 l 414 910 b 440 942 428 915 440 924 b 407 969 440 958 426 972 b 243 958 356 963 293 958 b 79 969 193 958 131 963 b 46 942 60 972 46 958 b 72 910 46 924 58 915 l 174 872 l 174 86 l 72 49 b 46 17 54 42 46 32 b 79 -11 46 -1 61 -14 z "},"Ï":{"ha":486,"x_min":0,"x_max":0,"o":"m 125 1072 b 213 1161 174 1072 213 1111 b 125 1249 213 1210 174 1249 b 36 1161 75 1249 36 1210 b 125 1072 36 1111 75 1072 z m 371 1072 b 458 1161 419 1072 458 1111 b 371 1249 458 1210 419 1249 b 282 1161 321 1249 282 1210 b 371 1072 282 1111 321 1072 z m 79 -11 b 243 0 131 -4 193 0 b 407 -11 293 0 356 -4 b 440 17 425 -14 440 -1 b 414 49 440 32 432 42 l 313 86 l 313 872 l 414 910 b 440 942 428 915 440 924 b 407 969 440 958 426 972 b 243 958 356 963 293 958 b 79 969 193 958 131 963 b 46 942 60 972 46 958 b 72 910 46 924 58 915 l 174 872 l 174 86 l 72 49 b 46 17 54 42 46 32 b 79 -11 46 -1 61 -14 z "},"Ñ":{"ha":1015,"x_min":0,"x_max":0,"o":"m 613 1026 b 742 1157 692 1026 742 1093 b 681 1222 742 1197 708 1222 b 617 1161 650 1222 622 1203 b 575 1115 613 1128 593 1115 b 404 1231 524 1115 508 1231 b 275 1100 325 1231 275 1164 b 336 1035 275 1060 308 1035 b 400 1096 367 1035 394 1054 b 442 1142 404 1129 424 1142 b 613 1026 493 1142 508 1026 z m 79 -11 l 85 -11 b 217 0 125 -6 174 -1 b 349 -11 260 -1 308 -6 b 382 17 368 -14 382 0 b 356 49 382 35 369 43 l 254 86 l 254 761 l 256 761 l 790 11 b 822 -6 799 0 811 -6 b 854 28 839 -6 854 6 l 854 872 l 956 910 b 982 942 969 915 982 924 b 954 969 982 957 971 969 l 949 969 b 817 958 908 964 860 960 b 685 969 774 960 725 964 b 651 942 665 972 651 958 b 678 910 651 924 664 915 l 779 872 l 779 281 l 778 281 l 303 946 b 269 965 294 958 285 965 b 257 964 265 965 261 965 b 189 958 232 960 210 958 b 68 967 150 958 114 963 b 33 939 47 968 33 954 b 60 907 33 928 40 915 l 179 860 l 179 86 l 78 49 b 51 17 64 43 51 35 b 79 -11 51 1 63 -11 z "},"Ò":{"ha":983,"x_min":0,"x_max":0,"o":"m 347 1219 l 576 1038 l 607 1069 l 439 1297 b 375 1336 419 1322 403 1336 b 317 1278 343 1336 317 1310 b 347 1219 317 1254 328 1235 z m 492 -28 b 925 479 738 -28 925 199 b 492 986 925 760 738 986 b 58 479 246 986 58 760 b 492 -28 58 199 246 -28 z m 492 38 b 233 479 329 38 233 213 b 492 921 233 746 329 921 b 750 479 654 921 750 746 b 492 38 750 213 654 38 z "},"Ó":{"ha":983,"x_min":0,"x_max":0,"o":"m 546 1297 l 378 1069 l 408 1038 l 638 1219 b 668 1278 657 1235 668 1254 b 610 1336 668 1310 642 1336 b 546 1297 582 1336 565 1322 z m 492 -28 b 925 479 738 -28 925 199 b 492 986 925 760 738 986 b 58 479 246 986 58 760 b 492 -28 58 199 246 -28 z m 492 38 b 233 479 329 38 233 213 b 492 921 233 746 329 921 b 750 479 654 921 750 746 b 492 38 750 213 654 38 z "},"Ô":{"ha":983,"x_min":0,"x_max":0,"o":"m 310 1065 b 360 1093 326 1065 344 1072 l 472 1250 l 511 1250 l 622 1093 b 671 1065 636 1074 654 1065 b 732 1125 703 1065 732 1089 b 701 1178 732 1143 722 1163 l 522 1313 b 490 1326 510 1322 500 1326 b 461 1314 482 1326 472 1322 l 279 1176 b 250 1124 257 1160 250 1142 b 310 1065 250 1092 278 1065 z m 492 -28 b 925 479 738 -28 925 199 b 492 986 925 760 738 986 b 58 479 246 986 58 760 b 492 -28 58 199 246 -28 z m 492 38 b 233 479 329 38 233 213 b 492 921 233 746 329 921 b 750 479 654 921 750 746 b 492 38 750 213 654 38 z "},"Õ":{"ha":983,"x_min":0,"x_max":0,"o":"m 594 1054 b 724 1185 674 1054 724 1121 b 663 1250 724 1225 690 1250 b 599 1189 632 1250 604 1231 b 557 1143 594 1156 575 1143 b 386 1258 506 1143 490 1258 b 257 1128 307 1258 257 1192 b 318 1063 257 1088 290 1063 b 382 1124 349 1063 376 1082 b 424 1169 386 1157 406 1169 b 594 1054 475 1169 490 1054 z m 492 -28 b 925 479 738 -28 925 199 b 492 986 925 760 738 986 b 58 479 246 986 58 760 b 492 -28 58 199 246 -28 z m 492 38 b 233 479 329 38 233 213 b 492 921 233 746 329 921 b 750 479 654 921 750 746 b 492 38 750 213 654 38 z "},"Ö":{"ha":983,"x_min":0,"x_max":0,"o":"m 358 1100 b 446 1189 407 1100 446 1139 b 358 1276 446 1238 407 1276 b 269 1189 308 1276 269 1238 b 358 1100 269 1139 308 1100 z m 632 1100 b 719 1189 681 1100 719 1139 b 632 1276 719 1238 681 1276 b 543 1189 582 1276 543 1238 b 632 1100 543 1139 582 1100 z m 492 -28 b 925 479 738 -28 925 199 b 492 986 925 760 738 986 b 58 479 246 986 58 760 b 492 -28 58 199 246 -28 z m 492 38 b 233 479 329 38 233 213 b 492 921 233 746 329 921 b 750 479 654 921 750 746 b 492 38 750 213 654 38 z "},"×":{"ha":758,"x_min":0,"x_max":0,"o":"m 196 153 b 232 168 210 153 222 158 b 379 332 257 193 303 251 b 526 168 460 249 500 194 b 563 153 538 158 550 153 b 613 204 590 153 613 175 b 597 242 613 218 607 232 b 435 388 572 267 518 307 b 599 535 518 468 572 508 b 614 571 610 546 614 558 b 563 622 614 601 588 622 b 526 607 549 622 536 617 b 379 442 500 581 460 526 b 233 606 301 522 258 581 b 194 622 224 617 210 622 b 144 574 167 622 144 599 b 160 535 144 557 150 544 b 324 386 186 508 243 464 b 160 240 244 310 186 267 b 144 204 150 231 144 217 b 196 153 144 175 169 153 z "},"Ù":{"ha":979,"x_min":0,"x_max":0,"o":"m 371 1192 l 600 1010 l 631 1042 l 463 1269 b 399 1308 443 1294 426 1308 b 340 1250 367 1308 340 1282 b 371 1192 340 1226 351 1207 z m 506 -28 b 829 300 674 -28 829 78 l 829 872 l 931 910 b 957 942 944 915 957 924 b 924 969 957 958 943 972 b 790 958 882 964 833 958 b 656 969 746 958 697 964 b 622 942 636 972 622 958 b 649 910 622 924 635 915 l 750 872 l 750 307 b 519 53 750 131 646 53 b 288 301 400 53 288 113 l 288 872 l 389 910 b 415 942 403 915 415 924 b 382 969 415 958 401 972 b 218 958 331 963 268 958 b 54 969 168 958 106 963 b 21 942 35 972 21 958 b 47 910 21 924 33 915 l 149 872 l 149 286 b 506 -28 149 71 322 -28 z "},"Ú":{"ha":979,"x_min":0,"x_max":0,"o":"m 569 1269 l 401 1042 l 432 1010 l 661 1192 b 692 1250 681 1207 692 1226 b 633 1308 692 1282 665 1308 b 569 1269 606 1308 589 1294 z m 506 -28 b 829 300 674 -28 829 78 l 829 872 l 931 910 b 957 942 944 915 957 924 b 924 969 957 958 943 972 b 790 958 882 964 833 958 b 656 969 746 958 697 964 b 622 942 636 972 622 958 b 649 910 622 924 635 915 l 750 872 l 750 307 b 519 53 750 131 646 53 b 288 301 400 53 288 113 l 288 872 l 389 910 b 415 942 403 915 415 924 b 382 969 415 958 401 972 b 218 958 331 963 268 958 b 54 969 168 958 106 963 b 21 942 35 972 21 958 b 47 910 21 924 33 915 l 149 872 l 149 286 b 506 -28 149 71 322 -28 z "},"Û":{"ha":979,"x_min":0,"x_max":0,"o":"m 333 1038 b 383 1065 350 1038 368 1044 l 496 1222 l 535 1222 l 646 1065 b 694 1038 660 1046 678 1038 b 756 1097 726 1038 756 1061 b 725 1150 756 1115 746 1135 l 546 1285 b 514 1299 533 1294 524 1299 b 485 1286 506 1299 496 1294 l 303 1149 b 274 1096 281 1132 274 1114 b 333 1038 274 1064 301 1038 z m 506 -28 b 829 300 674 -28 829 78 l 829 872 l 931 910 b 957 942 944 915 957 924 b 924 969 957 958 943 972 b 790 958 882 964 833 958 b 656 969 746 958 697 964 b 622 942 636 972 622 958 b 649 910 622 924 635 915 l 750 872 l 750 307 b 519 53 750 131 646 53 b 288 301 400 53 288 113 l 288 872 l 389 910 b 415 942 403 915 415 924 b 382 969 415 958 401 972 b 218 958 331 963 268 958 b 54 969 168 958 106 963 b 21 942 35 972 21 958 b 47 910 21 924 33 915 l 149 872 l 149 286 b 506 -28 149 71 322 -28 z "},"Ü":{"ha":979,"x_min":0,"x_max":0,"o":"m 382 1072 b 469 1161 431 1072 469 1111 b 382 1249 469 1210 431 1249 b 293 1161 332 1249 293 1210 b 382 1072 293 1111 332 1072 z m 656 1072 b 743 1161 704 1072 743 1111 b 656 1249 743 1210 704 1249 b 567 1161 606 1249 567 1210 b 656 1072 567 1111 606 1072 z m 506 -28 b 829 300 674 -28 829 78 l 829 872 l 931 910 b 957 942 944 915 957 924 b 924 969 957 958 943 972 b 790 958 882 964 833 958 b 656 969 746 958 697 964 b 622 942 636 972 622 958 b 649 910 622 924 635 915 l 750 872 l 750 307 b 519 53 750 131 646 53 b 288 301 400 53 288 113 l 288 872 l 389 910 b 415 942 403 915 415 924 b 382 969 415 958 401 972 b 218 958 331 963 268 958 b 54 969 168 958 106 963 b 21 942 35 972 21 958 b 47 910 21 924 33 915 l 149 872 l 149 286 b 506 -28 149 71 322 -28 z "},"Ý":{"ha":933,"x_min":0,"x_max":0,"o":"m 564 1269 l 396 1042 l 426 1010 l 656 1192 b 686 1250 675 1207 686 1226 b 628 1308 686 1282 660 1308 b 564 1269 600 1308 583 1294 z m 307 -11 b 471 0 358 -4 421 0 b 635 -11 521 0 583 -4 b 668 17 654 -14 668 0 b 642 49 668 32 660 42 l 540 86 l 540 389 l 800 872 l 903 910 b 928 942 921 917 928 929 b 893 969 928 958 915 972 b 765 958 842 963 804 958 b 628 969 724 958 683 963 b 594 943 610 972 594 963 b 618 911 594 931 601 918 l 722 872 l 503 464 l 501 464 l 290 872 l 394 911 b 418 942 411 918 418 929 b 382 969 418 957 404 972 b 221 957 329 961 276 957 b 39 969 164 957 104 961 b 6 942 19 972 6 957 b 32 910 6 929 13 917 l 133 872 l 401 356 l 401 86 l 300 49 b 274 17 282 42 274 32 b 307 -11 274 -1 289 -14 z "},"à":{"ha":678,"x_min":0,"x_max":0,"o":"m 185 935 l 414 753 l 444 785 l 276 1013 b 213 1051 257 1038 240 1051 b 154 993 181 1051 154 1025 b 185 935 154 969 165 950 z m 232 -14 b 431 104 317 -14 388 28 l 436 104 b 568 -8 447 33 499 -8 b 685 88 628 -8 685 47 b 658 115 685 104 674 115 b 631 97 647 115 639 110 b 594 75 621 82 610 75 b 554 118 572 75 554 93 l 554 514 b 344 688 554 647 460 688 b 78 517 200 688 78 615 b 169 426 78 468 118 426 b 254 514 211 426 254 463 b 193 593 254 554 231 583 l 193 601 b 292 626 226 619 264 626 b 425 514 372 626 425 593 l 425 429 b 132 306 253 372 179 338 b 53 154 78 268 53 217 b 232 -14 53 58 131 -14 z m 285 78 b 190 176 217 78 190 126 b 425 369 190 267 274 324 l 425 271 b 285 78 425 147 351 78 z "},"á":{"ha":678,"x_min":0,"x_max":0,"o":"m 383 1013 l 215 785 l 246 753 l 475 935 b 506 993 494 950 506 969 b 447 1051 506 1025 479 1051 b 383 1013 419 1051 403 1038 z m 232 -14 b 431 104 317 -14 388 28 l 436 104 b 568 -8 447 33 499 -8 b 685 88 628 -8 685 47 b 658 115 685 104 674 115 b 631 97 647 115 639 110 b 594 75 621 82 610 75 b 554 118 572 75 554 93 l 554 514 b 344 688 554 647 460 688 b 78 517 200 688 78 615 b 169 426 78 468 118 426 b 254 514 211 426 254 463 b 193 593 254 554 231 583 l 193 601 b 292 626 226 619 264 626 b 425 514 372 626 425 593 l 425 429 b 132 306 253 372 179 338 b 53 154 78 268 53 217 b 232 -14 53 58 131 -14 z m 285 78 b 190 176 217 78 190 126 b 425 369 190 267 274 324 l 425 271 b 285 78 425 147 351 78 z "},"â":{"ha":678,"x_min":0,"x_max":0,"o":"m 147 781 b 197 808 164 781 182 788 l 310 965 l 349 965 l 460 808 b 508 781 474 789 492 781 b 569 840 540 781 569 804 b 539 893 569 858 560 878 l 360 1028 b 328 1042 347 1038 338 1042 b 299 1029 319 1042 310 1038 l 117 892 b 88 839 94 875 88 857 b 147 781 88 807 115 781 z m 232 -14 b 431 104 317 -14 388 28 l 436 104 b 568 -8 447 33 499 -8 b 685 88 628 -8 685 47 b 658 115 685 104 674 115 b 631 97 647 115 639 110 b 594 75 621 82 610 75 b 554 118 572 75 554 93 l 554 514 b 344 688 554 647 460 688 b 78 517 200 688 78 615 b 169 426 78 468 118 426 b 254 514 211 426 254 463 b 193 593 254 554 231 583 l 193 601 b 292 626 226 619 264 626 b 425 514 372 626 425 593 l 425 429 b 132 306 253 372 179 338 b 53 154 78 268 53 217 b 232 -14 53 58 131 -14 z m 285 78 b 190 176 217 78 190 126 b 425 369 190 267 274 324 l 425 271 b 285 78 425 147 351 78 z "},"ã":{"ha":678,"x_min":0,"x_max":0,"o":"m 432 769 b 561 900 511 769 561 836 b 500 965 561 940 528 965 b 436 904 469 965 442 946 b 394 858 432 871 413 858 b 224 974 343 858 328 974 b 94 843 144 974 94 907 b 156 778 94 803 128 778 b 219 839 186 778 214 797 b 261 885 224 872 243 885 b 432 769 313 885 328 769 z m 232 -14 b 431 104 317 -14 388 28 l 436 104 b 568 -8 447 33 499 -8 b 685 88 628 -8 685 47 b 658 115 685 104 674 115 b 631 97 647 115 639 110 b 594 75 621 82 610 75 b 554 118 572 75 554 93 l 554 514 b 344 688 554 647 460 688 b 78 517 200 688 78 615 b 169 426 78 468 118 426 b 254 514 211 426 254 463 b 193 593 254 554 231 583 l 193 601 b 292 626 226 619 264 626 b 425 514 372 626 425 593 l 425 429 b 132 306 253 372 179 338 b 53 154 78 268 53 217 b 232 -14 53 58 131 -14 z m 285 78 b 190 176 217 78 190 126 b 425 369 190 267 274 324 l 425 271 b 285 78 425 147 351 78 z "},"ä":{"ha":678,"x_min":0,"x_max":0,"o":"m 196 815 b 283 904 244 815 283 854 b 196 992 283 953 244 992 b 107 904 146 992 107 953 b 196 815 107 854 146 815 z m 469 815 b 557 904 518 815 557 854 b 469 992 557 953 518 992 b 381 904 419 992 381 953 b 469 815 381 854 419 815 z m 232 -14 b 431 104 317 -14 388 28 l 436 104 b 568 -8 447 33 499 -8 b 685 88 628 -8 685 47 b 658 115 685 104 674 115 b 631 97 647 115 639 110 b 594 75 621 82 610 75 b 554 118 572 75 554 93 l 554 514 b 344 688 554 647 460 688 b 78 517 200 688 78 615 b 169 426 78 468 118 426 b 254 514 211 426 254 463 b 193 593 254 554 231 583 l 193 601 b 292 626 226 619 264 626 b 425 514 372 626 425 593 l 425 429 b 132 306 253 372 179 338 b 53 154 78 268 53 217 b 232 -14 53 58 131 -14 z m 285 78 b 190 176 217 78 190 126 b 425 369 190 267 274 324 l 425 271 b 285 78 425 147 351 78 z "},"ç":{"ha":654,"x_min":0,"x_max":0,"o":"m 304 -324 b 469 -185 369 -324 469 -289 b 363 -86 469 -125 415 -86 b 300 -106 342 -86 317 -93 l 292 -99 l 332 -25 b 364 -26 349 -26 353 -26 b 625 178 542 -26 625 129 b 599 206 625 193 614 206 b 571 188 588 206 578 200 b 397 72 515 88 436 72 b 188 344 272 72 188 183 b 375 632 188 538 288 632 b 393 631 379 632 385 632 l 432 547 b 517 482 453 501 486 482 b 588 557 554 482 588 513 b 396 688 588 629 501 688 b 53 308 213 688 53 549 b 289 -18 53 135 153 15 l 224 -100 b 208 -133 213 -114 208 -124 b 239 -164 208 -150 222 -164 b 268 -149 249 -164 258 -158 b 314 -128 281 -136 292 -128 b 374 -197 349 -128 374 -154 b 285 -286 374 -269 317 -287 l 285 -261 b 233 -197 285 -212 263 -197 b 186 -244 204 -197 186 -221 b 304 -324 186 -308 253 -324 z "},"è":{"ha":675,"x_min":0,"x_max":0,"o":"m 214 935 l 443 753 l 474 785 l 306 1013 b 242 1051 286 1038 269 1051 b 183 993 210 1051 183 1025 b 214 935 183 969 194 950 z m 357 -26 b 622 140 497 -26 593 61 b 626 163 625 147 626 154 b 599 190 626 179 613 190 b 568 172 586 190 576 185 b 388 72 528 110 465 72 b 189 344 276 72 189 176 l 189 358 l 576 358 b 617 410 607 358 619 385 b 354 688 601 585 482 688 b 54 308 201 688 54 536 b 357 -26 54 104 186 -26 z m 468 424 l 193 424 b 351 633 208 550 260 633 b 468 424 431 633 471 561 z "},"é":{"ha":675,"x_min":0,"x_max":0,"o":"m 413 1013 l 244 785 l 275 753 l 504 935 b 535 993 524 950 535 969 b 476 1051 535 1025 508 1051 b 413 1013 449 1051 432 1038 z m 357 -26 b 622 140 497 -26 593 61 b 626 163 625 147 626 154 b 599 190 626 179 613 190 b 568 172 586 190 576 185 b 388 72 528 110 465 72 b 189 344 276 72 189 176 l 189 358 l 576 358 b 617 410 607 358 619 385 b 354 688 601 585 482 688 b 54 308 201 688 54 536 b 357 -26 54 104 186 -26 z m 468 424 l 193 424 b 351 633 208 550 260 633 b 468 424 431 633 471 561 z "},"ê":{"ha":675,"x_min":0,"x_max":0,"o":"m 176 781 b 226 808 193 781 211 788 l 339 965 l 378 965 l 489 808 b 538 781 503 789 521 781 b 599 840 569 781 599 804 b 568 893 599 858 589 878 l 389 1028 b 357 1042 376 1038 367 1042 b 328 1029 349 1042 339 1038 l 146 892 b 117 839 124 875 117 857 b 176 781 117 807 144 781 z m 357 -26 b 622 140 497 -26 593 61 b 626 163 625 147 626 154 b 599 190 626 179 613 190 b 568 172 586 190 576 185 b 388 72 528 110 465 72 b 189 344 276 72 189 176 l 189 358 l 576 358 b 617 410 607 358 619 385 b 354 688 601 585 482 688 b 54 308 201 688 54 536 b 357 -26 54 104 186 -26 z m 468 424 l 193 424 b 351 633 208 550 260 633 b 468 424 431 633 471 561 z "},"ë":{"ha":675,"x_min":0,"x_max":0,"o":"m 225 815 b 313 904 274 815 313 854 b 225 992 313 953 274 992 b 136 904 175 992 136 953 b 225 815 136 854 175 815 z m 499 815 b 586 904 547 815 586 854 b 499 992 586 953 547 992 b 410 904 449 992 410 953 b 499 815 410 854 449 815 z m 357 -26 b 622 140 497 -26 593 61 b 626 163 625 147 626 154 b 599 190 626 179 613 190 b 568 172 586 190 576 185 b 388 72 528 110 465 72 b 189 344 276 72 189 176 l 189 358 l 576 358 b 617 410 607 358 619 385 b 354 688 601 585 482 688 b 54 308 201 688 54 536 b 357 -26 54 104 186 -26 z m 468 424 l 193 424 b 351 633 208 550 260 633 b 468 424 431 633 471 561 z "},"ì":{"ha":406,"x_min":0,"x_max":0,"o":"m 57 935 l 286 753 l 317 785 l 149 1013 b 85 1051 129 1038 113 1051 b 26 993 53 1051 26 1025 b 57 935 26 969 38 950 z m 89 -8 b 213 0 136 -3 165 0 b 338 -8 264 0 303 -4 b 368 19 356 -11 368 4 b 347 49 368 31 361 43 l 278 78 l 278 576 b 282 657 278 626 282 642 b 251 688 282 675 269 688 b 229 681 243 688 236 685 b 57 632 186 656 160 644 b 31 603 39 629 31 615 b 53 574 31 590 38 578 l 149 546 l 149 78 l 79 49 b 58 19 64 42 58 31 b 89 -8 58 4 71 -11 z "},"í":{"ha":406,"x_min":0,"x_max":0,"o":"m 256 1013 l 88 785 l 118 753 l 347 935 b 378 993 367 950 378 969 b 319 1051 378 1025 351 1051 b 256 1013 292 1051 275 1038 z m 89 -8 b 213 0 136 -3 165 0 b 338 -8 264 0 303 -4 b 368 19 356 -11 368 4 b 347 49 368 31 361 43 l 278 78 l 278 576 b 282 657 278 626 282 642 b 251 688 282 675 269 688 b 229 681 243 688 236 685 b 57 632 186 656 160 644 b 31 603 39 629 31 615 b 53 574 31 590 38 578 l 149 546 l 149 78 l 79 49 b 58 19 64 42 58 31 b 89 -8 58 4 71 -11 z "},"î":{"ha":406,"x_min":0,"x_max":0,"o":"m 19 781 b 69 808 36 781 54 788 l 182 965 l 221 965 l 332 808 b 381 781 346 789 364 781 b 442 840 413 781 442 804 b 411 893 442 858 432 878 l 232 1028 b 200 1042 219 1038 210 1042 b 171 1029 192 1042 182 1038 l -11 892 b -40 839 -33 875 -40 857 b 19 781 -40 807 -12 781 z m 89 -8 b 213 0 136 -3 165 0 b 338 -8 264 0 303 -4 b 368 19 356 -11 368 4 b 347 49 368 31 361 43 l 278 78 l 278 576 b 282 657 278 626 282 642 b 251 688 282 675 269 688 b 229 681 243 688 236 685 b 57 632 186 656 160 644 b 31 603 39 629 31 615 b 53 574 31 590 38 578 l 149 546 l 149 78 l 79 49 b 58 19 64 42 58 31 b 89 -8 58 4 71 -11 z "},"ï":{"ha":406,"x_min":0,"x_max":0,"o":"m 82 815 b 169 904 131 815 169 854 b 82 992 169 953 131 992 b -7 904 32 992 -7 953 b 82 815 -7 854 32 815 z m 328 815 b 415 904 376 815 415 854 b 328 992 415 953 376 992 b 239 904 278 992 239 953 b 328 815 239 854 278 815 z m 89 -8 b 213 0 136 -3 165 0 b 338 -8 264 0 303 -4 b 368 19 356 -11 368 4 b 347 49 368 31 361 43 l 278 78 l 278 576 b 282 657 278 626 282 642 b 251 688 282 675 269 688 b 229 681 243 688 236 685 b 57 632 186 656 160 644 b 31 603 39 629 31 615 b 53 574 31 590 38 578 l 149 546 l 149 78 l 79 49 b 58 19 64 42 58 31 b 89 -8 58 4 71 -11 z "},"ñ":{"ha":794,"x_min":0,"x_max":0,"o":"m 486 769 b 615 900 565 769 615 836 b 554 965 615 940 582 965 b 490 904 524 965 496 946 b 449 858 486 871 467 858 b 278 974 397 858 382 974 b 149 843 199 974 149 907 b 210 778 149 803 182 778 b 274 839 240 778 268 797 b 315 885 278 872 297 885 b 486 769 367 885 382 769 z m 89 -8 b 213 0 136 -3 165 0 b 338 -8 264 0 303 -4 b 368 19 356 -11 368 4 b 347 49 368 31 361 43 l 278 78 l 278 488 b 475 589 343 543 421 589 b 540 474 515 589 540 568 l 540 78 l 471 49 b 450 19 456 42 450 31 b 481 -8 450 4 463 -11 b 604 0 528 -3 557 0 b 729 -8 656 0 694 -4 b 760 19 747 -11 760 4 b 739 49 760 31 753 43 l 669 78 l 669 504 b 521 688 669 617 619 688 b 279 558 417 688 335 611 l 278 558 l 278 576 b 282 657 278 626 282 642 b 251 688 282 675 269 688 b 229 681 243 688 236 685 b 57 632 186 656 160 644 b 31 603 39 629 31 615 b 53 574 31 590 38 578 l 149 546 l 149 78 l 79 49 b 58 19 64 42 58 31 b 89 -8 58 4 71 -11 z "},"ò":{"ha":736,"x_min":0,"x_max":0,"o":"m 224 935 l 453 753 l 483 785 l 315 1013 b 251 1051 296 1038 279 1051 b 193 993 219 1051 193 1025 b 224 935 193 969 204 950 z m 368 -28 b 683 331 542 -28 683 132 b 368 688 683 529 542 688 b 53 331 194 688 53 529 b 368 -28 53 132 194 -28 z m 368 29 b 203 331 271 29 203 136 b 368 631 203 525 271 631 b 533 331 465 631 533 525 b 368 29 533 136 465 29 z "},"ó":{"ha":736,"x_min":0,"x_max":0,"o":"m 422 1013 l 254 785 l 285 753 l 514 935 b 544 993 533 950 544 969 b 486 1051 544 1025 518 1051 b 422 1013 458 1051 442 1038 z m 368 -28 b 683 331 542 -28 683 132 b 368 688 683 529 542 688 b 53 331 194 688 53 529 b 368 -28 53 132 194 -28 z m 368 29 b 203 331 271 29 203 136 b 368 631 203 525 271 631 b 533 331 465 631 533 525 b 368 29 533 136 465 29 z "},"ô":{"ha":736,"x_min":0,"x_max":0,"o":"m 186 781 b 236 808 203 781 221 788 l 349 965 l 388 965 l 499 808 b 547 781 513 789 531 781 b 608 840 579 781 608 804 b 578 893 608 858 599 878 l 399 1028 b 367 1042 386 1038 376 1042 b 338 1029 358 1042 349 1038 l 156 892 b 126 839 133 875 126 857 b 186 781 126 807 154 781 z m 368 -28 b 683 331 542 -28 683 132 b 368 688 683 529 542 688 b 53 331 194 688 53 529 b 368 -28 53 132 194 -28 z m 368 29 b 203 331 271 29 203 136 b 368 631 203 525 271 631 b 533 331 465 631 533 525 b 368 29 533 136 465 29 z "},"õ":{"ha":736,"x_min":0,"x_max":0,"o":"m 471 769 b 600 900 550 769 600 836 b 539 965 600 940 567 965 b 475 904 508 965 481 946 b 433 858 471 871 451 858 b 263 974 382 858 367 974 b 133 843 183 974 133 907 b 194 778 133 803 167 778 b 258 839 225 778 253 797 b 300 885 263 872 282 885 b 471 769 351 885 367 769 z m 368 -28 b 683 331 542 -28 683 132 b 368 688 683 529 542 688 b 53 331 194 688 53 529 b 368 -28 53 132 194 -28 z m 368 29 b 203 331 271 29 203 136 b 368 631 203 525 271 631 b 533 331 465 631 533 525 b 368 29 533 136 465 29 z "},"ö":{"ha":736,"x_min":0,"x_max":0,"o":"m 235 815 b 322 904 283 815 322 854 b 235 992 322 953 283 992 b 146 904 185 992 146 953 b 235 815 146 854 185 815 z m 508 815 b 596 904 557 815 596 854 b 508 992 596 953 557 992 b 419 904 458 992 419 953 b 508 815 419 854 458 815 z m 368 -28 b 683 331 542 -28 683 132 b 368 688 683 529 542 688 b 53 331 194 688 53 529 b 368 -28 53 132 194 -28 z m 368 29 b 203 331 271 29 203 136 b 368 631 203 525 271 631 b 533 331 465 631 533 525 b 368 29 533 136 465 29 z "},"÷":{"ha":758,"x_min":0,"x_max":0,"o":"m 379 499 b 464 585 426 499 464 536 b 379 669 464 632 426 669 b 293 585 331 669 293 632 b 379 499 293 536 331 499 z m 93 313 b 379 325 136 313 208 325 b 665 313 550 325 622 313 b 717 364 693 313 717 336 b 665 415 717 392 693 415 b 379 403 622 415 550 403 b 93 415 208 403 136 415 b 42 364 65 415 42 392 b 93 313 42 336 65 313 z m 379 58 b 464 144 426 58 464 96 b 379 229 464 192 426 229 b 293 144 331 229 293 192 b 379 58 293 96 331 58 z "},"ù":{"ha":785,"x_min":0,"x_max":0,"o":"m 244 935 l 474 753 l 504 785 l 336 1013 b 272 1051 317 1038 300 1051 b 214 993 240 1051 214 1025 b 244 935 214 969 225 950 z m 282 -14 b 526 121 388 -14 471 69 l 528 121 b 521 18 529 76 521 51 b 556 -10 521 1 532 -14 b 724 6 608 0 675 4 b 754 35 743 7 754 21 b 733 63 754 46 747 57 l 650 94 l 650 576 b 654 657 650 626 654 642 b 624 688 654 675 642 688 b 601 681 615 688 608 685 b 429 632 558 656 532 644 b 403 603 411 629 403 615 b 425 574 403 590 410 578 l 521 546 l 521 188 b 325 85 460 135 383 85 b 261 183 282 85 261 110 l 261 576 b 265 657 261 625 265 642 b 235 688 265 675 253 688 b 213 681 226 688 219 685 b 51 632 165 653 149 647 b 25 603 33 629 25 615 b 47 574 25 590 32 578 l 132 546 l 132 169 b 282 -14 132 57 182 -14 z "},"ú":{"ha":785,"x_min":0,"x_max":0,"o":"m 443 1013 l 275 785 l 306 753 l 535 935 b 565 993 554 950 565 969 b 507 1051 565 1025 539 1051 b 443 1013 479 1051 463 1038 z m 282 -14 b 526 121 388 -14 471 69 l 528 121 b 521 18 529 76 521 51 b 556 -10 521 1 532 -14 b 724 6 608 0 675 4 b 754 35 743 7 754 21 b 733 63 754 46 747 57 l 650 94 l 650 576 b 654 657 650 626 654 642 b 624 688 654 675 642 688 b 601 681 615 688 608 685 b 429 632 558 656 532 644 b 403 603 411 629 403 615 b 425 574 403 590 410 578 l 521 546 l 521 188 b 325 85 460 135 383 85 b 261 183 282 85 261 110 l 261 576 b 265 657 261 625 265 642 b 235 688 265 675 253 688 b 213 681 226 688 219 685 b 51 632 165 653 149 647 b 25 603 33 629 25 615 b 47 574 25 590 32 578 l 132 546 l 132 169 b 282 -14 132 57 182 -14 z "},"û":{"ha":785,"x_min":0,"x_max":0,"o":"m 207 781 b 257 808 224 781 242 788 l 369 965 l 408 965 l 519 808 b 568 781 533 789 551 781 b 629 840 600 781 629 804 b 599 893 629 858 619 878 l 419 1028 b 388 1042 407 1038 397 1042 b 358 1029 379 1042 369 1038 l 176 892 b 147 839 154 875 147 857 b 207 781 147 807 175 781 z m 282 -14 b 526 121 388 -14 471 69 l 528 121 b 521 18 529 76 521 51 b 556 -10 521 1 532 -14 b 724 6 608 0 675 4 b 754 35 743 7 754 21 b 733 63 754 46 747 57 l 650 94 l 650 576 b 654 657 650 626 654 642 b 624 688 654 675 642 688 b 601 681 615 688 608 685 b 429 632 558 656 532 644 b 403 603 411 629 403 615 b 425 574 403 590 410 578 l 521 546 l 521 188 b 325 85 460 135 383 85 b 261 183 282 85 261 110 l 261 576 b 265 657 261 625 265 642 b 235 688 265 675 253 688 b 213 681 226 688 219 685 b 51 632 165 653 149 647 b 25 603 33 629 25 615 b 47 574 25 590 32 578 l 132 546 l 132 169 b 282 -14 132 57 182 -14 z "},"ü":{"ha":785,"x_min":0,"x_max":0,"o":"m 256 815 b 343 904 304 815 343 854 b 256 992 343 953 304 992 b 167 904 206 992 167 953 b 256 815 167 854 206 815 z m 529 815 b 617 904 578 815 617 854 b 529 992 617 953 578 992 b 440 904 479 992 440 953 b 529 815 440 854 479 815 z m 282 -14 b 526 121 388 -14 471 69 l 528 121 b 521 18 529 76 521 51 b 556 -10 521 1 532 -14 b 724 6 608 0 675 4 b 754 35 743 7 754 21 b 733 63 754 46 747 57 l 650 94 l 650 576 b 654 657 650 626 654 642 b 624 688 654 675 642 688 b 601 681 615 688 608 685 b 429 632 558 656 532 644 b 403 603 411 629 403 615 b 425 574 403 590 410 578 l 521 546 l 521 188 b 325 85 460 135 383 85 b 261 183 282 85 261 110 l 261 576 b 265 657 261 625 265 642 b 235 688 265 675 253 688 b 213 681 226 688 219 685 b 51 632 165 653 149 647 b 25 603 33 629 25 615 b 47 574 25 590 32 578 l 132 546 l 132 169 b 282 -14 132 57 182 -14 z "},"ý":{"ha":722,"x_min":0,"x_max":0,"o":"m 436 1013 l 268 785 l 299 753 l 528 935 b 558 993 547 950 558 969 b 500 1051 558 1025 532 1051 b 436 1013 472 1051 456 1038 z m 215 -306 b 308 -221 257 -306 286 -279 l 607 579 l 699 611 b 722 642 714 617 722 629 b 686 669 722 658 708 674 b 571 660 649 664 610 660 b 457 669 533 660 494 664 b 424 640 436 672 424 657 b 447 611 424 629 431 617 l 539 579 l 393 188 l 390 188 l 232 589 l 300 614 b 319 642 313 618 319 631 b 285 669 319 657 307 672 b 164 661 250 664 207 661 b 43 669 122 661 79 664 b 10 642 22 672 10 657 b 31 613 10 631 17 618 l 92 589 l 324 1 l 267 -151 b 215 -132 251 -139 233 -132 b 126 -217 167 -132 126 -172 b 215 -306 126 -265 167 -306 z "},"ÿ":{"ha":722,"x_min":0,"x_max":0,"o":"m 249 815 b 336 904 297 815 336 854 b 249 992 336 953 297 992 b 160 904 199 992 160 953 b 249 815 160 854 199 815 z m 522 815 b 610 904 571 815 610 854 b 522 992 610 953 571 992 b 433 904 472 992 433 953 b 522 815 433 854 472 815 z m 215 -306 b 308 -221 257 -306 286 -279 l 607 579 l 699 611 b 722 642 714 617 722 629 b 686 669 722 658 708 674 b 571 660 649 664 610 660 b 457 669 533 660 494 664 b 424 640 436 672 424 657 b 447 611 424 629 431 617 l 539 579 l 393 188 l 390 188 l 232 589 l 300 614 b 319 642 313 618 319 631 b 285 669 319 657 307 672 b 164 661 250 664 207 661 b 43 669 122 661 79 664 b 10 642 22 672 10 657 b 31 613 10 631 17 618 l 92 589 l 324 1 l 267 -151 b 215 -132 251 -139 233 -132 b 126 -217 167 -132 126 -172 b 215 -306 126 -265 167 -306 z "},"ā":{"ha":678,"x_min":0,"x_max":0,"o":"m 232 -14 b 431 104 317 -14 388 28 l 436 104 b 568 -8 447 33 499 -8 b 685 88 628 -8 685 47 b 658 115 685 104 674 115 b 631 97 647 115 639 110 b 594 75 621 82 610 75 b 554 118 572 75 554 93 l 554 514 b 344 688 554 647 460 688 b 78 517 200 688 78 615 b 169 426 78 468 118 426 b 254 514 211 426 254 463 b 193 593 254 554 231 583 l 193 601 b 292 626 226 619 264 626 b 425 514 372 626 425 593 l 425 429 b 132 306 253 372 179 338 b 53 154 78 268 53 217 b 232 -14 53 58 131 -14 z m 285 78 b 190 176 217 78 190 126 b 425 369 190 267 274 324 l 425 271 b 285 78 425 147 351 78 z m 176 821 b 328 829 239 826 289 829 b 479 821 367 829 417 826 b 539 872 519 818 539 846 b 479 924 539 900 519 926 b 328 915 417 919 367 915 b 176 924 289 915 239 919 b 117 872 136 926 117 900 b 176 821 117 846 136 818 z "},"ć":{"ha":654,"x_min":0,"x_max":0,"o":"m 421 1013 l 253 785 l 283 753 l 513 935 b 543 993 532 950 543 969 b 485 1051 543 1025 517 1051 b 421 1013 457 1051 440 1038 z m 364 -26 b 625 178 542 -26 625 129 b 599 206 625 193 614 206 b 571 188 588 206 578 200 b 397 72 515 88 436 72 b 188 344 272 72 188 183 b 375 632 188 538 288 632 b 393 631 379 632 385 632 l 432 547 b 517 482 453 501 486 482 b 588 557 554 482 588 513 b 396 688 588 629 501 688 b 53 308 213 688 53 549 b 364 -26 53 104 192 -26 z "},"Č":{"ha":883,"x_min":0,"x_max":0,"o":"m 289 1269 b 229 1211 257 1269 229 1243 b 258 1158 229 1193 236 1175 l 440 1021 b 469 1008 451 1013 461 1008 b 501 1022 479 1008 489 1013 l 681 1157 b 711 1210 701 1172 711 1192 b 650 1269 711 1246 682 1269 b 601 1242 633 1269 615 1261 l 490 1085 l 451 1085 l 339 1242 b 289 1269 324 1263 306 1269 z m 490 -28 b 850 263 771 -28 850 232 b 819 294 850 286 831 294 b 788 271 807 294 794 288 b 521 90 729 142 632 90 b 210 521 365 90 210 244 b 478 907 210 746 329 907 b 757 721 588 907 689 843 b 783 704 763 710 774 704 b 813 758 810 704 822 731 b 772 946 793 818 779 888 b 738 983 769 972 754 983 b 713 976 729 983 721 981 l 628 933 b 472 976 585 958 536 976 b 58 482 232 976 58 740 b 490 -28 58 181 244 -28 z "},"č":{"ha":654,"x_min":0,"x_max":0,"o":"m 185 1013 b 125 954 153 1013 125 986 b 154 901 125 936 132 918 l 336 764 b 365 751 347 756 357 751 b 397 765 375 751 385 756 l 576 900 b 607 953 597 915 607 935 b 546 1013 607 989 578 1013 b 497 985 529 1013 511 1004 l 386 828 l 347 828 l 235 985 b 185 1013 219 1006 201 1013 z m 364 -26 b 625 178 542 -26 625 129 b 599 206 625 193 614 206 b 571 188 588 206 578 200 b 397 72 515 88 436 72 b 188 344 272 72 188 183 b 375 632 188 538 288 632 b 393 631 379 632 385 632 l 432 547 b 517 482 453 501 486 482 b 588 557 554 482 588 513 b 396 688 588 629 501 688 b 53 308 213 688 53 549 b 364 -26 53 104 192 -26 z "},"ē":{"ha":675,"x_min":0,"x_max":0,"o":"m 357 -26 b 622 140 497 -26 593 61 b 626 163 625 147 626 154 b 599 190 626 179 613 190 b 568 172 586 190 576 185 b 388 72 528 110 465 72 b 189 344 276 72 189 176 l 189 358 l 576 358 b 617 410 607 358 619 385 b 354 688 601 585 482 688 b 54 308 201 688 54 536 b 357 -26 54 104 186 -26 z m 468 424 l 193 424 b 351 633 208 550 260 633 b 468 424 431 633 471 561 z m 200 821 b 351 829 263 826 313 829 b 503 821 390 829 440 826 b 563 872 543 818 563 846 b 503 924 563 900 543 926 b 351 915 440 919 390 915 b 200 924 313 915 263 919 b 140 872 160 926 140 900 b 200 821 140 846 160 818 z "},"Ě":{"ha":906,"x_min":0,"x_max":0,"o":"m 267 1269 b 207 1211 235 1269 207 1243 b 236 1158 207 1193 214 1175 l 418 1021 b 447 1008 429 1013 439 1008 b 479 1022 457 1008 467 1013 l 658 1157 b 689 1210 679 1172 689 1192 b 628 1269 689 1246 660 1269 b 579 1242 611 1269 593 1261 l 468 1085 l 429 1085 l 317 1242 b 267 1269 301 1263 283 1269 z m 81 -11 b 243 0 131 -4 193 0 l 632 0 b 708 -4 664 0 692 -3 l 747 -8 b 800 32 778 -11 794 3 b 853 207 813 97 828 151 b 863 240 860 224 863 231 b 832 269 863 257 849 269 b 799 249 819 269 808 264 b 410 65 711 104 636 65 b 313 142 367 65 313 82 l 313 438 l 519 438 l 575 289 b 604 268 581 275 593 268 b 635 299 619 268 635 279 b 626 469 635 326 626 383 b 635 640 626 556 635 613 b 604 671 635 660 619 671 b 575 650 593 671 581 664 l 519 501 l 313 501 l 313 825 b 417 893 313 888 369 893 b 778 714 631 893 689 840 b 808 697 788 701 797 697 b 839 728 825 697 839 710 b 831 757 839 736 836 744 b 789 929 806 817 796 864 b 733 967 786 958 768 971 l 697 963 b 638 958 676 960 658 958 l 243 958 b 79 969 193 958 131 963 b 46 942 60 972 46 958 b 72 910 46 924 58 915 l 174 872 l 174 86 l 72 49 b 46 17 54 42 46 32 b 81 -11 46 -1 60 -14 z "},"ě":{"ha":675,"x_min":0,"x_max":0,"o":"m 176 1013 b 117 954 144 1013 117 986 b 146 901 117 936 124 918 l 328 764 b 357 751 339 756 349 751 b 389 765 367 751 376 756 l 568 900 b 599 953 589 915 599 935 b 538 1013 599 989 569 1013 b 489 985 521 1013 503 1004 l 378 828 l 339 828 l 226 985 b 176 1013 211 1006 193 1013 z m 357 -26 b 622 140 497 -26 593 61 b 626 163 625 147 626 154 b 599 190 626 179 613 190 b 568 172 586 190 576 185 b 388 72 528 110 465 72 b 189 344 276 72 189 176 l 189 358 l 576 358 b 617 410 607 358 619 385 b 354 688 601 585 482 688 b 54 308 201 688 54 536 b 357 -26 54 104 186 -26 z m 468 424 l 193 424 b 351 633 208 550 260 633 b 468 424 431 633 471 561 z "},"ī":{"ha":406,"x_min":0,"x_max":0,"o":"m 89 -8 b 213 0 136 -3 165 0 b 338 -8 264 0 303 -4 b 368 19 356 -11 368 4 b 347 49 368 31 361 43 l 278 78 l 278 576 b 282 657 278 626 282 642 b 251 688 282 675 269 688 b 229 681 243 688 236 685 b 57 632 186 656 160 644 b 31 603 39 629 31 615 b 53 574 31 590 38 578 l 149 546 l 149 78 l 79 49 b 58 19 64 42 58 31 b 89 -8 58 4 71 -11 z m 49 821 b 200 829 111 826 161 829 b 351 821 239 829 289 826 b 411 872 392 818 411 846 b 351 924 411 900 392 926 b 200 915 289 919 239 915 b 49 924 161 915 111 919 b -11 872 8 926 -11 900 b 49 821 -11 846 8 818 z "},"į":{"ha":401,"x_min":0,"x_max":0,"o":"m 197 817 b 285 906 246 817 285 856 b 197 993 285 954 246 993 b 108 906 147 993 108 954 b 197 817 108 856 147 817 z m 176 -286 b 282 -203 232 -286 282 -249 b 229 -151 282 -167 251 -151 b 157 -171 201 -151 190 -171 b 97 -111 125 -171 97 -150 b 236 0 97 -47 149 0 b 333 -8 263 0 299 -4 b 364 19 351 -11 364 4 b 343 49 364 31 357 43 l 274 78 l 274 576 b 278 657 274 626 278 642 b 247 688 278 675 265 688 b 225 681 239 688 232 685 b 53 632 182 656 156 644 b 26 603 35 629 26 615 b 49 574 26 590 33 578 l 144 546 l 144 133 b 28 -139 144 24 28 -14 b 176 -286 28 -231 96 -286 z "},"Ľ":{"ha":797,"x_min":0,"x_max":0,"o":"m 563 713 b 588 722 569 713 578 715 b 715 969 658 776 715 879 b 624 1076 715 1039 669 1076 b 538 993 574 1076 538 1038 b 619 906 538 942 576 915 b 543 767 617 872 597 821 b 532 743 535 760 532 751 b 563 713 532 726 544 713 z m 79 -11 b 243 0 131 -4 193 0 l 565 0 b 626 -4 582 0 610 -1 l 663 -8 b 715 32 693 -12 710 3 b 771 207 728 99 746 151 b 781 239 778 224 781 228 b 750 269 781 257 767 269 b 717 249 738 269 726 264 b 417 65 626 106 553 65 b 313 133 369 65 313 71 l 313 872 l 414 910 b 440 942 428 915 440 924 b 407 969 440 958 426 972 b 243 958 356 963 293 958 b 79 969 193 958 131 963 b 46 942 60 972 46 958 b 72 910 46 924 58 915 l 174 872 l 174 86 l 72 49 b 46 17 58 43 46 35 b 79 -11 46 0 60 -14 z "},"ľ":{"ha":385,"x_min":0,"x_max":0,"o":"m 342 713 b 367 722 349 713 357 715 b 494 969 438 776 494 879 b 403 1076 494 1039 449 1076 b 317 993 353 1076 317 1038 b 399 906 317 942 356 915 b 322 767 396 872 376 821 b 311 743 314 760 311 751 b 342 713 311 726 324 713 z m 68 -8 b 192 0 115 -3 144 0 b 317 -8 243 0 282 -4 b 347 19 335 -11 347 4 b 326 49 347 31 340 43 l 257 78 l 257 908 b 261 989 257 958 261 974 b 231 1019 261 1007 249 1019 b 208 1013 222 1019 215 1017 b 36 964 165 988 139 979 b 10 935 18 961 10 947 b 32 906 10 922 17 910 l 128 878 l 128 78 l 58 49 b 38 19 43 42 38 31 b 68 -8 38 4 50 -11 z "},"ń":{"ha":794,"x_min":0,"x_max":0,"o":"m 438 1013 l 269 785 l 300 753 l 529 935 b 560 993 549 950 560 969 b 501 1051 560 1025 533 1051 b 438 1013 474 1051 457 1038 z m 89 -8 b 213 0 136 -3 165 0 b 338 -8 264 0 303 -4 b 368 19 356 -11 368 4 b 347 49 368 31 361 43 l 278 78 l 278 488 b 475 589 343 543 421 589 b 540 474 515 589 540 568 l 540 78 l 471 49 b 450 19 456 42 450 31 b 481 -8 450 4 463 -11 b 604 0 528 -3 557 0 b 729 -8 656 0 694 -4 b 760 19 747 -11 760 4 b 739 49 760 31 753 43 l 669 78 l 669 504 b 521 688 669 617 619 688 b 279 558 417 688 335 611 l 278 558 l 278 576 b 282 657 278 626 282 642 b 251 688 282 675 269 688 b 229 681 243 688 236 685 b 57 632 186 656 160 644 b 31 603 39 629 31 615 b 53 574 31 590 38 578 l 149 546 l 149 78 l 79 49 b 58 19 64 42 58 31 b 89 -8 58 4 71 -11 z "},"ō":{"ha":736,"x_min":0,"x_max":0,"o":"m 368 -28 b 683 331 542 -28 683 132 b 368 688 683 529 542 688 b 53 331 194 688 53 529 b 368 -28 53 132 194 -28 z m 368 29 b 203 331 271 29 203 136 b 368 631 203 525 271 631 b 533 331 465 631 533 525 b 368 29 533 136 465 29 z m 218 821 b 369 829 281 826 331 829 b 521 821 408 829 458 826 b 581 872 561 818 581 846 b 521 924 581 900 561 926 b 369 915 458 919 408 915 b 218 924 331 915 281 919 b 158 872 178 926 158 900 b 218 821 158 846 178 818 z "},"Ő":{"ha":983,"x_min":0,"x_max":0,"o":"m 543 1288 l 313 1082 l 338 1046 l 601 1199 b 635 1250 625 1213 635 1232 b 582 1303 635 1275 617 1303 b 543 1288 569 1303 556 1299 z m 767 1288 l 536 1082 l 561 1046 l 825 1199 b 858 1250 849 1213 858 1232 b 806 1303 858 1275 840 1303 b 767 1288 793 1303 779 1299 z m 492 -28 b 925 479 738 -28 925 199 b 492 986 925 760 738 986 b 58 479 246 986 58 760 b 492 -28 58 199 246 -28 z m 492 38 b 233 479 329 38 233 213 b 492 921 233 746 329 921 b 750 479 654 921 750 746 b 492 38 750 213 654 38 z "},"ő":{"ha":736,"x_min":0,"x_max":0,"o":"m 419 1003 l 189 797 l 214 761 l 478 914 b 511 965 501 928 511 947 b 458 1018 511 990 493 1018 b 419 1003 446 1018 432 1014 z m 643 1003 l 413 797 l 438 761 l 701 914 b 735 965 725 928 735 947 b 682 1018 735 990 717 1018 b 643 1003 669 1018 656 1014 z m 368 -28 b 683 331 542 -28 683 132 b 368 688 683 529 542 688 b 53 331 194 688 53 529 b 368 -28 53 132 194 -28 z m 368 29 b 203 331 271 29 203 136 b 368 631 203 525 271 631 b 533 331 465 631 533 525 b 368 29 533 136 465 29 z "},"Ř":{"ha":918,"x_min":0,"x_max":0,"o":"m 253 1304 b 193 1246 221 1304 193 1278 b 222 1193 193 1228 200 1210 l 404 1056 b 433 1043 415 1047 425 1043 b 465 1057 443 1043 453 1047 l 644 1192 b 675 1244 665 1207 675 1226 b 614 1304 675 1281 646 1304 b 565 1276 597 1304 579 1296 l 454 1119 l 415 1119 l 303 1276 b 253 1304 288 1297 269 1304 z m 765 -29 b 897 42 825 -29 871 -1 b 907 69 904 53 907 63 b 879 97 907 88 893 97 b 856 85 871 97 861 93 b 808 58 844 68 828 58 b 758 104 782 58 763 76 l 733 301 b 560 481 721 403 679 460 l 560 488 b 806 722 711 506 806 599 b 469 968 806 876 681 968 b 243 958 394 968 346 958 b 79 969 193 958 131 963 b 46 942 60 972 46 958 b 72 910 46 924 58 915 l 174 872 l 174 86 l 72 49 b 46 17 58 43 46 35 b 79 -11 46 -1 58 -11 b 243 0 131 -4 193 0 b 407 -11 293 0 356 -4 b 440 17 426 -14 440 0 b 414 49 440 35 428 43 l 313 86 l 313 458 l 425 458 b 572 333 499 458 560 425 l 596 146 b 765 -29 613 24 678 -29 z m 431 524 l 313 524 l 313 797 b 464 899 313 878 365 899 b 650 724 583 899 650 826 b 431 524 650 596 567 524 z "},"ř":{"ha":590,"x_min":0,"x_max":0,"o":"m 132 1013 b 72 954 100 1013 72 986 b 101 901 72 936 79 918 l 283 764 b 313 751 294 756 304 751 b 344 765 322 751 332 756 l 524 900 b 554 953 544 915 554 935 b 493 1013 554 989 525 1013 b 444 985 476 1013 458 1004 l 333 828 l 294 828 l 182 985 b 132 1013 167 1006 149 1013 z m 89 -8 b 226 0 135 -3 181 0 b 389 -8 279 0 332 -3 b 444 38 426 -12 444 13 b 385 83 444 65 424 89 l 286 67 l 278 75 l 278 426 b 400 565 317 490 360 535 b 486 508 413 531 447 508 b 571 596 529 508 571 546 b 476 685 571 642 533 685 b 279 510 390 685 335 600 l 278 510 l 278 576 b 282 657 278 626 282 642 b 251 688 282 675 269 688 b 229 681 243 688 236 685 b 57 632 186 656 160 644 b 31 603 39 629 31 615 b 53 574 31 590 38 578 l 149 546 l 149 78 l 79 49 b 58 19 65 43 58 31 b 89 -8 58 4 71 -11 z "},"ś":{"ha":621,"x_min":0,"x_max":0,"o":"m 350 1013 l 182 785 l 213 753 l 442 935 b 472 993 461 950 472 969 b 414 1051 472 1025 446 1051 b 350 1013 386 1051 369 1038 z m 117 -24 b 142 -14 125 -24 131 -21 l 207 26 b 357 -19 251 0 292 -19 b 567 192 476 -19 567 76 b 403 393 567 286 513 358 l 275 433 b 164 542 194 458 164 500 b 267 629 164 590 200 629 b 485 472 339 629 417 572 b 510 458 492 463 500 458 b 535 485 522 458 535 468 b 525 521 535 496 529 507 b 494 668 511 561 501 613 b 469 696 492 686 482 696 b 446 686 463 696 457 694 l 392 646 b 268 689 350 675 310 689 b 69 500 157 689 69 603 b 238 294 69 392 131 328 l 358 257 b 465 143 429 235 465 194 b 358 44 465 88 419 44 b 110 210 265 44 175 104 b 82 228 101 222 93 228 b 56 200 67 228 56 215 b 60 182 56 196 57 189 b 94 4 83 121 90 79 b 117 -24 96 -17 107 -24 z "},"Š":{"ha":790,"x_min":0,"x_max":0,"o":"m 210 1297 b 150 1239 178 1297 150 1271 b 179 1186 150 1221 157 1203 l 361 1049 b 390 1036 372 1040 382 1036 b 422 1050 400 1036 410 1040 l 601 1185 b 632 1238 622 1200 632 1219 b 571 1297 632 1274 603 1297 b 522 1269 554 1297 536 1289 l 411 1113 l 372 1113 l 260 1269 b 210 1297 244 1290 226 1297 z m 447 -29 b 738 263 607 -29 738 88 b 486 558 738 403 643 504 l 338 610 b 197 775 254 639 197 692 b 357 924 197 864 261 924 b 636 728 458 924 542 856 b 663 714 643 718 654 714 b 696 744 681 714 696 726 b 681 788 696 756 690 764 b 635 951 664 828 642 900 b 599 986 631 976 615 986 b 568 976 588 986 578 982 l 508 938 b 350 986 465 964 415 986 b 81 725 200 986 81 869 b 307 444 81 601 161 497 l 457 392 b 619 208 567 353 619 289 b 447 43 619 110 550 43 b 125 279 326 43 201 135 b 92 301 117 294 104 301 b 57 268 72 301 57 286 b 63 243 57 258 58 253 b 94 21 92 169 97 90 b 129 -19 93 -1 108 -19 b 164 -6 142 -19 153 -15 l 232 49 b 447 -29 319 -17 388 -29 z "},"š":{"ha":621,"x_min":0,"x_max":0,"o":"m 114 1013 b 54 954 82 1013 54 986 b 83 901 54 936 61 918 l 265 764 b 294 751 276 756 286 751 b 326 765 304 751 314 756 l 506 900 b 536 953 526 915 536 935 b 475 1013 536 989 507 1013 b 426 985 458 1013 440 1004 l 315 828 l 276 828 l 164 985 b 114 1013 149 1006 131 1013 z m 117 -24 b 142 -14 125 -24 131 -21 l 207 26 b 357 -19 251 0 292 -19 b 567 192 476 -19 567 76 b 403 393 567 286 513 358 l 275 433 b 164 542 194 458 164 500 b 267 629 164 590 200 629 b 485 472 339 629 417 572 b 510 458 492 463 500 458 b 535 485 522 458 535 468 b 525 521 535 496 529 507 b 494 668 511 561 501 613 b 469 696 492 686 482 696 b 446 686 463 696 457 694 l 392 646 b 268 689 350 675 310 689 b 69 500 157 689 69 603 b 238 294 69 392 131 328 l 358 257 b 465 143 429 235 465 194 b 358 44 465 88 419 44 b 110 210 265 44 175 104 b 82 228 101 222 93 228 b 56 200 67 228 56 215 b 60 182 56 196 57 189 b 94 4 83 121 90 79 b 117 -24 96 -17 107 -24 z "},"Ť":{"ha":900,"x_min":0,"x_max":0,"o":"m 268 1297 b 208 1239 236 1297 208 1271 b 238 1186 208 1221 215 1203 l 419 1049 b 449 1036 431 1040 440 1036 b 481 1050 458 1036 468 1040 l 660 1185 b 690 1238 681 1200 690 1219 b 629 1297 690 1274 661 1297 b 581 1269 613 1297 594 1289 l 469 1113 l 431 1113 l 318 1269 b 268 1297 303 1290 285 1297 z m 286 -11 b 450 0 338 -4 400 0 b 614 -11 500 0 563 -4 b 647 17 632 -14 647 -1 b 621 49 647 32 639 42 l 519 86 l 519 832 b 590 893 519 885 560 893 b 826 714 701 893 750 819 b 857 697 835 701 846 697 b 888 728 874 697 888 710 b 879 757 888 736 885 744 b 838 929 854 817 844 864 b 782 967 835 958 814 971 l 746 963 b 686 958 725 960 707 958 l 214 958 b 154 963 193 958 175 960 l 118 967 b 63 929 86 971 65 958 b 21 757 57 864 43 810 b 13 728 15 744 13 736 b 43 697 13 710 26 697 b 74 714 54 697 65 701 b 310 893 146 822 199 893 b 381 832 340 893 381 885 l 381 86 l 279 49 b 253 17 261 42 253 32 b 286 -11 253 -1 268 -14 z "},"ť":{"ha":508,"x_min":0,"x_max":0,"o":"m 374 711 b 399 721 381 711 389 714 b 526 968 469 775 526 878 b 435 1075 526 1038 481 1075 b 349 992 385 1075 349 1036 b 431 904 349 940 388 914 b 354 765 428 871 408 819 b 343 742 346 758 343 750 b 374 711 343 725 356 711 z m 315 -19 b 494 90 393 -19 467 31 b 499 110 497 97 499 103 b 468 140 499 128 485 140 b 439 124 456 140 447 135 b 353 71 408 82 378 71 b 275 153 303 71 275 106 l 275 588 l 425 588 b 469 631 454 588 469 610 b 421 671 469 651 454 674 l 275 661 l 275 867 b 238 907 275 892 258 907 b 200 872 224 907 206 897 l 174 750 b 36 647 158 683 119 656 b 4 617 14 646 4 631 b 39 588 4 603 17 588 l 149 588 b 144 168 149 351 144 279 b 315 -19 144 32 215 -19 z "},"ū":{"ha":785,"x_min":0,"x_max":0,"o":"m 238 821 b 389 829 300 826 350 829 b 540 821 428 829 478 826 b 600 872 581 818 600 846 b 540 924 600 900 581 926 b 389 915 478 919 428 915 b 238 924 350 915 300 919 b 178 872 197 926 178 900 b 238 821 178 846 197 818 z m 282 -14 b 526 121 388 -14 471 69 l 528 121 b 521 18 529 76 521 51 b 556 -10 521 1 532 -14 b 724 6 608 0 675 4 b 754 35 743 7 754 21 b 733 63 754 46 747 57 l 650 94 l 650 576 b 654 657 650 626 654 642 b 624 688 654 675 642 688 b 601 681 615 688 608 685 b 429 632 558 656 532 644 b 403 603 411 629 403 615 b 425 574 403 590 410 578 l 521 546 l 521 188 b 325 85 460 135 383 85 b 261 183 282 85 261 110 l 261 576 b 265 657 261 625 265 642 b 235 688 265 675 253 688 b 213 681 226 688 219 685 b 51 632 165 653 149 647 b 25 603 33 629 25 615 b 47 574 25 590 32 579 l 132 546 l 132 169 b 282 -14 132 57 182 -14 z "},"Ű":{"ha":979,"x_min":0,"x_max":0,"o":"m 567 1260 l 336 1054 l 361 1018 l 625 1171 b 658 1222 649 1185 658 1204 b 606 1275 658 1247 640 1275 b 567 1260 593 1275 579 1271 z m 790 1260 l 560 1054 l 585 1018 l 849 1171 b 882 1222 872 1185 882 1204 b 829 1275 882 1247 864 1275 b 790 1260 817 1275 803 1271 z m 506 -28 b 829 300 674 -28 829 78 l 829 872 l 931 910 b 957 942 944 915 957 924 b 924 969 957 958 943 972 b 790 958 882 964 833 958 b 656 969 746 958 697 964 b 622 942 636 972 622 958 b 649 910 622 924 635 915 l 750 872 l 750 307 b 519 53 750 131 646 53 b 288 301 400 53 288 113 l 288 872 l 389 910 b 415 942 403 915 415 924 b 382 969 415 958 401 972 b 218 958 331 963 268 958 b 54 969 168 958 106 963 b 21 942 35 972 21 958 b 47 910 21 924 33 915 l 149 872 l 149 286 b 506 -28 149 71 322 -28 z "},"ű":{"ha":785,"x_min":0,"x_max":0,"o":"m 440 1003 l 210 797 l 235 761 l 499 914 b 532 965 522 928 532 947 b 479 1018 532 990 514 1018 b 440 1003 467 1018 453 1014 z m 664 1003 l 433 797 l 458 761 l 722 914 b 756 965 746 928 756 947 b 703 1018 756 990 738 1018 b 664 1003 690 1018 676 1014 z m 282 -14 b 526 121 388 -14 471 69 l 528 121 b 521 18 529 76 521 51 b 556 -10 521 1 532 -14 b 724 6 608 0 675 4 b 754 35 743 7 754 21 b 733 63 754 46 747 57 l 650 94 l 650 576 b 654 657 650 626 654 642 b 624 688 654 675 642 688 b 601 681 615 688 608 685 b 429 632 558 656 532 644 b 403 603 411 629 403 615 b 425 574 403 590 410 578 l 521 546 l 521 188 b 325 85 460 135 383 85 b 261 183 282 85 261 110 l 261 576 b 265 657 261 625 265 642 b 235 688 265 675 253 688 b 213 681 226 688 219 685 b 51 632 165 653 149 647 b 25 603 33 629 25 615 b 47 574 25 590 32 578 l 132 546 l 132 169 b 282 -14 132 57 182 -14 z "},"Ŵ":{"ha":1278,"x_min":0,"x_max":0,"o":"m 475 1038 b 525 1065 492 1038 510 1044 l 638 1222 l 676 1222 l 788 1065 b 836 1038 801 1046 819 1038 b 897 1097 868 1038 897 1061 b 867 1150 897 1115 888 1135 l 688 1285 b 656 1299 675 1294 665 1299 b 626 1286 647 1299 638 1294 l 444 1149 b 415 1096 422 1132 415 1114 b 475 1038 415 1064 443 1038 z m 411 -29 b 449 0 426 -29 443 -19 l 642 628 l 646 628 l 826 4 b 865 -28 833 -19 849 -28 b 903 4 883 -28 897 -15 l 1164 872 l 1271 910 b 1293 940 1286 915 1293 928 b 1254 968 1293 956 1281 971 b 1129 958 1204 963 1167 958 b 993 968 1090 958 1051 963 b 960 940 971 971 960 956 b 982 911 960 929 967 917 l 1088 872 l 906 260 l 903 260 l 724 872 l 828 911 b 851 942 844 917 851 929 b 817 969 851 957 839 972 b 633 957 740 961 683 957 b 482 969 583 957 538 961 b 447 940 460 972 447 957 b 468 913 447 929 454 918 l 575 872 l 608 758 l 451 253 l 449 253 l 267 872 l 374 913 b 394 940 388 918 394 929 b 360 969 394 957 382 972 b 194 958 311 963 253 958 b 22 969 133 958 72 963 b -11 942 1 972 -11 957 b 10 913 -11 931 -4 918 l 117 872 l 371 3 b 411 -29 376 -18 394 -29 z "},"ŵ":{"ha":1022,"x_min":0,"x_max":0,"o":"m 328 781 b 378 808 344 781 363 788 l 490 965 l 529 965 l 640 808 b 689 781 654 789 672 781 b 750 840 721 781 750 804 b 719 893 750 858 740 878 l 540 1028 b 508 1042 528 1038 518 1042 b 479 1029 500 1042 490 1038 l 297 892 b 268 839 275 875 268 857 b 328 781 268 807 296 781 z m 329 -28 b 353 -8 339 -28 349 -21 l 506 418 l 653 -8 b 678 -28 657 -21 667 -28 b 701 -8 688 -28 697 -21 l 910 579 l 1004 613 b 1025 642 1018 618 1025 629 b 993 669 1025 657 1013 672 b 882 661 954 664 919 661 b 764 669 846 661 808 664 b 731 642 743 672 731 657 b 751 613 731 629 738 618 l 843 579 l 711 206 l 708 206 l 579 589 l 649 614 b 667 640 661 618 667 629 b 632 669 667 657 654 674 b 517 661 597 664 557 661 b 393 669 474 661 431 664 b 358 642 372 672 358 657 b 381 613 358 631 365 618 l 446 589 l 471 515 l 361 206 l 360 206 l 228 589 l 297 614 b 315 640 310 618 315 629 b 281 669 315 657 303 674 b 165 661 246 664 206 661 b 42 669 122 661 79 664 b 8 642 21 672 8 657 b 29 613 8 629 15 618 l 94 589 l 304 -8 b 329 -28 308 -21 318 -28 z "},"Ŷ":{"ha":933,"x_min":0,"x_max":0,"o":"m 328 1038 b 378 1065 344 1038 363 1044 l 490 1222 l 529 1222 l 640 1065 b 689 1038 654 1046 672 1038 b 750 1097 721 1038 750 1061 b 719 1150 750 1115 740 1135 l 540 1285 b 508 1299 528 1294 518 1299 b 479 1286 500 1299 490 1294 l 297 1149 b 268 1096 275 1132 268 1114 b 328 1038 268 1064 296 1038 z m 307 -11 b 471 0 358 -4 421 0 b 635 -11 521 0 583 -4 b 668 17 654 -14 668 0 b 642 49 668 32 660 42 l 540 86 l 540 389 l 800 872 l 903 910 b 928 942 921 917 928 929 b 893 969 928 958 915 972 b 765 958 842 963 804 958 b 628 969 724 958 683 963 b 594 943 610 972 594 963 b 618 911 594 931 601 918 l 722 872 l 503 464 l 501 464 l 290 872 l 394 911 b 418 942 411 918 418 929 b 382 969 418 957 404 972 b 221 957 329 961 276 957 b 39 969 164 957 104 961 b 6 942 19 972 6 957 b 32 910 6 929 13 917 l 133 872 l 401 356 l 401 86 l 300 49 b 274 17 282 42 274 32 b 307 -11 274 -1 289 -14 z "},"ŷ":{"ha":722,"x_min":0,"x_max":0,"o":"m 200 781 b 250 808 217 781 235 788 l 363 965 l 401 965 l 513 808 b 561 781 526 789 544 781 b 622 840 593 781 622 804 b 592 893 622 858 613 878 l 413 1028 b 381 1042 400 1038 390 1042 b 351 1029 372 1042 363 1038 l 169 892 b 140 839 147 875 140 857 b 200 781 140 807 168 781 z m 215 -306 b 308 -221 257 -306 286 -279 l 607 579 l 699 611 b 722 642 714 617 722 629 b 686 669 722 658 708 674 b 571 660 649 664 610 660 b 457 669 533 660 494 664 b 424 640 436 672 424 657 b 447 611 424 629 431 617 l 539 579 l 393 188 l 390 188 l 232 589 l 300 614 b 319 642 313 618 319 631 b 285 669 319 657 307 672 b 164 661 250 664 207 661 b 43 669 122 661 79 664 b 10 642 22 672 10 657 b 31 613 10 631 17 618 l 92 589 l 324 1 l 267 -151 b 215 -132 251 -139 233 -132 b 126 -217 167 -132 126 -172 b 215 -306 126 -265 167 -306 z "},"Ÿ":{"ha":933,"x_min":0,"x_max":0,"o":"m 376 1072 b 464 1161 425 1072 464 1111 b 376 1249 464 1210 425 1249 b 288 1161 326 1249 288 1210 b 376 1072 288 1111 326 1072 z m 650 1072 b 738 1161 699 1072 738 1111 b 650 1249 738 1210 699 1249 b 561 1161 600 1249 561 1210 b 650 1072 561 1111 600 1072 z m 307 -11 b 471 0 358 -4 421 0 b 635 -11 521 0 583 -4 b 668 17 654 -14 668 0 b 642 49 668 32 660 42 l 540 86 l 540 389 l 800 872 l 903 910 b 928 942 921 917 928 929 b 893 969 928 958 915 972 b 765 958 842 963 804 958 b 628 969 724 958 683 963 b 594 943 610 972 594 963 b 618 911 594 931 601 918 l 722 872 l 503 464 l 501 464 l 290 872 l 394 911 b 418 942 411 918 418 929 b 382 969 418 957 404 972 b 221 957 329 961 276 957 b 39 969 164 957 104 961 b 6 942 19 972 6 957 b 32 910 6 929 13 917 l 133 872 l 401 356 l 401 86 l 300 49 b 274 17 282 42 274 32 b 307 -11 274 -1 289 -14 z "},"Ž":{"ha":824,"x_min":0,"x_max":0,"o":"m 247 1269 b 188 1211 215 1269 188 1243 b 217 1158 188 1193 194 1175 l 399 1021 b 428 1008 410 1013 419 1008 b 460 1022 438 1008 447 1013 l 639 1157 b 669 1210 660 1172 669 1192 b 608 1269 669 1246 640 1269 b 560 1242 592 1269 574 1261 l 449 1085 l 410 1085 l 297 1242 b 247 1269 282 1263 264 1269 z m 688 -8 b 729 32 707 -8 726 4 b 781 221 736 96 751 151 b 753 269 790 244 778 269 b 721 247 742 269 729 263 b 374 69 636 97 561 69 l 236 69 l 757 913 b 767 942 764 924 767 932 b 739 968 767 957 754 968 b 607 958 717 968 706 958 l 249 958 b 196 961 232 958 210 960 l 154 967 b 103 929 122 971 107 954 b 51 743 90 857 81 817 b 47 725 49 736 47 731 b 79 693 47 706 63 693 b 113 713 92 693 104 699 b 413 889 186 835 244 889 l 574 889 l 61 58 b 49 24 51 42 49 32 b 81 -6 49 6 61 -6 b 182 0 96 -6 119 0 l 582 0 b 688 -8 632 0 660 -8 z "},"ž":{"ha":654,"x_min":0,"x_max":0,"o":"m 160 1013 b 100 954 128 1013 100 986 b 129 901 100 936 107 918 l 311 764 b 340 751 322 756 332 751 b 372 765 350 751 360 756 l 551 900 b 582 953 572 915 582 935 b 521 1013 582 989 553 1013 b 472 985 504 1013 486 1004 l 361 828 l 322 828 l 210 985 b 160 1013 194 1006 176 1013 z m 524 -10 b 563 35 543 -10 560 0 b 614 186 568 92 593 144 b 619 207 618 196 619 201 b 590 235 619 224 606 235 b 565 222 581 235 572 231 l 490 135 b 307 61 453 90 400 61 l 211 61 l 211 63 l 582 617 b 588 636 586 624 588 631 b 556 667 588 653 574 667 l 222 667 b 140 676 171 667 160 676 b 104 638 121 676 108 664 b 90 560 100 608 96 583 b 63 468 81 517 63 485 b 93 438 63 450 78 438 b 118 453 101 438 111 442 l 169 535 b 294 606 200 582 229 606 l 418 606 l 418 604 l 50 54 b 43 31 44 46 43 39 b 76 0 43 14 56 0 l 429 0 b 524 -10 471 0 503 -10 z "},"ƒ":{"ha":975,"x_min":0,"x_max":0,"o":"m 126 -283 b 503 142 278 -283 439 -87 l 629 588 l 760 588 b 804 631 783 588 804 607 b 753 675 804 654 783 678 l 651 667 b 743 926 674 788 690 883 l 836 879 b 875 869 850 872 863 869 b 946 942 918 869 946 908 b 842 1019 946 988 899 1019 b 522 657 700 1019 582 869 l 414 647 b 383 617 393 646 383 631 b 414 588 383 601 393 588 l 503 588 l 371 119 b 239 -172 306 -112 265 -151 l 139 -140 b 103 -135 126 -136 114 -135 b 28 -203 60 -135 28 -161 b 126 -283 28 -246 61 -283 z "},"ǎ":{"ha":678,"x_min":0,"x_max":0,"o":"m 238 -14 b 436 104 322 -14 393 28 l 442 104 b 574 -8 453 33 504 -8 b 690 88 633 -8 690 47 b 664 115 690 104 679 115 b 636 97 653 115 644 110 b 600 75 626 82 615 75 b 560 118 578 75 560 93 l 560 514 b 350 688 560 647 465 688 b 83 517 206 688 83 615 b 175 426 83 468 124 426 b 260 514 217 426 260 463 b 199 593 260 554 236 583 l 199 601 b 297 626 232 619 269 626 b 431 514 378 626 431 593 l 431 429 b 138 306 258 372 185 338 b 58 154 83 268 58 217 b 238 -14 58 58 136 -14 z m 290 78 b 196 176 222 78 196 126 b 431 369 196 267 279 324 l 431 271 b 290 78 431 147 357 78 z m 147 1042 b 88 983 115 1042 88 1015 b 117 931 88 965 94 947 l 299 793 b 328 781 310 785 319 781 b 360 794 338 781 347 785 l 539 929 b 569 982 560 944 569 964 b 508 1042 569 1018 540 1042 b 460 1014 492 1042 474 1033 l 349 857 l 310 857 l 197 1014 b 147 1042 182 1035 164 1042 z "},"ǐ":{"ha":406,"x_min":0,"x_max":0,"o":"m 89 -8 b 213 0 136 -3 165 0 b 338 -8 264 0 303 -4 b 368 19 356 -11 368 4 b 347 49 368 31 361 43 l 278 78 l 278 576 b 282 657 278 626 282 642 b 251 688 282 675 269 688 b 229 681 243 688 236 685 b 57 632 186 656 160 644 b 31 603 39 629 31 615 b 53 574 31 590 38 578 l 149 546 l 149 78 l 79 49 b 58 19 64 42 58 31 b 89 -8 58 4 71 -11 z m 19 1042 b -40 983 -12 1042 -40 1015 b -11 931 -40 965 -33 947 l 171 793 b 200 781 182 785 192 781 b 232 794 210 781 219 785 l 411 929 b 442 982 432 944 442 964 b 381 1042 442 1018 413 1042 b 332 1014 364 1042 346 1033 l 221 857 l 182 857 l 69 1014 b 19 1042 54 1035 36 1042 z "},"ǒ":{"ha":736,"x_min":0,"x_max":0,"o":"m 368 -28 b 683 331 542 -28 683 132 b 368 688 683 529 542 688 b 53 331 194 688 53 529 b 368 -28 53 132 194 -28 z m 368 29 b 203 331 271 29 203 136 b 368 631 203 525 271 631 b 533 331 465 631 533 525 b 368 29 533 136 465 29 z m 186 1042 b 126 983 154 1042 126 1015 b 156 931 126 965 133 947 l 338 793 b 367 781 349 785 358 781 b 399 794 376 781 386 785 l 578 929 b 608 982 599 944 608 964 b 547 1042 608 1018 579 1042 b 499 1014 531 1042 513 1033 l 388 857 l 349 857 l 236 1014 b 186 1042 221 1035 203 1042 z "},"ǔ":{"ha":785,"x_min":0,"x_max":0,"o":"m 282 -14 b 526 121 388 -14 471 69 l 528 121 b 521 18 529 76 521 51 b 556 -10 521 1 532 -14 b 724 6 608 0 675 4 b 754 35 743 7 754 21 b 733 63 754 46 747 57 l 650 94 l 650 576 b 654 657 650 626 654 642 b 624 688 654 675 642 688 b 601 681 615 688 608 685 b 429 632 558 656 532 644 b 403 603 411 629 403 615 b 425 574 403 590 410 578 l 521 546 l 521 188 b 325 85 460 135 383 85 b 261 183 282 85 261 110 l 261 576 b 265 657 261 625 265 642 b 235 688 265 675 253 688 b 213 681 226 688 219 685 b 51 632 165 653 149 647 b 25 603 33 629 25 615 b 47 574 25 590 32 578 l 132 546 l 132 169 b 282 -14 132 57 182 -14 z m 207 1042 b 147 983 175 1042 147 1015 b 176 931 147 965 154 947 l 358 793 b 388 781 369 785 379 781 b 419 794 397 781 407 785 l 599 929 b 629 982 619 944 629 964 b 568 1042 629 1018 600 1042 b 519 1014 551 1042 533 1033 l 408 857 l 369 857 l 257 1014 b 207 1042 242 1035 224 1042 z "},"μ":{"ha":794,"x_min":0,"x_max":0,"o":"m 183 -271 b 260 -194 222 -271 260 -236 b 189 0 260 -126 189 -100 l 189 22 l 190 22 b 288 -11 214 0 247 -11 b 531 121 392 -11 476 68 b 669 -8 536 43 592 -8 b 786 86 735 -8 786 43 b 758 114 786 103 774 114 b 735 100 750 114 742 110 b 696 76 724 83 710 76 b 656 122 675 76 656 93 l 656 568 b 660 649 656 618 660 633 b 629 679 660 667 647 679 b 607 672 621 679 614 676 b 435 624 564 647 538 636 b 408 594 417 621 408 607 b 431 565 408 582 415 569 l 526 538 l 526 188 b 328 86 465 135 389 86 b 267 201 283 86 267 117 l 267 568 b 271 649 267 618 271 633 b 240 679 271 667 258 679 b 218 672 233 679 225 676 b 58 624 175 647 144 638 b 31 594 43 621 31 608 b 56 563 31 579 42 567 l 138 538 l 138 -14 b 107 -194 138 -115 107 -144 b 183 -271 107 -236 140 -271 z "},"Ẁ":{"ha":1278,"x_min":0,"x_max":0,"o":"m 513 1192 l 742 1010 l 772 1042 l 604 1269 b 540 1308 585 1294 568 1308 b 482 1250 508 1308 482 1282 b 513 1192 482 1226 493 1207 z m 411 -29 b 449 0 426 -29 443 -19 l 642 628 l 646 628 l 826 4 b 865 -28 833 -19 849 -28 b 903 4 883 -28 897 -15 l 1164 872 l 1271 910 b 1293 940 1286 915 1293 928 b 1254 968 1293 956 1281 971 b 1129 958 1204 963 1167 958 b 993 968 1090 958 1051 963 b 960 940 971 971 960 956 b 982 911 960 929 967 917 l 1088 872 l 906 260 l 903 260 l 724 872 l 828 911 b 851 942 844 917 851 929 b 817 969 851 957 839 972 b 633 957 740 961 683 957 b 482 969 583 957 538 961 b 447 940 460 972 447 957 b 468 913 447 929 454 918 l 575 872 l 608 758 l 451 253 l 449 253 l 267 872 l 374 913 b 394 940 388 918 394 929 b 360 969 394 957 382 972 b 194 958 311 963 253 958 b 22 969 133 958 72 963 b -11 942 1 972 -11 957 b 10 913 -11 931 -4 918 l 117 872 l 371 3 b 411 -29 376 -18 394 -29 z "},"ẁ":{"ha":1022,"x_min":0,"x_max":0,"o":"m 365 935 l 594 753 l 625 785 l 457 1013 b 393 1051 438 1038 421 1051 b 335 993 361 1051 335 1025 b 365 935 335 969 346 950 z m 329 -28 b 353 -8 339 -28 349 -21 l 506 418 l 653 -8 b 678 -28 657 -21 667 -28 b 701 -8 688 -28 697 -21 l 910 579 l 1004 613 b 1025 642 1018 618 1025 629 b 993 669 1025 657 1013 672 b 882 661 954 664 919 661 b 764 669 846 661 808 664 b 731 642 743 672 731 657 b 751 613 731 629 738 618 l 843 579 l 711 206 l 708 206 l 579 589 l 649 614 b 667 640 661 618 667 629 b 632 669 667 657 654 674 b 517 661 597 664 557 661 b 393 669 474 661 431 664 b 358 642 372 672 358 657 b 381 613 358 631 365 618 l 446 589 l 471 515 l 361 206 l 360 206 l 228 589 l 297 614 b 315 640 310 618 315 629 b 281 669 315 657 303 674 b 165 661 246 664 206 661 b 42 669 122 661 79 664 b 8 642 21 672 8 657 b 29 613 8 629 15 618 l 94 589 l 304 -8 b 329 -28 308 -21 318 -28 z "},"Ẃ":{"ha":1278,"x_min":0,"x_max":0,"o":"m 711 1269 l 543 1042 l 574 1010 l 803 1192 b 833 1250 822 1207 833 1226 b 775 1308 833 1282 807 1308 b 711 1269 747 1308 731 1294 z m 411 -29 b 449 0 426 -29 443 -19 l 642 628 l 646 628 l 826 4 b 865 -28 833 -19 849 -28 b 903 4 883 -28 897 -15 l 1164 872 l 1271 910 b 1293 940 1286 915 1293 928 b 1254 968 1293 956 1281 971 b 1129 958 1204 963 1167 958 b 993 968 1090 958 1051 963 b 960 940 971 971 960 956 b 982 911 960 929 967 917 l 1088 872 l 906 260 l 903 260 l 724 872 l 828 911 b 851 942 844 917 851 929 b 817 969 851 957 839 972 b 633 957 740 961 683 957 b 482 969 583 957 538 961 b 447 940 460 972 447 957 b 468 913 447 929 454 918 l 575 872 l 608 758 l 451 253 l 449 253 l 267 872 l 374 913 b 394 940 388 918 394 929 b 360 969 394 957 382 972 b 194 958 311 963 253 958 b 22 969 133 958 72 963 b -11 942 1 972 -11 957 b 10 913 -11 931 -4 918 l 117 872 l 371 3 b 411 -29 376 -18 394 -29 z "},"ẃ":{"ha":1022,"x_min":0,"x_max":0,"o":"m 564 1013 l 396 785 l 426 753 l 656 935 b 686 993 675 950 686 969 b 628 1051 686 1025 660 1051 b 564 1013 600 1051 583 1038 z m 329 -28 b 353 -8 339 -28 349 -21 l 506 418 l 653 -8 b 678 -28 657 -21 667 -28 b 701 -8 688 -28 697 -21 l 910 579 l 1004 613 b 1025 642 1018 618 1025 629 b 993 669 1025 657 1013 672 b 882 661 954 664 919 661 b 764 669 846 661 808 664 b 731 642 743 672 731 657 b 751 613 731 629 738 618 l 843 579 l 711 206 l 708 206 l 579 589 l 649 614 b 667 640 661 618 667 629 b 632 669 667 657 654 674 b 517 661 597 664 557 661 b 393 669 474 661 431 664 b 358 642 372 672 358 657 b 381 613 358 631 365 618 l 446 589 l 471 515 l 361 206 l 360 206 l 228 589 l 297 614 b 315 640 310 618 315 629 b 281 669 315 657 303 674 b 165 661 246 664 206 661 b 42 669 122 661 79 664 b 8 642 21 672 8 657 b 29 613 8 629 15 618 l 94 589 l 304 -8 b 329 -28 308 -21 318 -28 z "},"Ẅ":{"ha":1278,"x_min":0,"x_max":0,"o":"m 524 1072 b 611 1161 572 1072 611 1111 b 524 1249 611 1210 572 1249 b 435 1161 474 1249 435 1210 b 524 1072 435 1111 474 1072 z m 797 1072 b 885 1161 846 1072 885 1111 b 797 1249 885 1210 846 1249 b 708 1161 747 1249 708 1210 b 797 1072 708 1111 747 1072 z m 411 -29 b 449 0 426 -29 443 -19 l 642 628 l 646 628 l 826 4 b 865 -28 833 -19 849 -28 b 903 4 883 -28 897 -15 l 1164 872 l 1271 910 b 1293 940 1286 915 1293 928 b 1254 968 1293 956 1281 971 b 1129 958 1204 963 1167 958 b 993 968 1090 958 1051 963 b 960 940 971 971 960 956 b 982 911 960 929 967 917 l 1088 872 l 906 260 l 903 260 l 724 872 l 828 911 b 851 942 844 917 851 929 b 817 969 851 957 839 972 b 633 957 740 961 683 957 b 482 969 583 957 538 961 b 447 940 460 972 447 957 b 468 913 447 929 454 918 l 575 872 l 608 758 l 451 253 l 449 253 l 267 872 l 374 913 b 394 940 388 918 394 929 b 360 969 394 957 382 972 b 194 958 311 963 253 958 b 22 969 133 958 72 963 b -11 942 1 972 -11 957 b 10 913 -11 931 -4 918 l 117 872 l 371 3 b 411 -29 376 -18 394 -29 z "},"ẅ":{"ha":1022,"x_min":0,"x_max":0,"o":"m 376 815 b 464 904 425 815 464 854 b 376 992 464 953 425 992 b 288 904 326 992 288 953 b 376 815 288 854 326 815 z m 650 815 b 738 904 699 815 738 854 b 650 992 738 953 699 992 b 561 904 600 992 561 953 b 650 815 561 854 600 815 z m 329 -28 b 353 -8 339 -28 349 -21 l 506 418 l 653 -8 b 678 -28 657 -21 667 -28 b 701 -8 688 -28 697 -21 l 910 579 l 1004 613 b 1025 642 1018 618 1025 629 b 993 669 1025 657 1013 672 b 882 661 954 664 919 661 b 764 669 846 661 808 664 b 731 642 743 672 731 657 b 751 613 731 629 738 618 l 843 579 l 711 206 l 708 206 l 579 589 l 649 614 b 667 640 661 618 667 629 b 632 669 667 657 654 674 b 517 661 597 664 557 661 b 393 669 474 661 431 664 b 358 642 372 672 358 657 b 381 613 358 631 365 618 l 446 589 l 471 515 l 361 206 l 360 206 l 228 589 l 297 614 b 315 640 310 618 315 629 b 281 669 315 657 303 674 b 165 661 246 664 206 661 b 42 669 122 661 79 664 b 8 642 21 672 8 657 b 29 613 8 629 15 618 l 94 589 l 304 -8 b 329 -28 308 -21 318 -28 z "},"Ỳ":{"ha":933,"x_min":0,"x_max":0,"o":"m 365 1192 l 594 1010 l 625 1042 l 457 1269 b 393 1308 438 1294 421 1308 b 335 1250 361 1308 335 1282 b 365 1192 335 1226 346 1207 z m 307 -11 b 471 0 358 -4 421 0 b 635 -11 521 0 583 -4 b 668 17 654 -14 668 0 b 642 49 668 32 660 42 l 540 86 l 540 389 l 800 872 l 903 910 b 928 942 921 917 928 929 b 893 969 928 958 915 972 b 765 958 842 963 804 958 b 628 969 724 958 683 963 b 594 943 610 972 594 963 b 618 911 594 931 601 918 l 722 872 l 503 464 l 501 464 l 290 872 l 394 911 b 418 942 411 918 418 929 b 382 969 418 957 404 972 b 221 957 329 961 276 957 b 39 969 164 957 104 961 b 6 942 19 972 6 957 b 32 910 6 929 13 917 l 133 872 l 401 356 l 401 86 l 300 49 b 274 17 282 42 274 32 b 307 -11 274 -1 289 -14 z "},"ỳ":{"ha":722,"x_min":0,"x_max":0,"o":"m 238 935 l 467 753 l 497 785 l 329 1013 b 265 1051 310 1038 293 1051 b 207 993 233 1051 207 1025 b 238 935 207 969 218 950 z m 215 -306 b 308 -221 257 -306 286 -279 l 607 579 l 699 611 b 722 642 714 617 722 629 b 686 669 722 658 708 674 b 571 660 649 664 610 660 b 457 669 533 660 494 664 b 424 640 436 672 424 657 b 447 611 424 629 431 617 l 539 579 l 393 188 l 390 188 l 232 589 l 300 614 b 319 642 313 618 319 631 b 285 669 319 657 307 672 b 164 661 250 664 207 661 b 43 669 122 661 79 664 b 10 642 22 672 10 657 b 31 613 10 631 17 618 l 92 589 l 324 1 l 267 -151 b 215 -132 251 -139 233 -132 b 126 -217 167 -132 126 -172 b 215 -306 126 -265 167 -306 z "},"–":{"ha":736,"x_min":0,"x_max":0,"o":"m 133 299 b 368 306 189 299 218 306 b 603 299 518 306 547 299 b 654 350 632 299 654 322 b 603 401 654 378 632 401 b 368 394 547 401 518 394 b 133 401 218 394 189 401 b 82 350 104 401 82 378 b 133 299 82 322 104 299 z "},"—":{"ha":1053,"x_min":0,"x_max":0,"o":"m 133 299 b 529 306 175 299 268 306 b 919 299 832 306 878 299 b 971 350 949 299 971 322 b 919 401 971 378 949 401 b 529 394 878 401 832 394 b 133 401 268 394 175 401 b 82 350 104 401 82 378 b 133 299 82 322 104 299 z "},"‘":{"ha":297,"x_min":0,"x_max":0,"o":"m 207 1054 b 182 1044 200 1054 192 1051 b 54 797 111 990 54 888 b 146 690 54 728 100 690 b 232 774 196 690 232 729 b 150 861 232 825 193 851 b 226 1000 153 894 172 946 b 238 1024 235 1007 238 1015 b 207 1054 238 1040 225 1054 z "},"’":{"ha":299,"x_min":0,"x_max":0,"o":"m 99 661 b 124 671 106 661 114 664 b 251 918 194 725 251 828 b 160 1025 251 988 206 1025 b 74 942 110 1025 74 986 b 156 854 74 890 113 864 b 79 715 153 821 133 769 b 68 692 71 708 68 700 b 99 661 68 675 81 661 z "},"‚":{"ha":311,"x_min":0,"x_max":0,"o":"m 92 -203 b 117 -193 99 -203 107 -200 b 244 54 188 -139 244 -36 b 153 161 244 124 199 161 b 67 78 103 161 67 122 b 149 -10 67 26 106 0 b 72 -149 146 -43 126 -94 b 61 -172 64 -156 61 -164 b 92 -203 61 -189 74 -203 z "},"“":{"ha":513,"x_min":0,"x_max":0,"o":"m 207 1057 b 182 1047 200 1057 192 1054 b 54 800 111 993 54 890 b 146 693 54 731 100 693 b 232 776 196 693 232 732 b 150 864 232 828 193 854 b 226 1003 153 897 172 949 b 238 1026 235 1010 238 1018 b 207 1057 238 1043 225 1057 z m 424 1057 b 399 1047 417 1057 408 1054 b 271 800 328 993 271 890 b 363 693 271 731 317 693 b 449 776 413 693 449 732 b 367 864 449 828 410 854 b 443 1003 369 897 389 949 b 454 1026 451 1010 454 1018 b 424 1057 454 1043 442 1057 z "},"”":{"ha":517,"x_min":0,"x_max":0,"o":"m 100 663 b 125 672 107 663 115 665 b 253 919 196 726 253 829 b 161 1026 253 989 207 1026 b 75 943 111 1026 75 988 b 157 856 75 892 114 865 b 81 717 154 822 135 771 b 69 693 72 710 69 701 b 100 663 69 676 82 663 z m 317 663 b 342 672 324 663 332 665 b 469 919 413 726 469 829 b 378 1026 469 989 424 1026 b 292 943 328 1026 292 988 b 374 856 292 892 331 865 b 297 717 371 822 351 771 b 286 693 289 710 286 701 b 317 663 286 676 299 663 z "},"„":{"ha":528,"x_min":0,"x_max":0,"o":"m 92 -203 b 117 -193 99 -203 107 -200 b 244 54 188 -139 244 -36 b 153 161 244 124 199 161 b 67 78 103 161 67 122 b 149 -10 67 26 106 0 b 72 -149 146 -43 126 -94 b 61 -172 64 -156 61 -164 b 92 -203 61 -189 74 -203 z m 308 -203 b 333 -193 315 -203 324 -200 b 461 54 404 -139 461 -36 b 369 161 461 124 415 161 b 283 78 319 161 283 122 b 365 -10 283 26 322 0 b 289 -149 363 -43 343 -94 b 278 -172 281 -156 278 -164 b 308 -203 278 -189 290 -203 z "},"†":{"ha":489,"x_min":0,"x_max":0,"o":"m 244 478 b 296 529 272 478 296 500 b 283 790 296 568 283 675 b 386 776 342 788 351 776 b 438 828 415 776 438 800 b 386 879 438 856 415 879 b 288 865 351 879 342 869 b 296 965 290 908 296 938 b 244 1017 296 994 272 1017 b 193 965 217 1017 193 994 b 201 865 193 938 199 908 b 103 879 147 869 138 879 b 51 828 74 879 51 856 b 103 776 51 800 74 776 b 206 790 138 776 147 788 b 193 529 206 674 193 567 b 244 478 193 500 217 478 z "},"‡":{"ha":497,"x_min":0,"x_max":0,"o":"m 249 478 b 300 529 276 478 300 500 b 289 628 300 557 293 574 b 390 614 346 625 356 614 b 442 665 419 614 442 638 b 390 717 442 693 419 717 b 285 703 354 717 346 706 b 283 747 285 721 283 735 b 285 792 283 761 285 775 b 390 778 346 789 354 778 b 442 829 419 778 442 801 b 390 881 442 857 419 881 b 289 867 356 881 346 869 b 300 965 293 919 300 938 b 249 1017 300 994 276 1017 b 197 965 221 1017 197 994 b 208 867 197 938 204 919 b 107 881 151 869 142 881 b 56 829 78 881 56 857 b 107 778 56 801 78 778 b 213 792 143 778 151 789 b 214 747 214 775 214 761 b 213 703 214 735 214 721 b 107 717 151 706 143 717 b 56 665 78 717 56 693 b 107 614 56 638 78 614 b 208 628 142 614 151 625 b 197 529 204 574 197 557 b 249 478 197 500 221 478 z "},"•":{"ha":479,"x_min":0,"x_max":0,"o":"m 240 274 b 376 411 317 274 376 333 b 240 546 376 486 317 546 b 103 411 163 546 103 486 b 240 274 103 333 163 274 z "},"…":{"ha":899,"x_min":0,"x_max":0,"o":"m 153 -12 b 238 74 200 -12 238 25 b 153 158 238 121 200 158 b 67 74 104 158 67 121 b 153 -12 67 25 104 -12 z m 450 -12 b 535 74 497 -12 535 25 b 450 158 535 121 497 158 b 364 74 401 158 364 121 b 450 -12 364 25 401 -12 z m 747 -12 b 832 74 794 -12 832 25 b 747 158 832 121 794 158 b 661 74 699 158 661 121 b 747 -12 661 25 699 -12 z "},"‰":{"ha":1553,"x_min":0,"x_max":0,"o":"m 254 381 b 457 646 383 381 457 488 b 254 911 457 804 383 911 b 51 646 125 911 51 804 b 254 381 51 488 125 381 z m 247 -10 b 283 13 261 -10 274 -3 b 569 431 321 71 333 106 b 876 835 804 758 836 783 b 888 865 885 846 888 857 b 846 908 888 889 868 908 b 807 885 832 908 817 901 b 521 465 772 828 758 790 b 215 64 285 138 257 115 b 204 33 207 53 204 42 b 247 -10 204 8 224 -10 z m 254 424 b 163 646 214 424 163 454 b 254 868 163 838 214 868 b 344 646 294 868 344 838 b 254 424 344 454 294 424 z m 854 -8 b 1057 257 983 -8 1057 99 b 854 522 1057 415 983 522 b 651 257 725 522 651 415 b 854 -8 651 99 725 -8 z m 1303 -8 b 1506 257 1432 -8 1506 99 b 1303 522 1506 415 1432 522 b 1100 257 1174 522 1100 415 b 1303 -8 1100 99 1174 -8 z m 854 35 b 763 257 814 35 763 65 b 854 479 763 449 814 479 b 944 257 894 479 944 449 b 854 35 944 65 894 35 z m 1303 35 b 1211 257 1263 35 1211 65 b 1303 479 1211 449 1263 479 b 1393 257 1343 479 1393 449 b 1303 35 1393 65 1343 35 z "},"‹":{"ha":331,"x_min":0,"x_max":0,"o":"m 207 60 b 258 111 233 60 258 82 b 246 147 258 122 254 135 l 160 269 b 133 349 142 294 133 322 b 160 429 133 376 142 404 l 246 550 b 260 589 256 564 260 578 b 207 643 260 619 235 643 b 153 600 188 643 167 631 l 82 432 b 65 350 71 404 65 378 b 85 261 65 321 72 290 l 157 99 b 207 60 169 71 189 60 z "},"›":{"ha":331,"x_min":0,"x_max":0,"o":"m 124 60 b 174 99 142 60 161 71 l 246 261 b 265 350 258 290 265 321 b 249 432 265 378 260 404 l 178 600 b 124 643 164 631 143 643 b 71 589 96 643 71 619 b 85 550 71 578 75 564 l 171 429 b 197 349 189 404 197 376 b 171 269 197 322 189 294 l 85 147 b 72 111 76 135 72 122 b 124 60 72 82 97 60 z "},"⁄":{"ha":222,"x_min":0,"x_max":0,"o":"m -192 -10 b -156 13 -178 -10 -165 -3 b 131 431 -118 71 -106 106 b 438 835 365 758 397 783 b 449 865 446 846 449 857 b 407 908 449 889 429 908 b 368 885 393 908 378 901 b 82 465 333 828 319 790 b -224 64 -154 138 -182 115 b -235 33 -232 53 -235 42 b -192 -10 -235 8 -215 -10 z "},"⁰":{"ha":500,"x_min":0,"x_max":0,"o":"m 250 510 b 453 775 379 510 453 617 b 250 1040 453 933 379 1040 b 47 775 121 1040 47 933 b 250 510 47 617 121 510 z m 250 553 b 158 775 210 553 158 583 b 250 997 158 967 210 997 b 340 775 290 997 340 967 b 250 553 340 583 290 553 z "},"⁴":{"ha":421,"x_min":0,"x_max":0,"o":"m 143 510 b 244 518 179 514 208 518 b 354 510 282 518 329 514 b 383 531 371 507 383 517 b 367 551 383 538 378 546 l 296 583 l 296 633 l 358 633 b 393 667 382 633 393 651 b 356 699 393 683 379 701 l 296 692 l 296 750 b 283 758 296 758 290 760 l 210 742 b 200 729 203 740 200 736 l 200 685 l 93 674 l 92 683 b 289 975 165 735 289 867 b 235 1039 289 1019 264 1039 b 182 978 211 1039 183 1017 b 42 694 178 865 119 747 b 18 661 26 685 18 675 b 43 633 18 643 32 633 l 200 633 l 200 583 l 132 551 b 115 531 121 547 115 539 b 143 510 115 518 126 507 z "},"⁵":{"ha":419,"x_min":0,"x_max":0,"o":"m 188 503 b 379 694 292 503 379 581 b 217 865 379 792 308 865 b 125 819 183 865 149 853 l 122 821 l 132 942 b 150 956 133 953 139 957 l 293 942 b 351 988 329 938 351 963 b 296 1032 351 1015 326 1035 b 143 1022 257 1028 194 1022 l 106 1022 b 79 997 88 1022 79 1014 b 82 946 79 983 85 974 l 69 779 b 88 757 68 765 75 757 b 111 768 94 757 104 761 b 186 800 132 789 158 800 b 275 679 242 800 275 756 b 188 547 275 607 242 547 b 135 589 153 547 135 571 b 151 653 135 618 151 629 b 101 700 151 678 131 700 b 43 633 69 700 43 674 b 188 503 43 564 106 503 z "},"⁶":{"ha":461,"x_min":0,"x_max":0,"o":"m 228 507 b 413 700 314 507 413 578 b 251 860 413 782 342 860 b 150 800 204 860 164 832 l 146 800 b 246 994 146 931 186 994 b 299 926 281 994 300 968 b 353 869 297 893 318 869 b 403 922 379 869 403 894 b 254 1038 403 985 336 1038 b 47 771 133 1038 47 922 b 228 507 47 606 119 507 z m 233 550 b 153 679 185 550 153 603 b 233 807 153 756 185 807 b 311 679 281 807 311 756 b 233 550 311 603 281 550 z "},"⁷":{"ha":407,"x_min":0,"x_max":0,"o":"m 171 507 b 224 571 204 507 224 533 b 378 982 224 692 268 868 b 389 1007 385 990 389 999 b 363 1032 389 1021 379 1032 b 281 1025 346 1032 340 1025 l 136 1025 b 83 1031 110 1025 100 1031 b 56 1007 68 1031 58 1022 b 29 904 50 965 47 949 b 25 889 26 899 25 893 b 46 868 25 878 35 868 b 65 879 53 868 60 871 b 188 951 108 943 122 951 l 292 951 l 294 944 b 118 576 203 847 126 706 b 171 507 115 528 144 507 z "},"⁸":{"ha":428,"x_min":0,"x_max":0,"o":"m 208 510 b 382 661 308 510 382 575 b 282 804 382 715 350 768 l 282 806 b 364 925 333 829 364 879 b 218 1042 364 990 300 1042 b 72 908 138 1042 72 983 b 146 778 72 847 101 807 l 146 776 b 43 646 92 754 43 711 b 208 510 43 564 114 510 z m 244 822 b 144 926 176 856 144 885 b 214 994 144 965 178 994 b 282 918 253 994 282 967 b 244 822 282 882 269 846 z m 214 556 b 129 649 161 556 129 597 b 181 760 129 694 150 732 b 293 640 263 721 293 686 b 214 556 293 594 263 556 z "},"⁹":{"ha":461,"x_min":0,"x_max":0,"o":"m 233 1040 b 49 847 147 1040 49 969 b 210 688 49 765 119 688 b 311 747 257 688 297 715 l 315 747 b 215 553 315 617 275 553 b 163 621 181 553 161 579 b 108 678 164 654 143 678 b 58 625 82 678 58 653 b 207 510 58 563 125 510 b 414 776 328 510 414 625 b 233 1040 414 942 342 1040 z m 228 997 b 308 868 276 997 308 944 b 228 740 308 792 276 740 b 150 868 181 740 150 792 b 228 997 150 944 181 997 z "},"€":{"ha":921,"x_min":0,"x_max":0,"o":"m 539 -11 b 688 36 599 -11 644 3 l 749 -1 b 771 -8 756 -6 764 -8 b 808 29 789 -8 806 4 b 846 196 815 83 828 151 b 853 224 849 203 853 214 b 821 254 853 243 838 254 b 793 236 810 254 800 249 b 571 75 729 121 657 75 b 356 310 465 75 386 154 l 358 313 l 557 308 b 617 357 593 307 617 328 b 558 406 617 389 594 407 l 347 399 l 344 401 b 343 454 343 419 343 436 b 344 493 343 467 343 481 l 347 496 l 557 492 b 617 540 593 490 617 511 b 558 589 617 572 594 590 l 356 582 l 353 585 b 572 831 382 747 463 831 b 794 665 661 831 738 774 b 822 650 800 656 810 650 b 854 682 836 650 854 663 b 847 706 854 688 853 693 b 808 876 829 750 815 818 b 771 914 806 901 789 914 b 749 907 764 914 756 911 l 688 869 b 539 917 644 903 599 917 b 197 581 385 917 243 786 l 103 589 b 43 542 64 592 43 569 b 103 492 43 514 64 490 l 185 496 l 188 493 b 186 458 188 485 186 472 b 189 401 186 439 188 417 l 186 399 l 103 406 b 43 358 64 408 43 386 b 103 308 43 331 64 306 l 200 314 b 539 -11 247 121 386 -11 z "},"₿":{"ha":874,"x_min":0,"x_max":0,"o":"m 346 -171 b 393 -111 372 -171 397 -149 l 382 -10 l 386 -6 b 447 -8 410 -8 428 -8 b 492 -7 461 -8 476 -8 l 496 -11 l 485 -111 b 535 -171 481 -149 506 -171 b 582 -111 561 -171 586 -149 l 569 0 l 574 4 b 829 254 725 40 829 139 b 568 479 829 407 692 463 l 568 488 b 776 697 676 514 776 574 b 572 900 776 790 704 875 l 568 904 l 582 1018 b 535 1078 586 1056 561 1078 b 485 1018 506 1078 481 1056 l 493 907 l 489 903 b 438 904 472 904 456 904 b 386 903 421 904 404 904 l 382 907 l 393 1018 b 346 1078 397 1056 372 1078 b 296 1018 317 1078 292 1056 l 307 910 l 300 901 b 249 900 282 900 265 900 b 82 913 185 900 131 906 b 49 885 63 915 49 901 b 75 853 49 867 61 858 l 176 815 l 176 89 l 75 51 b 49 19 61 46 49 38 b 76 -8 49 4 60 -8 l 82 -8 b 239 3 131 -1 188 3 b 304 0 263 3 285 3 l 308 -6 l 296 -111 b 346 -171 292 -149 317 -171 z m 404 515 l 310 515 l 310 743 b 436 843 310 810 353 843 b 629 688 572 843 629 788 b 404 515 629 563 550 515 z m 453 61 b 310 135 338 61 310 75 l 310 446 l 403 446 b 681 246 588 446 681 381 b 453 61 681 129 594 61 z "},"™":{"ha":965,"x_min":0,"x_max":0,"o":"m 710 660 b 800 667 744 664 771 667 b 878 661 822 667 847 665 b 899 678 892 660 899 669 b 883 697 899 686 894 693 l 829 718 l 808 972 l 846 981 b 865 1000 860 983 865 992 b 843 1021 865 1011 856 1021 l 842 1021 b 744 1019 789 1018 758 1019 b 719 1003 728 1019 722 1013 l 647 793 l 644 793 l 568 997 b 544 1014 564 1010 560 1014 b 497 1013 535 1014 518 1013 b 440 1015 482 1013 463 1014 b 417 997 425 1017 417 1007 b 433 978 417 989 422 981 l 479 967 l 460 719 l 400 697 b 385 678 390 693 385 688 b 407 661 385 668 396 660 b 481 667 440 665 460 667 b 544 661 499 667 517 667 b 568 679 560 658 568 668 b 554 697 568 686 564 693 l 499 719 l 515 939 l 518 939 l 618 672 b 632 661 621 665 625 661 b 646 672 639 661 643 665 l 742 939 l 744 939 l 761 718 l 706 696 b 690 676 694 692 690 683 b 710 660 690 665 699 658 z m 135 660 b 226 667 171 664 200 667 b 314 660 254 667 282 664 b 333 676 326 658 333 667 b 318 696 333 683 329 692 l 260 718 l 260 946 b 288 975 260 969 272 975 b 364 913 318 975 342 949 b 382 901 369 904 376 901 b 397 918 390 901 397 907 b 396 926 397 921 397 924 b 385 990 389 947 385 972 b 363 1017 385 1013 372 1017 b 293 1014 350 1017 338 1014 l 160 1014 b 90 1017 115 1014 103 1017 b 68 990 81 1017 68 1013 b 57 926 68 972 64 947 b 71 901 51 911 60 901 b 89 913 76 901 83 904 b 165 975 111 949 135 975 b 193 946 181 975 193 969 l 193 718 l 133 696 b 118 676 122 692 118 683 b 135 660 118 668 125 658 z "},"℮":{"ha":1036,"x_min":0,"x_max":0,"o":"m 529 -12 b 907 167 676 -12 818 60 l 907 183 l 815 183 b 528 49 749 97 639 49 b 264 168 431 49 332 88 b 242 233 249 186 242 207 l 242 429 b 254 442 242 435 246 442 l 993 442 l 993 456 b 528 919 993 711 778 919 b 61 454 269 919 61 711 b 529 -12 61 196 269 -12 z m 796 504 l 254 504 b 242 515 247 504 242 510 l 242 660 b 276 751 242 699 249 721 b 528 858 333 815 431 858 b 765 758 625 858 711 811 b 807 660 801 724 807 699 l 807 515 b 796 504 807 510 803 504 z "},"⅐":{"ha":1092,"x_min":0,"x_max":0,"o":"m 101 400 b 208 408 133 404 181 408 b 322 400 243 408 290 404 b 350 421 339 397 350 408 b 333 442 350 428 344 436 l 263 474 l 263 907 b 239 931 263 921 253 931 b 214 917 232 931 224 926 b 76 842 186 889 140 854 b 54 818 61 839 54 828 b 83 793 54 806 64 793 l 161 793 l 161 474 l 90 442 b 74 421 79 436 74 428 b 101 400 74 408 85 397 z m 222 -10 b 258 13 236 -10 249 -3 b 544 431 296 71 308 106 b 851 835 779 758 811 783 b 863 865 860 846 863 857 b 821 908 863 889 843 908 b 782 885 807 908 792 901 b 496 465 747 828 733 790 b 190 64 260 138 232 115 b 179 33 182 53 179 42 b 222 -10 179 8 199 -10 z m 836 -4 b 889 60 869 -4 889 22 b 1043 471 889 181 933 357 b 1054 496 1050 479 1054 488 b 1028 521 1054 510 1044 521 b 946 514 1011 521 1006 514 l 801 514 b 749 519 775 514 765 519 b 721 496 733 519 724 511 b 694 393 715 454 713 438 b 690 378 692 388 690 382 b 711 357 690 367 700 357 b 731 368 718 357 725 360 b 853 440 774 432 788 440 l 957 440 l 960 433 b 783 65 868 336 792 194 b 836 -4 781 17 810 -4 z "},"⅑":{"ha":1074,"x_min":0,"x_max":0,"o":"m 92 400 b 199 408 124 404 171 408 b 313 400 233 408 281 404 b 340 421 329 397 340 408 b 324 442 340 428 335 436 l 253 474 l 253 907 b 229 931 253 921 243 931 b 204 917 222 931 214 926 b 67 842 176 889 131 854 b 44 818 51 839 44 828 b 74 793 44 806 54 793 l 151 793 l 151 474 l 81 442 b 64 421 69 436 64 428 b 92 400 64 408 75 397 z m 213 -10 b 249 13 226 -10 239 -3 b 535 431 286 71 299 106 b 842 835 769 758 801 783 b 853 865 850 846 853 857 b 811 908 853 889 833 908 b 772 885 797 908 782 901 b 486 465 738 828 724 790 b 181 64 250 138 222 115 b 169 33 172 53 169 42 b 213 -10 169 8 189 -10 z m 850 522 b 665 329 764 522 665 451 b 826 169 665 247 736 169 b 928 229 874 169 914 197 l 932 229 b 832 35 932 99 892 35 b 779 103 797 35 778 61 b 725 160 781 136 760 160 b 675 107 699 160 675 135 b 824 -8 675 44 742 -8 b 1031 258 944 -8 1031 107 b 850 522 1031 424 958 522 z m 844 479 b 925 350 893 479 925 426 b 844 222 925 274 893 222 b 767 350 797 222 767 274 b 844 479 767 426 797 479 z "},"⅒":{"ha":1425,"x_min":0,"x_max":0,"o":"m 93 400 b 200 408 125 404 172 408 b 314 400 235 408 282 404 b 342 421 331 397 342 408 b 325 442 342 428 336 436 l 254 474 l 254 907 b 231 931 254 921 244 931 b 206 917 224 931 215 926 b 68 842 178 889 132 854 b 46 818 53 839 46 828 b 75 793 46 806 56 793 l 153 793 l 153 474 l 82 442 b 65 421 71 436 65 428 b 93 400 65 408 76 397 z m 214 -10 b 250 13 228 -10 240 -3 b 536 431 288 71 300 106 b 843 835 771 758 803 783 b 854 865 851 846 854 857 b 813 908 854 889 835 908 b 774 885 799 908 783 901 b 488 465 739 828 725 790 b 182 64 251 138 224 115 b 171 33 174 53 171 42 b 214 -10 171 8 190 -10 z m 700 -8 b 807 0 732 -4 779 0 b 921 -8 842 0 889 -4 b 949 13 938 -11 949 0 b 932 33 949 19 943 28 l 861 65 l 861 499 b 838 522 861 513 851 522 b 813 508 831 522 822 518 b 675 433 785 481 739 446 b 653 410 660 431 653 419 b 682 385 653 397 663 385 l 760 385 l 760 65 l 689 33 b 672 13 678 28 672 19 b 700 -8 672 0 683 -11 z m 1181 -8 b 1383 257 1310 -8 1383 99 b 1181 522 1383 415 1310 522 b 978 257 1051 522 978 415 b 1181 -8 978 99 1051 -8 z m 1181 35 b 1089 257 1140 35 1089 65 b 1181 479 1089 449 1140 479 b 1271 257 1221 479 1271 449 b 1181 35 1271 65 1221 35 z "},"⅓":{"ha":1050,"x_min":0,"x_max":0,"o":"m 90 400 b 197 408 122 404 169 408 b 311 400 232 408 279 404 b 339 421 328 397 339 408 b 322 442 339 428 333 436 l 251 474 l 251 907 b 228 931 251 921 242 931 b 203 917 221 931 213 926 b 65 842 175 889 129 854 b 43 818 50 839 43 828 b 72 793 43 806 53 793 l 150 793 l 150 474 l 79 442 b 63 421 68 436 63 428 b 90 400 63 408 74 397 z m 211 -10 b 247 13 225 -10 238 -3 b 533 431 285 71 297 106 b 840 835 768 758 800 783 b 851 865 849 846 851 857 b 810 908 851 889 832 908 b 771 885 796 908 781 901 b 485 465 736 828 722 790 b 179 64 249 138 221 115 b 168 33 171 53 168 42 b 211 -10 168 8 188 -10 z m 821 -11 b 1006 150 919 -11 1006 53 b 885 275 1006 217 947 265 l 885 281 b 986 400 947 300 986 349 b 831 524 986 471 918 524 b 678 408 742 524 678 474 b 731 347 678 371 701 347 b 776 393 757 347 776 365 b 768 439 776 422 768 419 b 818 479 768 457 786 479 b 883 400 857 479 883 442 b 818 293 883 350 863 293 b 776 300 801 293 789 300 b 750 275 758 300 750 288 b 781 250 750 263 758 250 b 818 256 789 250 797 256 b 897 149 854 256 897 222 b 822 35 897 64 860 35 b 767 76 785 35 767 58 b 779 133 767 100 779 107 b 726 186 779 164 756 186 b 669 119 693 186 669 157 b 821 -11 669 28 756 -11 z "},"⅔":{"ha":1126,"x_min":0,"x_max":0,"o":"m 74 394 b 174 401 96 394 104 401 l 246 401 b 344 396 307 401 329 396 b 372 417 364 396 371 410 b 404 536 381 456 393 506 b 383 571 411 556 399 571 b 363 557 376 571 368 567 b 253 475 326 494 301 475 l 163 475 l 160 479 l 279 603 b 393 793 367 694 393 736 b 231 922 393 867 324 922 b 54 771 121 922 54 849 b 121 688 54 724 85 688 b 178 740 157 688 178 710 b 144 822 178 779 144 788 b 211 876 144 854 172 876 b 286 790 254 876 286 843 b 210 624 286 726 261 686 l 57 436 b 49 417 51 431 49 424 b 74 394 49 404 58 394 z m 288 -10 b 324 13 301 -10 314 -3 b 610 431 361 71 374 106 b 917 835 844 758 876 783 b 928 865 925 846 928 857 b 886 908 928 889 908 908 b 847 885 872 908 857 901 b 561 465 813 828 799 790 b 256 64 325 138 297 115 b 244 33 247 53 244 42 b 288 -10 244 8 264 -10 z m 897 -11 b 1082 150 996 -11 1082 53 b 961 275 1082 217 1024 265 l 961 281 b 1063 400 1024 300 1063 349 b 907 524 1063 471 994 524 b 754 408 818 524 754 474 b 807 347 754 371 778 347 b 853 393 833 347 853 365 b 844 439 853 422 844 419 b 894 479 844 457 863 479 b 960 400 933 479 960 442 b 894 293 960 350 939 293 b 853 300 878 293 865 300 b 826 275 835 300 826 288 b 857 250 826 263 835 250 b 894 256 865 250 874 256 b 974 149 931 256 974 222 b 899 35 974 64 936 35 b 843 76 861 35 843 58 b 856 133 843 100 856 107 b 803 186 856 164 832 186 b 746 119 769 186 746 157 b 897 -11 746 28 832 -11 z "},"⅕":{"ha":1028,"x_min":0,"x_max":0,"o":"m 90 400 b 197 408 122 404 169 408 b 311 400 232 408 279 404 b 339 421 328 397 339 408 b 322 442 339 428 333 436 l 251 474 l 251 907 b 228 931 251 921 242 931 b 203 917 221 931 213 926 b 65 842 175 889 129 854 b 43 818 50 839 43 828 b 72 793 43 806 53 793 l 150 793 l 150 474 l 79 442 b 63 421 68 436 63 428 b 90 400 63 408 74 397 z m 211 -10 b 247 13 225 -10 238 -3 b 533 431 285 71 297 106 b 840 835 768 758 800 783 b 851 865 849 846 851 857 b 810 908 851 889 832 908 b 771 885 796 908 781 901 b 485 465 736 828 722 790 b 179 64 249 138 221 115 b 168 33 171 53 168 42 b 211 -10 168 8 188 -10 z m 790 -11 b 982 181 894 -11 982 67 b 819 351 982 278 911 351 b 728 306 786 351 751 339 l 725 307 l 735 428 b 753 442 736 439 742 443 l 896 428 b 954 474 932 424 954 449 b 899 518 954 501 929 521 b 746 508 860 514 797 508 l 708 508 b 682 483 690 508 682 500 b 685 432 682 469 688 460 l 672 265 b 690 243 671 251 678 243 b 714 254 697 243 707 247 b 789 286 735 275 761 286 b 878 165 844 286 878 242 b 790 33 878 93 844 33 b 738 75 756 33 738 57 b 754 139 738 104 754 115 b 704 186 754 164 733 186 b 646 119 672 186 646 160 b 790 -11 646 50 708 -11 z "},"⅖":{"ha":1101,"x_min":0,"x_max":0,"o":"m 72 394 b 172 401 94 394 103 401 l 244 401 b 343 396 306 401 328 396 b 371 417 363 396 369 410 b 403 536 379 456 392 506 b 382 571 410 556 397 571 b 361 557 375 571 367 567 b 251 475 325 494 300 475 l 161 475 l 158 479 l 278 603 b 392 793 365 694 392 736 b 229 922 392 867 322 922 b 53 771 119 922 53 849 b 119 688 53 724 83 688 b 176 740 156 688 176 710 b 143 822 176 779 143 788 b 210 876 143 854 171 876 b 285 790 253 876 285 843 b 208 624 285 726 260 686 l 56 436 b 47 417 50 431 47 424 b 72 394 47 404 57 394 z m 286 -10 b 322 13 300 -10 313 -3 b 608 431 360 71 372 106 b 915 835 843 758 875 783 b 926 865 924 846 926 857 b 885 908 926 889 907 908 b 846 885 871 908 856 901 b 560 465 811 828 797 790 b 254 64 324 138 296 115 b 243 33 246 53 243 42 b 286 -10 243 8 263 -10 z m 865 -11 b 1057 181 969 -11 1057 67 b 894 351 1057 278 986 351 b 803 306 861 351 826 339 l 800 307 l 810 428 b 828 442 811 439 817 443 l 971 428 b 1029 474 1007 424 1029 449 b 974 518 1029 501 1004 521 b 821 508 935 514 872 508 l 783 508 b 757 483 765 508 757 500 b 760 432 757 469 763 460 l 747 265 b 765 243 746 251 753 243 b 789 254 772 243 782 247 b 864 286 810 275 836 286 b 953 165 919 286 953 242 b 865 33 953 93 919 33 b 813 75 831 33 813 57 b 829 139 813 104 829 115 b 779 186 829 164 808 186 b 721 119 747 186 721 160 b 865 -11 721 50 783 -11 z "},"⅗":{"ha":1056,"x_min":0,"x_max":0,"o":"m 197 393 b 382 554 296 393 382 457 b 261 679 382 621 324 669 l 261 685 b 363 804 324 704 363 753 b 207 928 363 875 294 928 b 54 813 118 928 54 878 b 107 751 54 775 78 751 b 153 797 133 751 153 769 b 144 843 153 826 144 824 b 194 883 144 861 163 883 b 260 804 233 883 260 846 b 194 697 260 754 239 697 b 153 704 178 697 165 704 b 126 679 135 704 126 692 b 157 654 126 667 135 654 b 194 660 165 654 174 660 b 274 553 231 660 274 626 b 199 439 274 468 236 439 b 143 481 161 439 143 463 b 156 538 143 504 156 511 b 103 590 156 568 132 590 b 46 524 69 590 46 561 b 197 393 46 432 132 393 z m 240 -10 b 276 13 254 -10 267 -3 b 563 431 314 71 326 106 b 869 835 797 758 829 783 b 881 865 878 846 881 857 b 839 908 881 889 861 908 b 800 885 825 908 810 901 b 514 465 765 828 751 790 b 208 64 278 138 250 115 b 197 33 200 53 197 42 b 240 -10 197 8 217 -10 z m 819 -11 b 1011 181 924 -11 1011 67 b 849 351 1011 278 940 351 b 757 306 815 351 781 339 l 754 307 l 764 428 b 782 442 765 439 771 443 l 925 428 b 983 474 961 424 983 449 b 928 518 983 501 958 521 b 775 508 889 514 826 508 l 738 508 b 711 483 719 508 711 500 b 714 432 711 469 717 460 l 701 265 b 719 243 700 251 707 243 b 743 254 726 243 736 247 b 818 286 764 275 790 286 b 907 165 874 286 907 242 b 819 33 907 93 874 33 b 767 75 785 33 767 57 b 783 139 767 104 783 115 b 733 186 783 164 763 186 b 675 119 701 186 675 160 b 819 -11 675 50 738 -11 z "},"⅘":{"ha":1092,"x_min":0,"x_max":0,"o":"m 161 396 b 263 404 197 400 226 404 b 372 396 300 404 347 400 b 401 417 389 393 401 403 b 385 438 401 424 396 432 l 314 469 l 314 519 l 376 519 b 411 553 400 519 411 538 b 374 585 411 569 397 588 l 314 578 l 314 636 b 301 644 314 644 308 646 l 228 628 b 218 615 221 626 218 622 l 218 571 l 111 560 l 110 569 b 307 861 183 621 307 753 b 253 925 307 906 282 925 b 200 864 229 925 201 903 b 60 581 196 751 138 633 b 36 547 44 571 36 561 b 61 519 36 529 50 519 l 218 519 l 218 469 l 150 438 b 133 417 139 433 133 425 b 161 396 133 404 144 393 z m 263 -10 b 299 13 276 -10 289 -3 b 585 431 336 71 349 106 b 892 835 819 758 851 783 b 903 865 900 846 903 857 b 861 908 903 889 883 908 b 822 885 847 908 832 901 b 536 465 788 828 774 790 b 231 64 300 138 272 115 b 219 33 222 53 219 42 b 263 -10 219 8 239 -10 z m 842 -11 b 1033 181 946 -11 1033 67 b 871 351 1033 278 963 351 b 779 306 838 351 803 339 l 776 307 l 786 428 b 804 442 788 439 793 443 l 947 428 b 1006 474 983 424 1006 449 b 950 518 1006 501 981 521 b 797 508 911 514 849 508 l 760 508 b 733 483 742 508 733 500 b 736 432 733 469 739 460 l 724 265 b 742 243 722 251 729 243 b 765 254 749 243 758 247 b 840 286 786 275 813 286 b 929 165 896 286 929 242 b 842 33 929 93 896 33 b 789 75 807 33 789 57 b 806 139 789 104 806 115 b 756 186 806 164 785 186 b 697 119 724 186 697 160 b 842 -11 697 50 760 -11 z "},"⅙":{"ha":1061,"x_min":0,"x_max":0,"o":"m 90 400 b 197 408 122 404 169 408 b 311 400 232 408 279 404 b 339 421 328 397 339 408 b 322 442 339 428 333 436 l 251 474 l 251 907 b 228 931 251 921 242 931 b 203 917 221 931 213 926 b 65 842 175 889 129 854 b 43 818 50 839 43 828 b 72 793 43 806 53 793 l 150 793 l 150 474 l 79 442 b 63 421 68 436 63 428 b 90 400 63 408 74 397 z m 211 -10 b 247 13 225 -10 238 -3 b 533 431 285 71 297 106 b 840 835 768 758 800 783 b 851 865 849 846 851 857 b 810 908 851 889 832 908 b 771 885 796 908 781 901 b 485 465 736 828 722 790 b 179 64 249 138 221 115 b 168 33 171 53 168 42 b 211 -10 168 8 188 -10 z m 831 -8 b 1015 185 917 -8 1015 63 b 854 344 1015 267 944 344 b 753 285 807 344 767 317 l 749 285 b 849 479 749 415 789 479 b 901 411 883 479 903 453 b 956 354 900 378 921 354 b 1006 407 982 354 1006 379 b 857 522 1006 469 939 522 b 650 256 736 522 650 407 b 831 -8 650 90 722 -8 z m 836 35 b 756 164 788 35 756 88 b 836 292 756 240 788 292 b 914 164 883 292 914 240 b 836 35 914 88 883 35 z "},"⅚":{"ha":1092,"x_min":0,"x_max":0,"o":"m 189 393 b 381 585 293 393 381 471 b 218 756 381 682 310 756 b 126 710 185 756 150 743 l 124 711 l 133 832 b 151 846 135 843 140 847 l 294 832 b 353 878 331 828 353 853 b 297 922 353 906 328 925 b 144 913 258 918 196 913 l 107 913 b 81 888 89 913 81 904 b 83 836 81 874 86 864 l 71 669 b 89 647 69 656 76 647 b 113 658 96 647 106 651 b 188 690 133 679 160 690 b 276 569 243 690 276 646 b 189 438 276 497 243 438 b 136 479 154 438 136 461 b 153 543 136 508 153 519 b 103 590 153 568 132 590 b 44 524 71 590 44 564 b 189 393 44 454 107 393 z m 242 -10 b 278 13 256 -10 268 -3 b 564 431 315 71 328 106 b 871 835 799 758 831 783 b 882 865 879 846 882 857 b 840 908 882 889 863 908 b 801 885 826 908 811 901 b 515 465 767 828 753 790 b 210 64 279 138 251 115 b 199 33 201 53 199 42 b 242 -10 199 8 218 -10 z m 861 -8 b 1046 185 947 -8 1046 63 b 885 344 1046 267 975 344 b 783 285 838 344 797 317 l 779 285 b 879 479 779 415 819 479 b 932 411 914 479 933 453 b 986 354 931 378 951 354 b 1036 407 1013 354 1036 379 b 888 522 1036 469 969 522 b 681 256 767 522 681 407 b 861 -8 681 90 753 -8 z m 867 35 b 786 164 818 35 786 88 b 867 292 786 240 818 292 b 944 164 914 292 944 240 b 867 35 944 88 914 35 z "},"⅛":{"ha":1040,"x_min":0,"x_max":0,"o":"m 90 400 b 197 408 122 404 169 408 b 311 400 232 408 279 404 b 339 421 328 397 339 408 b 322 442 339 428 333 436 l 251 474 l 251 907 b 228 931 251 921 242 931 b 203 917 221 931 213 926 b 65 842 175 889 129 854 b 43 818 50 839 43 828 b 72 793 43 806 53 793 l 150 793 l 150 474 l 79 442 b 63 421 68 436 63 428 b 90 400 63 408 74 397 z m 211 -10 b 247 13 225 -10 238 -3 b 533 431 285 71 297 106 b 840 835 768 758 800 783 b 851 865 849 846 851 857 b 810 908 851 889 832 908 b 771 885 796 908 781 901 b 485 465 736 828 722 790 b 179 64 249 138 221 115 b 168 33 171 53 168 42 b 211 -10 168 8 188 -10 z m 819 -8 b 993 143 919 -8 993 57 b 893 286 993 197 961 250 l 893 288 b 975 407 944 311 975 361 b 829 524 975 472 911 524 b 683 390 749 524 683 465 b 757 260 683 329 713 289 l 757 258 b 654 128 703 236 654 193 b 819 -8 654 46 725 -8 z m 856 304 b 756 408 788 338 756 367 b 825 476 756 447 789 476 b 893 400 864 476 893 449 b 856 304 893 364 881 328 z m 825 38 b 740 131 772 38 740 79 b 792 242 740 176 761 214 b 904 122 874 203 904 168 b 825 38 904 76 874 38 z "},"⅜":{"ha":1068,"x_min":0,"x_max":0,"o":"m 197 393 b 382 554 296 393 382 457 b 261 679 382 621 324 669 l 261 685 b 363 804 324 704 363 753 b 207 928 363 875 294 928 b 54 813 118 928 54 878 b 107 751 54 775 78 751 b 153 797 133 751 153 769 b 144 843 153 826 144 824 b 194 883 144 861 163 883 b 260 804 233 883 260 846 b 194 697 260 754 239 697 b 153 704 178 697 165 704 b 126 679 135 704 126 692 b 157 654 126 667 135 654 b 194 660 165 654 174 660 b 274 553 231 660 274 626 b 199 439 274 468 236 439 b 143 481 161 439 143 463 b 156 538 143 504 156 511 b 103 590 156 568 132 590 b 46 524 69 590 46 561 b 197 393 46 432 132 393 z m 240 -10 b 276 13 254 -10 267 -3 b 563 431 314 71 326 106 b 869 835 797 758 829 783 b 881 865 878 846 881 857 b 839 908 881 889 861 908 b 800 885 825 908 810 901 b 514 465 765 828 751 790 b 208 64 278 138 250 115 b 197 33 200 53 197 42 b 240 -10 197 8 217 -10 z m 849 -8 b 1022 143 949 -8 1022 57 b 922 286 1022 197 990 250 l 922 288 b 1004 407 974 311 1004 361 b 858 524 1004 472 940 524 b 713 390 778 524 713 465 b 786 260 713 329 742 289 l 786 258 b 683 128 732 236 683 193 b 849 -8 683 46 754 -8 z m 885 304 b 785 408 817 338 785 367 b 854 476 785 447 818 476 b 922 400 893 476 922 449 b 885 304 922 364 910 328 z m 854 38 b 769 131 801 38 769 79 b 821 242 769 176 790 214 b 933 122 903 203 933 168 b 854 38 933 76 903 38 z "},"⅝":{"ha":1071,"x_min":0,"x_max":0,"o":"m 189 393 b 381 585 293 393 381 471 b 218 756 381 682 310 756 b 126 710 185 756 150 743 l 124 711 l 133 832 b 151 846 135 843 140 847 l 294 832 b 353 878 331 828 353 853 b 297 922 353 906 328 925 b 144 913 258 918 196 913 l 107 913 b 81 888 89 913 81 904 b 83 836 81 874 86 864 l 71 669 b 89 647 69 656 76 647 b 113 658 96 647 106 651 b 188 690 133 679 160 690 b 276 569 243 690 276 646 b 189 438 276 497 243 438 b 136 479 154 438 136 461 b 153 543 136 508 153 519 b 103 590 153 568 132 590 b 44 524 71 590 44 564 b 189 393 44 454 107 393 z m 242 -10 b 278 13 256 -10 268 -3 b 564 431 315 71 328 106 b 871 835 799 758 831 783 b 882 865 879 846 882 857 b 840 908 882 889 863 908 b 801 885 826 908 811 901 b 515 465 767 828 753 790 b 210 64 279 138 251 115 b 199 33 201 53 199 42 b 242 -10 199 8 218 -10 z m 850 -8 b 1024 143 950 -8 1024 57 b 924 286 1024 197 992 250 l 924 288 b 1006 407 975 311 1006 361 b 860 524 1006 472 942 524 b 714 390 779 524 714 465 b 788 260 714 329 743 289 l 788 258 b 685 128 733 236 685 193 b 850 -8 685 46 756 -8 z m 886 304 b 786 408 818 338 786 367 b 856 476 786 447 819 476 b 924 400 894 476 924 449 b 886 304 924 364 911 328 z m 856 38 b 771 131 803 38 771 79 b 822 242 771 176 792 214 b 935 122 904 203 935 168 b 856 38 935 76 904 38 z "},"⅞":{"ha":1014,"x_min":0,"x_max":0,"o":"m 186 401 b 239 465 219 401 239 428 b 393 876 239 586 283 763 b 404 901 400 885 404 893 b 378 926 404 915 394 926 b 296 919 361 926 356 919 l 151 919 b 99 925 125 919 115 925 b 71 901 83 925 74 917 b 44 799 65 860 63 843 b 40 783 42 793 40 788 b 61 763 40 772 50 763 b 81 774 68 763 75 765 b 203 846 124 838 138 846 l 307 846 l 310 839 b 133 471 218 742 142 600 b 186 401 131 422 160 401 z m 179 -10 b 215 13 193 -10 206 -3 b 501 431 253 71 265 106 b 808 835 736 758 768 783 b 819 865 817 846 819 857 b 778 908 819 889 800 908 b 739 885 764 908 749 901 b 453 465 704 828 690 790 b 147 64 217 138 189 115 b 136 33 139 53 136 42 b 179 -10 136 8 156 -10 z m 788 -8 b 961 143 888 -8 961 57 b 861 286 961 197 929 250 l 861 288 b 943 407 913 311 943 361 b 797 524 943 472 879 524 b 651 390 717 524 651 465 b 725 260 651 329 681 289 l 725 258 b 622 128 671 236 622 193 b 788 -8 622 46 693 -8 z m 824 304 b 724 408 756 338 724 367 b 793 476 724 447 757 476 b 861 400 832 476 861 449 b 824 304 861 364 849 328 z m 793 38 b 708 131 740 38 708 79 b 760 242 708 176 729 214 b 872 122 842 203 872 168 b 793 38 872 76 842 38 z "},"⅟":{"ha":750,"x_min":0,"x_max":0,"o":"m 211 400 b 318 408 243 404 290 408 b 432 400 353 408 400 404 b 460 421 449 397 460 408 b 443 442 460 428 454 436 l 372 474 l 372 907 b 349 931 372 921 363 931 b 324 917 342 931 333 926 b 186 842 296 889 250 854 b 164 818 171 839 164 828 b 193 793 164 806 174 793 l 271 793 l 271 474 l 200 442 b 183 421 189 436 183 428 b 211 400 183 408 194 397 z m 332 -10 b 368 13 346 -10 358 -3 b 654 431 406 71 418 106 b 961 835 889 758 921 783 b 972 865 969 846 972 857 b 931 908 972 889 953 908 b 892 885 917 908 901 901 b 606 465 857 828 843 790 b 300 64 369 138 342 115 b 289 33 292 53 289 42 b 332 -10 289 8 308 -10 z "},"↉":{"ha":1093,"x_min":0,"x_max":0,"o":"m 246 396 b 449 661 375 396 449 503 b 246 926 449 819 375 926 b 43 661 117 926 43 819 b 246 396 43 503 117 396 z m 253 -10 b 289 13 267 -10 279 -3 b 575 431 326 71 339 106 b 882 835 810 758 842 783 b 893 865 890 846 893 857 b 851 908 893 889 874 908 b 813 885 838 908 822 901 b 526 465 778 828 764 790 b 221 64 290 138 263 115 b 210 33 213 53 210 42 b 253 -10 210 8 229 -10 z m 246 439 b 154 661 206 439 154 469 b 246 883 154 853 206 883 b 336 661 286 883 336 853 b 246 439 336 469 286 439 z m 863 -11 b 1047 150 961 -11 1047 53 b 926 275 1047 217 989 265 l 926 281 b 1028 400 989 300 1028 349 b 872 524 1028 471 960 524 b 719 408 783 524 719 474 b 772 347 719 371 743 347 b 818 393 799 347 818 365 b 810 439 818 422 810 419 b 860 479 810 457 828 479 b 925 400 899 479 925 442 b 860 293 925 350 904 293 b 818 300 843 293 831 300 b 792 275 800 300 792 288 b 822 250 792 263 800 250 b 860 256 831 250 839 256 b 939 149 896 256 939 222 b 864 35 939 64 901 35 b 808 76 826 35 808 58 b 821 133 808 100 821 107 b 768 186 821 164 797 186 b 711 119 735 186 711 157 b 863 -11 711 28 797 -11 z "},"∂":{"ha":749,"x_min":0,"x_max":0,"o":"m 319 -18 b 689 519 500 -18 689 175 b 279 1042 689 772 554 1042 b 106 924 179 1042 106 992 b 183 846 106 881 140 846 b 251 882 206 846 231 854 l 324 978 b 539 508 444 939 539 811 l 529 508 b 333 611 478 581 408 611 b 43 286 189 611 43 486 b 319 -18 43 154 136 -18 z m 329 47 b 179 281 242 47 179 151 b 363 519 179 406 244 519 b 536 419 446 519 499 471 b 329 47 536 206 444 47 z "},"∏":{"ha":869,"x_min":0,"x_max":0,"o":"m 256 -262 b 307 -211 283 -262 307 -240 b 296 351 307 -169 296 49 b 299 867 296 522 297 696 b 438 869 338 868 383 869 b 571 867 482 869 528 868 b 574 351 572 696 574 522 b 563 -211 574 49 563 -169 b 614 -262 563 -240 586 -262 b 665 -211 642 -262 665 -240 b 654 351 665 -169 654 49 b 657 865 654 522 656 694 b 786 863 733 864 761 863 b 838 914 815 863 838 886 b 786 965 838 942 815 965 b 438 958 744 965 699 958 b 83 965 218 958 125 965 b 32 914 54 965 32 942 b 83 863 32 886 54 863 b 213 865 107 863 144 864 b 215 351 214 694 215 522 b 204 -211 215 49 204 -169 b 256 -262 204 -240 228 -262 z "},"−":{"ha":758,"x_min":0,"x_max":0,"o":"m 135 336 b 379 349 178 336 250 349 b 624 336 508 349 581 336 b 675 388 651 336 675 360 b 624 439 675 415 651 439 b 379 426 581 439 508 426 b 135 439 250 426 178 439 b 83 388 107 439 83 415 b 135 336 83 360 107 336 z "},"≈":{"ha":758,"x_min":0,"x_max":0,"o":"m 524 396 b 704 543 629 396 704 482 b 649 601 704 581 676 601 b 590 554 617 601 599 582 b 510 482 576 510 547 482 b 235 622 425 482 388 622 b 54 475 129 622 54 536 b 110 417 54 438 82 417 b 168 464 142 417 160 436 b 249 536 182 508 211 536 b 524 396 333 536 371 396 z m 524 188 b 704 335 629 188 704 274 b 649 393 704 372 676 393 b 590 346 617 393 599 374 b 510 274 576 301 547 274 b 235 414 425 274 388 414 b 54 267 129 414 54 328 b 110 208 54 229 82 208 b 168 256 142 208 160 228 b 249 328 182 300 211 328 b 524 188 333 328 371 188 z "},"≠":{"ha":758,"x_min":0,"x_max":0,"o":"m 229 83 b 274 108 247 83 264 93 b 349 257 289 136 307 178 l 379 257 b 651 244 536 257 608 244 b 703 296 679 244 703 268 b 651 347 703 324 679 347 b 392 335 610 347 540 335 l 390 336 b 460 453 411 374 436 415 b 651 442 563 450 617 442 b 703 493 679 442 703 465 b 651 544 703 521 679 544 b 514 535 624 544 583 539 l 513 536 b 574 629 540 582 561 608 b 581 656 578 638 581 647 b 529 706 581 683 557 706 b 485 681 511 706 494 696 b 410 532 469 653 451 611 l 379 532 b 107 544 222 532 150 544 b 56 493 79 544 56 521 b 107 442 56 465 79 442 b 367 454 149 442 217 454 l 368 453 b 299 336 346 411 328 383 b 107 347 196 339 142 347 b 56 296 79 347 56 324 b 107 244 56 268 79 244 b 244 254 135 244 175 250 l 246 253 b 185 160 218 207 197 181 b 178 135 181 151 178 143 b 229 83 178 108 197 83 z "},"≤":{"ha":758,"x_min":0,"x_max":0,"o":"m 603 242 b 660 296 639 242 660 269 b 213 440 660 369 538 407 l 213 454 b 660 599 538 488 660 525 b 603 653 660 625 639 653 b 539 626 583 653 567 646 b 136 494 426 547 304 518 b 93 447 107 490 93 468 b 136 400 93 426 107 404 b 539 268 304 376 426 347 b 603 242 567 249 583 242 z m 613 67 b 664 118 642 67 664 90 b 613 169 664 146 642 169 b 378 163 557 169 528 163 b 143 169 228 163 199 169 b 92 118 114 169 92 146 b 143 67 92 90 114 67 b 378 74 199 67 228 74 b 613 67 528 74 557 67 z "},"≥":{"ha":758,"x_min":0,"x_max":0,"o":"m 156 242 b 219 268 175 242 192 249 b 622 400 332 347 454 376 b 665 447 651 404 665 426 b 622 494 665 468 651 490 b 219 626 454 518 332 547 b 156 653 192 646 175 653 b 99 599 119 653 99 625 b 546 454 99 525 221 488 l 546 440 b 99 296 221 407 99 369 b 156 242 99 269 119 242 z m 146 67 b 381 74 201 67 231 74 b 615 67 531 74 560 67 b 667 118 644 67 667 90 b 615 169 667 146 644 169 b 381 163 560 169 531 163 b 146 169 231 163 201 169 b 94 118 117 169 94 146 b 146 67 94 90 117 67 z "},"ﬁ":{"ha":819,"x_min":0,"x_max":0,"o":"m 89 -8 l 93 -8 b 217 0 140 -3 169 0 b 342 -8 268 0 307 -4 b 372 19 360 -11 372 4 b 351 49 372 31 365 43 l 282 78 l 282 588 l 522 588 b 563 544 549 588 563 572 l 563 78 l 493 49 b 472 19 478 42 472 31 b 499 -8 472 6 483 -8 l 503 -8 b 626 0 550 -8 579 0 b 753 -8 678 0 717 -6 b 782 19 769 -10 782 4 b 761 49 782 31 775 43 l 692 78 l 692 576 b 696 657 692 626 696 642 b 667 688 696 675 683 688 b 542 667 642 688 629 669 l 282 657 l 282 678 b 465 957 282 878 382 958 l 532 865 b 597 826 556 833 574 826 b 669 903 635 826 669 861 b 649 958 669 922 664 942 b 482 1021 611 999 547 1021 b 157 682 303 1021 157 897 b 121 650 157 658 149 651 l 49 647 b 18 617 28 646 18 631 b 49 588 18 601 32 588 l 153 588 l 153 78 l 83 49 b 63 19 68 42 63 31 b 89 -8 63 6 74 -8 z "}}}
